<svg xmlns="http://www.w3.org/2000/svg" xmlns:xlink="http://www.w3.org/1999/xlink" width="40" zoomAndPan="magnify" viewBox="0 0 30 30.000001" height="40" preserveAspectRatio="xMidYMid meet" version="1.0"><defs><g/><clipPath id="c395840451"><path d="M 4.488281 3.609375 L 25.539062 3.609375 L 25.539062 25.382812 L 4.488281 25.382812 Z M 4.488281 3.609375 " clip-rule="nonzero"/></clipPath><clipPath id="78a7d958c6"><path d="M 8.613281 17.230469 C 8.613281 17.230469 12.132812 9.613281 17.242188 3.878906 C 16.589844 3.738281 15.933594 3.65625 15.265625 3.640625 C 14.601562 3.625 13.941406 3.667969 13.285156 3.777344 C 12.628906 3.882812 11.988281 4.054688 11.363281 4.28125 C 10.738281 4.511719 10.140625 4.796875 9.570312 5.136719 C 9 5.480469 8.464844 5.871094 7.96875 6.316406 C 7.472656 6.757812 7.023438 7.242188 6.621094 7.769531 C 6.21875 8.296875 5.867188 8.859375 5.570312 9.453125 C 5.273438 10.046875 5.035156 10.664062 4.859375 11.300781 C 4.679688 11.941406 4.5625 12.589844 4.503906 13.253906 C 4.449219 13.914062 4.457031 14.574219 4.527344 15.234375 C 4.597656 15.894531 4.730469 16.542969 4.921875 17.175781 C 5.117188 17.8125 5.367188 18.421875 5.675781 19.007812 C 5.984375 19.597656 6.347656 20.148438 6.761719 20.667969 C 7.179688 21.1875 7.636719 21.664062 8.144531 22.09375 C 8.648438 22.527344 9.191406 22.90625 9.769531 23.238281 C 10.34375 23.566406 10.949219 23.839844 11.578125 24.054688 L 11.402344 25.324219 L 11.605469 25.351562 L 12.144531 23.992188 C 12.992188 21.910156 14.417969 18.703125 15.976562 16.421875 C 15.976562 16.421875 11.804688 16.304688 8.613281 17.230469 Z M 22.691406 6.953125 C 20.578125 8.441406 17.972656 10.699219 15.867188 13.820312 C 15.867188 13.820312 21.601562 13.070312 23.925781 12.953125 C 23.925781 12.953125 17.347656 18.597656 12.667969 24.363281 C 13.214844 24.488281 13.769531 24.566406 14.328125 24.605469 C 14.886719 24.640625 15.445312 24.632812 16.003906 24.582031 C 16.558594 24.527344 17.109375 24.433594 17.652344 24.292969 C 18.195312 24.152344 18.722656 23.96875 19.238281 23.746094 C 19.75 23.523438 20.242188 23.257812 20.714844 22.957031 C 21.183594 22.65625 21.628906 22.316406 22.046875 21.945312 C 22.460938 21.570312 22.847656 21.167969 23.199219 20.734375 C 23.550781 20.300781 23.867188 19.839844 24.144531 19.355469 C 24.425781 18.871094 24.664062 18.367188 24.863281 17.847656 C 25.058594 17.324219 25.214844 16.789062 25.328125 16.242188 C 25.441406 15.695312 25.507812 15.140625 25.53125 14.585938 C 25.558594 14.027344 25.535156 13.46875 25.472656 12.914062 C 25.40625 12.359375 25.296875 11.816406 25.144531 11.277344 C 24.992188 10.738281 24.796875 10.21875 24.5625 9.710938 C 24.324219 9.207031 24.050781 8.722656 23.738281 8.257812 C 23.421875 7.796875 23.074219 7.359375 22.691406 6.953125 Z M 22.691406 6.953125 " clip-rule="nonzero"/></clipPath><linearGradient x1="-20.237746" gradientTransform="matrix(0.0989163, 0, 0, 0.0986023, 4.490225, 3.64321)" y1="30.872881" x2="229.956026" gradientUnits="userSpaceOnUse" y2="193.82327" id="a790f1fede"><stop stop-opacity="1" stop-color="rgb(69.799805%, 44.699097%, 54.499817%)" offset="0"/><stop stop-opacity="1" stop-color="rgb(69.799805%, 44.699097%, 54.499817%)" offset="0.125"/><stop stop-opacity="1" stop-color="rgb(69.799805%, 44.699097%, 54.499817%)" offset="0.140625"/><stop stop-opacity="1" stop-color="rgb(69.541931%, 44.400024%, 54.418945%)" offset="0.144531"/><stop stop-opacity="1" stop-color="rgb(69.285583%, 44.100952%, 54.338074%)" offset="0.148438"/><stop stop-opacity="1" stop-color="rgb(68.443298%, 43.121338%, 54.072571%)" offset="0.152344"/><stop stop-opacity="1" stop-color="rgb(67.601013%, 42.141724%, 53.807068%)" offset="0.15625"/><stop stop-opacity="1" stop-color="rgb(66.758728%, 41.160583%, 53.541565%)" offset="0.160156"/><stop stop-opacity="1" stop-color="rgb(65.917969%, 40.180969%, 53.276062%)" offset="0.164062"/><stop stop-opacity="1" stop-color="rgb(65.075684%, 39.199829%, 53.010559%)" offset="0.167969"/><stop stop-opacity="1" stop-color="rgb(64.233398%, 38.220215%, 52.745056%)" offset="0.171875"/><stop stop-opacity="1" stop-color="rgb(63.391113%, 37.240601%, 52.479553%)" offset="0.175781"/><stop stop-opacity="1" stop-color="rgb(62.550354%, 36.260986%, 52.215576%)" offset="0.179688"/><stop stop-opacity="1" stop-color="rgb(61.708069%, 35.279846%, 51.950073%)" offset="0.183594"/><stop stop-opacity="1" stop-color="rgb(60.865784%, 34.300232%, 51.68457%)" offset="0.1875"/><stop stop-opacity="1" stop-color="rgb(60.023499%, 33.319092%, 51.419067%)" offset="0.191406"/><stop stop-opacity="1" stop-color="rgb(59.182739%, 32.339478%, 51.153564%)" offset="0.195312"/><stop stop-opacity="1" stop-color="rgb(58.340454%, 31.359863%, 50.888062%)" offset="0.199219"/><stop stop-opacity="1" stop-color="rgb(57.498169%, 30.380249%, 50.622559%)" offset="0.203125"/><stop stop-opacity="1" stop-color="rgb(56.655884%, 29.399109%, 50.357056%)" offset="0.207031"/><stop stop-opacity="1" stop-color="rgb(55.813599%, 28.419495%, 50.093079%)" offset="0.210938"/><stop stop-opacity="1" stop-color="rgb(54.971313%, 27.43988%, 49.827576%)" offset="0.214844"/><stop stop-opacity="1" stop-color="rgb(54.130554%, 26.460266%, 49.562073%)" offset="0.21875"/><stop stop-opacity="1" stop-color="rgb(53.288269%, 25.479126%, 49.29657%)" offset="0.222656"/><stop stop-opacity="1" stop-color="rgb(52.445984%, 24.499512%, 49.031067%)" offset="0.226562"/><stop stop-opacity="1" stop-color="rgb(51.603699%, 23.518372%, 48.765564%)" offset="0.230469"/><stop stop-opacity="1" stop-color="rgb(50.762939%, 22.538757%, 48.500061%)" offset="0.234375"/><stop stop-opacity="1" stop-color="rgb(49.920654%, 21.559143%, 48.234558%)" offset="0.238281"/><stop stop-opacity="1" stop-color="rgb(49.078369%, 20.579529%, 47.970581%)" offset="0.242188"/><stop stop-opacity="1" stop-color="rgb(48.236084%, 19.598389%, 47.705078%)" offset="0.246094"/><stop stop-opacity="1" stop-color="rgb(47.395325%, 18.618774%, 47.439575%)" offset="0.25"/><stop stop-opacity="1" stop-color="rgb(46.55304%, 17.63916%, 47.174072%)" offset="0.253906"/><stop stop-opacity="1" stop-color="rgb(45.710754%, 16.659546%, 46.908569%)" offset="0.257812"/><stop stop-opacity="1" stop-color="rgb(44.868469%, 15.678406%, 46.643066%)" offset="0.261719"/><stop stop-opacity="1" stop-color="rgb(44.02771%, 14.698792%, 46.377563%)" offset="0.265625"/><stop stop-opacity="1" stop-color="rgb(43.185425%, 13.717651%, 46.112061%)" offset="0.269531"/><stop stop-opacity="1" stop-color="rgb(42.34314%, 12.738037%, 45.848083%)" offset="0.273438"/><stop stop-opacity="1" stop-color="rgb(41.500854%, 11.758423%, 45.582581%)" offset="0.277344"/><stop stop-opacity="1" stop-color="rgb(40.658569%, 10.778809%, 45.317078%)" offset="0.28125"/><stop stop-opacity="1" stop-color="rgb(39.816284%, 9.797668%, 45.051575%)" offset="0.285156"/><stop stop-opacity="1" stop-color="rgb(38.975525%, 8.818054%, 44.786072%)" offset="0.289063"/><stop stop-opacity="1" stop-color="rgb(38.13324%, 7.836914%, 44.520569%)" offset="0.292969"/><stop stop-opacity="1" stop-color="rgb(37.290955%, 6.8573%, 44.256592%)" offset="0.296875"/><stop stop-opacity="1" stop-color="rgb(36.448669%, 5.877686%, 43.991089%)" offset="0.300781"/><stop stop-opacity="1" stop-color="rgb(35.60791%, 4.898071%, 43.725586%)" offset="0.304688"/><stop stop-opacity="1" stop-color="rgb(34.765625%, 3.916931%, 43.460083%)" offset="0.308594"/><stop stop-opacity="1" stop-color="rgb(33.92334%, 2.937317%, 43.19458%)" offset="0.3125"/><stop stop-opacity="1" stop-color="rgb(33.081055%, 1.957703%, 42.929077%)" offset="0.316406"/><stop stop-opacity="1" stop-color="rgb(32.240295%, 0.978088%, 42.663574%)" offset="0.320313"/><stop stop-opacity="1" stop-color="rgb(31.867981%, 0.549316%, 42.579651%)" offset="0.324219"/><stop stop-opacity="1" stop-color="rgb(31.497192%, 0.12207%, 42.495728%)" offset="0.328125"/><stop stop-opacity="1" stop-color="rgb(31.594849%, 0.245667%, 42.591858%)" offset="0.335938"/><stop stop-opacity="1" stop-color="rgb(31.788635%, 0.492859%, 42.785645%)" offset="0.34375"/><stop stop-opacity="1" stop-color="rgb(31.983948%, 0.738525%, 42.977905%)" offset="0.351563"/><stop stop-opacity="1" stop-color="rgb(32.17926%, 0.985718%, 43.171692%)" offset="0.359375"/><stop stop-opacity="1" stop-color="rgb(32.374573%, 1.231384%, 43.363953%)" offset="0.367188"/><stop stop-opacity="1" stop-color="rgb(32.568359%, 1.478577%, 43.557739%)" offset="0.375"/><stop stop-opacity="1" stop-color="rgb(32.763672%, 1.725769%, 43.75%)" offset="0.382813"/><stop stop-opacity="1" stop-color="rgb(32.958984%, 1.971436%, 43.943787%)" offset="0.390625"/><stop stop-opacity="1" stop-color="rgb(33.154297%, 2.218628%, 44.136047%)" offset="0.398438"/><stop stop-opacity="1" stop-color="rgb(33.349609%, 2.464294%, 44.329834%)" offset="0.402817"/><stop stop-opacity="1" stop-color="rgb(33.447266%, 2.587891%, 44.425964%)" offset="0.40625"/><stop stop-opacity="1" stop-color="rgb(33.543396%, 2.711487%, 44.522095%)" offset="0.414063"/><stop stop-opacity="1" stop-color="rgb(33.738708%, 2.958679%, 44.715881%)" offset="0.421875"/><stop stop-opacity="1" stop-color="rgb(33.934021%, 3.204346%, 44.908142%)" offset="0.429688"/><stop stop-opacity="1" stop-color="rgb(34.129333%, 3.451538%, 45.101929%)" offset="0.4375"/><stop stop-opacity="1" stop-color="rgb(34.32312%, 3.697205%, 45.294189%)" offset="0.445313"/><stop stop-opacity="1" stop-color="rgb(34.518433%, 3.944397%, 45.487976%)" offset="0.453125"/><stop stop-opacity="1" stop-color="rgb(34.713745%, 4.191589%, 45.681763%)" offset="0.460938"/><stop stop-opacity="1" stop-color="rgb(34.909058%, 4.437256%, 45.874023%)" offset="0.46875"/><stop stop-opacity="1" stop-color="rgb(35.10437%, 4.684448%, 46.06781%)" offset="0.476563"/><stop stop-opacity="1" stop-color="rgb(35.298157%, 4.930115%, 46.260071%)" offset="0.484375"/><stop stop-opacity="1" stop-color="rgb(35.493469%, 5.177307%, 46.453857%)" offset="0.492188"/><stop stop-opacity="1" stop-color="rgb(35.688782%, 5.4245%, 46.646118%)" offset="0.5"/><stop stop-opacity="1" stop-color="rgb(35.884094%, 5.670166%, 46.839905%)" offset="0.507812"/><stop stop-opacity="1" stop-color="rgb(36.077881%, 5.917358%, 47.032166%)" offset="0.515625"/><stop stop-opacity="1" stop-color="rgb(36.273193%, 6.163025%, 47.225952%)" offset="0.523438"/><stop stop-opacity="1" stop-color="rgb(36.468506%, 6.410217%, 47.418213%)" offset="0.53125"/><stop stop-opacity="1" stop-color="rgb(36.663818%, 6.65741%, 47.612%)" offset="0.539063"/><stop stop-opacity="1" stop-color="rgb(36.859131%, 6.903076%, 47.80426%)" offset="0.546875"/><stop stop-opacity="1" stop-color="rgb(37.052917%, 7.150269%, 47.998047%)" offset="0.554687"/><stop stop-opacity="1" stop-color="rgb(37.24823%, 7.395935%, 48.190308%)" offset="0.5625"/><stop stop-opacity="1" stop-color="rgb(37.443542%, 7.643127%, 48.384094%)" offset="0.570312"/><stop stop-opacity="1" stop-color="rgb(37.638855%, 7.89032%, 48.576355%)" offset="0.578125"/><stop stop-opacity="1" stop-color="rgb(37.832642%, 8.135986%, 48.770142%)" offset="0.585937"/><stop stop-opacity="1" stop-color="rgb(38.027954%, 8.383179%, 48.962402%)" offset="0.59375"/><stop stop-opacity="1" stop-color="rgb(38.223267%, 8.628845%, 49.156189%)" offset="0.597183"/><stop stop-opacity="1" stop-color="rgb(38.320923%, 8.752441%, 49.252319%)" offset="0.601562"/><stop stop-opacity="1" stop-color="rgb(38.418579%, 8.876038%, 49.34845%)" offset="0.609375"/><stop stop-opacity="1" stop-color="rgb(38.613892%, 9.12323%, 49.542236%)" offset="0.617188"/><stop stop-opacity="1" stop-color="rgb(38.807678%, 9.368896%, 49.736023%)" offset="0.625"/><stop stop-opacity="1" stop-color="rgb(39.002991%, 9.616089%, 49.928284%)" offset="0.632812"/><stop stop-opacity="1" stop-color="rgb(39.198303%, 9.861755%, 50.12207%)" offset="0.640625"/><stop stop-opacity="1" stop-color="rgb(39.393616%, 10.108948%, 50.314331%)" offset="0.648438"/><stop stop-opacity="1" stop-color="rgb(39.587402%, 10.35614%, 50.508118%)" offset="0.65625"/><stop stop-opacity="1" stop-color="rgb(39.782715%, 10.601807%, 50.700378%)" offset="0.664063"/><stop stop-opacity="1" stop-color="rgb(39.978027%, 10.848999%, 50.894165%)" offset="0.671875"/><stop stop-opacity="1" stop-color="rgb(40.17334%, 11.094666%, 51.086426%)" offset="0.679688"/><stop stop-opacity="1" stop-color="rgb(40.368652%, 11.341858%, 51.280212%)" offset="0.6875"/><stop stop-opacity="1" stop-color="rgb(40.562439%, 11.58905%, 51.472473%)" offset="0.695312"/><stop stop-opacity="1" stop-color="rgb(40.757751%, 11.834717%, 51.66626%)" offset="0.703125"/><stop stop-opacity="1" stop-color="rgb(40.953064%, 12.081909%, 51.858521%)" offset="0.710937"/><stop stop-opacity="1" stop-color="rgb(41.148376%, 12.327576%, 52.052307%)" offset="0.71875"/><stop stop-opacity="1" stop-color="rgb(41.342163%, 12.574768%, 52.244568%)" offset="0.726562"/><stop stop-opacity="1" stop-color="rgb(41.648865%, 12.945557%, 52.429199%)" offset="0.730469"/><stop stop-opacity="1" stop-color="rgb(41.859436%, 13.192749%, 52.5177%)" offset="0.734375"/><stop stop-opacity="1" stop-color="rgb(42.559814%, 13.981628%, 52.566528%)" offset="0.738281"/><stop stop-opacity="1" stop-color="rgb(43.260193%, 14.772034%, 52.616882%)" offset="0.742188"/><stop stop-opacity="1" stop-color="rgb(43.960571%, 15.562439%, 52.66571%)" offset="0.746094"/><stop stop-opacity="1" stop-color="rgb(44.662476%, 16.352844%, 52.716064%)" offset="0.75"/><stop stop-opacity="1" stop-color="rgb(45.362854%, 17.14325%, 52.764893%)" offset="0.753906"/><stop stop-opacity="1" stop-color="rgb(46.063232%, 17.933655%, 52.815247%)" offset="0.757812"/><stop stop-opacity="1" stop-color="rgb(46.763611%, 18.72406%, 52.865601%)" offset="0.761719"/><stop stop-opacity="1" stop-color="rgb(47.465515%, 19.514465%, 52.915955%)" offset="0.765625"/><stop stop-opacity="1" stop-color="rgb(48.165894%, 20.303345%, 52.964783%)" offset="0.769531"/><stop stop-opacity="1" stop-color="rgb(48.866272%, 21.09375%, 53.015137%)" offset="0.773438"/><stop stop-opacity="1" stop-color="rgb(49.56665%, 21.884155%, 53.063965%)" offset="0.777344"/><stop stop-opacity="1" stop-color="rgb(50.268555%, 22.674561%, 53.114319%)" offset="0.78125"/><stop stop-opacity="1" stop-color="rgb(50.968933%, 23.464966%, 53.163147%)" offset="0.785156"/><stop stop-opacity="1" stop-color="rgb(51.669312%, 24.255371%, 53.213501%)" offset="0.789063"/><stop stop-opacity="1" stop-color="rgb(52.36969%, 25.045776%, 53.262329%)" offset="0.792969"/><stop stop-opacity="1" stop-color="rgb(53.071594%, 25.836182%, 53.312683%)" offset="0.796875"/><stop stop-opacity="1" stop-color="rgb(53.771973%, 26.625061%, 53.361511%)" offset="0.800781"/><stop stop-opacity="1" stop-color="rgb(54.472351%, 27.415466%, 53.411865%)" offset="0.804688"/><stop stop-opacity="1" stop-color="rgb(55.172729%, 28.205872%, 53.460693%)" offset="0.808594"/><stop stop-opacity="1" stop-color="rgb(55.874634%, 28.996277%, 53.511047%)" offset="0.8125"/><stop stop-opacity="1" stop-color="rgb(56.575012%, 29.786682%, 53.561401%)" offset="0.816406"/><stop stop-opacity="1" stop-color="rgb(57.275391%, 30.577087%, 53.611755%)" offset="0.820313"/><stop stop-opacity="1" stop-color="rgb(57.975769%, 31.365967%, 53.660583%)" offset="0.824219"/><stop stop-opacity="1" stop-color="rgb(58.677673%, 32.156372%, 53.710938%)" offset="0.828125"/><stop stop-opacity="1" stop-color="rgb(59.378052%, 32.946777%, 53.759766%)" offset="0.832031"/><stop stop-opacity="1" stop-color="rgb(60.07843%, 33.737183%, 53.81012%)" offset="0.835938"/><stop stop-opacity="1" stop-color="rgb(60.778809%, 34.527588%, 53.858948%)" offset="0.839844"/><stop stop-opacity="1" stop-color="rgb(61.479187%, 35.317993%, 53.909302%)" offset="0.84375"/><stop stop-opacity="1" stop-color="rgb(62.179565%, 36.108398%, 53.95813%)" offset="0.847656"/><stop stop-opacity="1" stop-color="rgb(62.88147%, 36.898804%, 54.008484%)" offset="0.851562"/><stop stop-opacity="1" stop-color="rgb(63.581848%, 37.687683%, 54.057312%)" offset="0.855469"/><stop stop-opacity="1" stop-color="rgb(64.282227%, 38.478088%, 54.107666%)" offset="0.859375"/><stop stop-opacity="1" stop-color="rgb(64.982605%, 39.268494%, 54.156494%)" offset="0.863281"/><stop stop-opacity="1" stop-color="rgb(65.684509%, 40.058899%, 54.206848%)" offset="0.867187"/><stop stop-opacity="1" stop-color="rgb(66.384888%, 40.849304%, 54.257202%)" offset="0.871094"/><stop stop-opacity="1" stop-color="rgb(67.085266%, 41.639709%, 54.307556%)" offset="0.875"/><stop stop-opacity="1" stop-color="rgb(67.785645%, 42.430115%, 54.356384%)" offset="0.878906"/><stop stop-opacity="1" stop-color="rgb(68.487549%, 43.22052%, 54.406738%)" offset="0.882812"/><stop stop-opacity="1" stop-color="rgb(69.143677%, 43.959045%, 54.452515%)" offset="0.886719"/><stop stop-opacity="1" stop-color="rgb(69.799805%, 44.699097%, 54.499817%)" offset="0.890625"/><stop stop-opacity="1" stop-color="rgb(69.799805%, 44.699097%, 54.499817%)" offset="0.90625"/><stop stop-opacity="1" stop-color="rgb(69.799805%, 44.699097%, 54.499817%)" offset="0.9375"/><stop stop-opacity="1" stop-color="rgb(69.799805%, 44.699097%, 54.499817%)" offset="1"/></linearGradient><clipPath id="b32f253944"><path d="M 0.484375 13 L 3 13 L 3 16 L 0.484375 16 Z M 0.484375 13 " clip-rule="nonzero"/></clipPath><clipPath id="71cc4f7488"><path d="M 0.484375 13 L 3 13 L 3 16 L 0.484375 16 Z M 0.484375 13 " clip-rule="nonzero"/></clipPath></defs><g clip-path="url(#c395840451)"><g clip-path="url(#78a7d958c6)"><path fill="url(#a790f1fede)" d="M 4.488281 3.625 L 4.488281 25.351562 L 25.539062 25.351562 L 25.539062 3.625 Z M 4.488281 3.625 " fill-rule="nonzero"/></g></g><g clip-path="url(#b32f253944)"><g fill="#f5e8da" fill-opacity="0.4"><g transform="translate(0.60336, 15.311556)"><g><path d="M 2.253906 0 L 1.445312 -2.191406 L 0.835938 -2.191406 L 0.0351562 0 L 0.554688 0 L 0.726562 -0.503906 L 1.558594 -0.503906 L 1.730469 0 Z M 0.875 -0.9375 L 1.140625 -1.699219 L 1.410156 -0.9375 Z M 0.875 -0.9375 "/></g></g></g></g><g fill="#f5e8da" fill-opacity="0.4"><g transform="translate(3.309826, 15.311556)"><g><path d="M 1.640625 -1.242188 L 1.640625 -0.519531 C 1.53125 -0.460938 1.40625 -0.433594 1.277344 -0.433594 C 0.914062 -0.433594 0.628906 -0.625 0.628906 -1.09375 L 0.628906 -1.101562 C 0.628906 -1.578125 0.914062 -1.761719 1.273438 -1.761719 C 1.507812 -1.761719 1.722656 -1.695312 1.878906 -1.585938 L 2.074219 -2.023438 C 1.796875 -2.167969 1.550781 -2.230469 1.261719 -2.230469 C 0.570312 -2.230469 0.105469 -1.777344 0.105469 -1.101562 L 0.105469 -1.09375 C 0.105469 -0.425781 0.570312 0.0351562 1.261719 0.0351562 C 1.539062 0.0351562 1.898438 -0.0390625 2.117188 -0.179688 L 2.117188 -1.242188 Z M 1.640625 -1.242188 "/></g></g></g><g fill="#f5e8da" fill-opacity="0.4"><g transform="translate(5.997365, 15.311556)"><g><path d="M 1.636719 0 L 1.636719 -0.46875 L 0.644531 -0.46875 L 0.644531 -0.898438 L 1.546875 -0.898438 L 1.546875 -1.335938 L 0.644531 -1.335938 L 0.644531 -1.722656 L 1.632812 -1.722656 L 1.632812 -2.191406 L 0.136719 -2.191406 L 0.136719 0 Z M 1.636719 0 "/></g></g></g><g fill="#f5e8da" fill-opacity="0.4"><g transform="translate(8.165781, 15.311556)"><g><path d="M 1.476562 -0.570312 L 0.820312 -2.191406 L 0.136719 -2.191406 L 0.136719 0 L 0.644531 0 L 0.644531 -1.632812 L 1.300781 0 L 1.980469 0 L 1.980469 -2.191406 L 1.476562 -2.191406 Z M 1.476562 -0.570312 "/></g></g></g><g fill="#f5e8da" fill-opacity="0.4"><g transform="translate(10.707317, 15.311556)"><g><path d="M 1.265625 0.0390625 C 1.570312 0.0390625 1.796875 -0.046875 1.992188 -0.164062 L 1.796875 -0.578125 C 1.613281 -0.46875 1.4375 -0.433594 1.265625 -0.433594 C 0.898438 -0.433594 0.621094 -0.699219 0.621094 -1.09375 L 0.621094 -1.097656 C 0.621094 -1.515625 0.898438 -1.761719 1.265625 -1.761719 C 1.4375 -1.761719 1.613281 -1.722656 1.796875 -1.613281 L 1.992188 -2.027344 C 1.792969 -2.148438 1.5625 -2.230469 1.265625 -2.230469 C 0.566406 -2.230469 0.105469 -1.777344 0.105469 -1.097656 L 0.105469 -1.09375 C 0.105469 -0.414062 0.570312 0.0390625 1.265625 0.0390625 Z M 1.265625 0.0390625 "/></g></g></g><g fill="#f5e8da" fill-opacity="0.4"><g transform="translate(13.221816, 15.311556)"><g><path d="M 1.636719 0 L 1.636719 -0.46875 L 0.644531 -0.46875 L 0.644531 -0.898438 L 1.546875 -0.898438 L 1.546875 -1.335938 L 0.644531 -1.335938 L 0.644531 -1.722656 L 1.632812 -1.722656 L 1.632812 -2.191406 L 0.136719 -2.191406 L 0.136719 0 Z M 1.636719 0 "/></g></g></g><g fill="#f5e8da" fill-opacity="0.4"><g transform="translate(15.390233, 15.311556)"><g/></g></g><g fill="#f5e8da" fill-opacity="0.4"><g transform="translate(16.25273, 15.311556)"><g><path d="M 1.636719 0 L 1.636719 -0.46875 L 0.644531 -0.46875 L 0.644531 -0.898438 L 1.546875 -0.898438 L 1.546875 -1.335938 L 0.644531 -1.335938 L 0.644531 -1.722656 L 1.632812 -1.722656 L 1.632812 -2.191406 L 0.136719 -2.191406 L 0.136719 0 Z M 1.636719 0 "/></g></g></g><g fill="#f5e8da" fill-opacity="0.4"><g transform="translate(18.421147, 15.311556)"><g><path d="M 1.265625 0.0390625 C 1.570312 0.0390625 1.796875 -0.046875 1.992188 -0.164062 L 1.796875 -0.578125 C 1.613281 -0.46875 1.4375 -0.433594 1.265625 -0.433594 C 0.898438 -0.433594 0.621094 -0.699219 0.621094 -1.09375 L 0.621094 -1.097656 C 0.621094 -1.515625 0.898438 -1.761719 1.265625 -1.761719 C 1.4375 -1.761719 1.613281 -1.722656 1.796875 -1.613281 L 1.992188 -2.027344 C 1.792969 -2.148438 1.5625 -2.230469 1.265625 -2.230469 C 0.566406 -2.230469 0.105469 -1.777344 0.105469 -1.097656 L 0.105469 -1.09375 C 0.105469 -0.414062 0.570312 0.0390625 1.265625 0.0390625 Z M 1.265625 0.0390625 "/></g></g></g><g fill="#f5e8da" fill-opacity="0.4"><g transform="translate(20.935646, 15.311556)"><g><path d="M 1.613281 0 L 1.613281 -0.46875 L 0.644531 -0.46875 L 0.644531 -2.191406 L 0.136719 -2.191406 L 0.136719 0 Z M 1.613281 0 "/></g></g></g><g fill="#f5e8da" fill-opacity="0.4"><g transform="translate(23.025653, 15.311556)"><g><path d="M 2.253906 0 L 1.445312 -2.191406 L 0.835938 -2.191406 L 0.0351562 0 L 0.554688 0 L 0.726562 -0.503906 L 1.558594 -0.503906 L 1.730469 0 Z M 0.875 -0.9375 L 1.140625 -1.699219 L 1.410156 -0.9375 Z M 0.875 -0.9375 "/></g></g></g><g fill="#f5e8da" fill-opacity="0.4"><g transform="translate(25.732119, 15.311556)"><g><path d="M 0.644531 0 L 0.644531 -2.191406 L 0.136719 -2.191406 L 0.136719 0 Z M 0.644531 0 "/></g></g></g><g fill="#f5e8da" fill-opacity="0.4"><g transform="translate(26.935289, 15.311556)"><g><path d="M 1.535156 -0.898438 C 1.816406 -1.003906 1.9375 -1.246094 1.9375 -1.527344 L 1.9375 -1.53125 C 1.9375 -1.882812 1.734375 -2.191406 1.15625 -2.191406 L 0.136719 -2.191406 L 0.136719 0 L 0.644531 0 L 0.644531 -0.835938 L 1.046875 -0.835938 L 1.511719 0 L 2.042969 0 Z M 1.128906 -1.722656 C 1.308594 -1.722656 1.425781 -1.65625 1.425781 -1.472656 L 1.425781 -1.46875 C 1.425781 -1.277344 1.308594 -1.207031 1.128906 -1.207031 L 0.644531 -1.207031 L 0.644531 -1.722656 Z M 1.128906 -1.722656 "/></g></g></g><g clip-path="url(#71cc4f7488)"><g fill="#f5e8da" fill-opacity="1"><g transform="translate(0.48387, 15.192067)"><g><path d="M 2.253906 0 L 1.445312 -2.191406 L 0.835938 -2.191406 L 0.0351562 0 L 0.554688 0 L 0.726562 -0.503906 L 1.558594 -0.503906 L 1.730469 0 Z M 0.875 -0.9375 L 1.140625 -1.699219 L 1.410156 -0.9375 Z M 0.875 -0.9375 "/></g></g></g></g><g fill="#f5e8da" fill-opacity="1"><g transform="translate(3.190336, 15.192067)"><g><path d="M 1.640625 -1.242188 L 1.640625 -0.519531 C 1.53125 -0.460938 1.40625 -0.433594 1.277344 -0.433594 C 0.914062 -0.433594 0.628906 -0.625 0.628906 -1.09375 L 0.628906 -1.101562 C 0.628906 -1.578125 0.914062 -1.761719 1.273438 -1.761719 C 1.507812 -1.761719 1.722656 -1.695312 1.878906 -1.585938 L 2.074219 -2.023438 C 1.796875 -2.167969 1.550781 -2.230469 1.261719 -2.230469 C 0.570312 -2.230469 0.105469 -1.777344 0.105469 -1.101562 L 0.105469 -1.09375 C 0.105469 -0.425781 0.570312 0.0351562 1.261719 0.0351562 C 1.539062 0.0351562 1.898438 -0.0390625 2.117188 -0.179688 L 2.117188 -1.242188 Z M 1.640625 -1.242188 "/></g></g></g><g fill="#f5e8da" fill-opacity="1"><g transform="translate(5.877875, 15.192067)"><g><path d="M 1.636719 0 L 1.636719 -0.46875 L 0.644531 -0.46875 L 0.644531 -0.898438 L 1.546875 -0.898438 L 1.546875 -1.335938 L 0.644531 -1.335938 L 0.644531 -1.722656 L 1.632812 -1.722656 L 1.632812 -2.191406 L 0.136719 -2.191406 L 0.136719 0 Z M 1.636719 0 "/></g></g></g><g fill="#f5e8da" fill-opacity="1"><g transform="translate(8.046292, 15.192067)"><g><path d="M 1.476562 -0.570312 L 0.820312 -2.191406 L 0.136719 -2.191406 L 0.136719 0 L 0.644531 0 L 0.644531 -1.632812 L 1.300781 0 L 1.980469 0 L 1.980469 -2.191406 L 1.476562 -2.191406 Z M 1.476562 -0.570312 "/></g></g></g><g fill="#f5e8da" fill-opacity="1"><g transform="translate(10.587827, 15.192067)"><g><path d="M 1.265625 0.0390625 C 1.570312 0.0390625 1.796875 -0.046875 1.992188 -0.164062 L 1.796875 -0.578125 C 1.613281 -0.46875 1.4375 -0.433594 1.265625 -0.433594 C 0.898438 -0.433594 0.621094 -0.699219 0.621094 -1.09375 L 0.621094 -1.097656 C 0.621094 -1.515625 0.898438 -1.761719 1.265625 -1.761719 C 1.4375 -1.761719 1.613281 -1.722656 1.796875 -1.613281 L 1.992188 -2.027344 C 1.792969 -2.148438 1.5625 -2.230469 1.265625 -2.230469 C 0.566406 -2.230469 0.105469 -1.777344 0.105469 -1.097656 L 0.105469 -1.09375 C 0.105469 -0.414062 0.570312 0.0390625 1.265625 0.0390625 Z M 1.265625 0.0390625 "/></g></g></g><g fill="#f5e8da" fill-opacity="1"><g transform="translate(13.102326, 15.192067)"><g><path d="M 1.636719 0 L 1.636719 -0.46875 L 0.644531 -0.46875 L 0.644531 -0.898438 L 1.546875 -0.898438 L 1.546875 -1.335938 L 0.644531 -1.335938 L 0.644531 -1.722656 L 1.632812 -1.722656 L 1.632812 -2.191406 L 0.136719 -2.191406 L 0.136719 0 Z M 1.636719 0 "/></g></g></g><g fill="#f5e8da" fill-opacity="1"><g transform="translate(15.270743, 15.192067)"><g/></g></g><g fill="#f5e8da" fill-opacity="1"><g transform="translate(16.13324, 15.192067)"><g><path d="M 1.636719 0 L 1.636719 -0.46875 L 0.644531 -0.46875 L 0.644531 -0.898438 L 1.546875 -0.898438 L 1.546875 -1.335938 L 0.644531 -1.335938 L 0.644531 -1.722656 L 1.632812 -1.722656 L 1.632812 -2.191406 L 0.136719 -2.191406 L 0.136719 0 Z M 1.636719 0 "/></g></g></g><g fill="#f5e8da" fill-opacity="1"><g transform="translate(18.301657, 15.192067)"><g><path d="M 1.265625 0.0390625 C 1.570312 0.0390625 1.796875 -0.046875 1.992188 -0.164062 L 1.796875 -0.578125 C 1.613281 -0.46875 1.4375 -0.433594 1.265625 -0.433594 C 0.898438 -0.433594 0.621094 -0.699219 0.621094 -1.09375 L 0.621094 -1.097656 C 0.621094 -1.515625 0.898438 -1.761719 1.265625 -1.761719 C 1.4375 -1.761719 1.613281 -1.722656 1.796875 -1.613281 L 1.992188 -2.027344 C 1.792969 -2.148438 1.5625 -2.230469 1.265625 -2.230469 C 0.566406 -2.230469 0.105469 -1.777344 0.105469 -1.097656 L 0.105469 -1.09375 C 0.105469 -0.414062 0.570312 0.0390625 1.265625 0.0390625 Z M 1.265625 0.0390625 "/></g></g></g><g fill="#f5e8da" fill-opacity="1"><g transform="translate(20.816156, 15.192067)"><g><path d="M 1.613281 0 L 1.613281 -0.46875 L 0.644531 -0.46875 L 0.644531 -2.191406 L 0.136719 -2.191406 L 0.136719 0 Z M 1.613281 0 "/></g></g></g><g fill="#f5e8da" fill-opacity="1"><g transform="translate(22.906163, 15.192067)"><g><path d="M 2.253906 0 L 1.445312 -2.191406 L 0.835938 -2.191406 L 0.0351562 0 L 0.554688 0 L 0.726562 -0.503906 L 1.558594 -0.503906 L 1.730469 0 Z M 0.875 -0.9375 L 1.140625 -1.699219 L 1.410156 -0.9375 Z M 0.875 -0.9375 "/></g></g></g><g fill="#f5e8da" fill-opacity="1"><g transform="translate(25.612629, 15.192067)"><g><path d="M 0.644531 0 L 0.644531 -2.191406 L 0.136719 -2.191406 L 0.136719 0 Z M 0.644531 0 "/></g></g></g><g fill="#f5e8da" fill-opacity="1"><g transform="translate(26.8158, 15.192067)"><g><path d="M 1.535156 -0.898438 C 1.816406 -1.003906 1.9375 -1.246094 1.9375 -1.527344 L 1.9375 -1.53125 C 1.9375 -1.882812 1.734375 -2.191406 1.15625 -2.191406 L 0.136719 -2.191406 L 0.136719 0 L 0.644531 0 L 0.644531 -0.835938 L 1.046875 -0.835938 L 1.511719 0 L 2.042969 0 Z M 1.128906 -1.722656 C 1.308594 -1.722656 1.425781 -1.65625 1.425781 -1.472656 L 1.425781 -1.46875 C 1.425781 -1.277344 1.308594 -1.207031 1.128906 -1.207031 L 0.644531 -1.207031 L 0.644531 -1.722656 Z M 1.128906 -1.722656 "/></g></g></g></svg>