<svg xmlns="http://www.w3.org/2000/svg" xmlns:xlink="http://www.w3.org/1999/xlink" width="144" zoomAndPan="magnify" viewBox="0 0 108 44.249999" height="59" preserveAspectRatio="xMidYMid meet" version="1.0"><defs><g/><clipPath id="97341e3b80"><path d="M 47.523438 15.035156 L 60.800781 15.035156 L 60.800781 28.3125 L 47.523438 28.3125 Z M 47.523438 15.035156 " clip-rule="nonzero"/></clipPath><clipPath id="3d37b31b40"><path d="M 50.125 23.339844 C 50.125 23.339844 52.34375 18.699219 55.566406 15.203125 C 55.15625 15.117188 54.742188 15.070312 54.320312 15.058594 C 53.902344 15.046875 53.484375 15.074219 53.070312 15.140625 C 52.65625 15.207031 52.25 15.308594 51.859375 15.449219 C 51.464844 15.589844 51.085938 15.761719 50.726562 15.96875 C 50.367188 16.179688 50.03125 16.417969 49.71875 16.6875 C 49.40625 16.957031 49.121094 17.253906 48.867188 17.574219 C 48.613281 17.894531 48.394531 18.238281 48.207031 18.601562 C 48.019531 18.960938 47.867188 19.335938 47.753906 19.726562 C 47.644531 20.117188 47.570312 20.511719 47.535156 20.914062 C 47.5 21.316406 47.503906 21.71875 47.546875 22.121094 C 47.589844 22.523438 47.675781 22.917969 47.796875 23.304688 C 47.917969 23.691406 48.078125 24.066406 48.273438 24.421875 C 48.46875 24.78125 48.695312 25.117188 48.957031 25.433594 C 49.21875 25.75 49.507812 26.039062 49.828125 26.304688 C 50.148438 26.566406 50.488281 26.796875 50.851562 27 C 51.21875 27.199219 51.597656 27.367188 51.996094 27.496094 L 51.882812 28.273438 L 52.011719 28.289062 L 52.351562 27.460938 C 52.886719 26.191406 53.785156 24.238281 54.769531 22.847656 C 54.769531 22.84375 52.136719 22.773438 50.125 23.339844 Z M 59.003906 17.078125 C 57.671875 17.984375 56.027344 19.359375 54.699219 21.261719 C 54.699219 21.261719 58.316406 20.804688 59.78125 20.734375 C 59.78125 20.734375 55.632812 24.171875 52.683594 27.683594 C 53.375 27.839844 54.078125 27.882812 54.785156 27.816406 C 55.492188 27.753906 56.171875 27.585938 56.824219 27.308594 C 57.476562 27.035156 58.066406 26.667969 58.597656 26.210938 C 59.125 25.753906 59.566406 25.230469 59.921875 24.632812 C 60.273438 24.039062 60.523438 23.40625 60.667969 22.738281 C 60.808594 22.066406 60.839844 21.390625 60.757812 20.710938 C 60.671875 20.03125 60.484375 19.378906 60.183594 18.757812 C 59.882812 18.136719 59.488281 17.574219 59.003906 17.078125 Z M 59.003906 17.078125 " clip-rule="nonzero"/></clipPath><linearGradient x1="-20.237755" gradientTransform="matrix(0.0623855, 0, 0, 0.0600848, 47.524038, 15.059583)" y1="30.872875" x2="229.95602" gradientUnits="userSpaceOnUse" y2="193.823266" id="427bf75676"><stop stop-opacity="1" stop-color="rgb(69.799805%, 44.699097%, 54.499817%)" offset="0"/><stop stop-opacity="1" stop-color="rgb(69.799805%, 44.699097%, 54.499817%)" offset="0.125"/><stop stop-opacity="1" stop-color="rgb(69.799805%, 44.699097%, 54.499817%)" offset="0.140625"/><stop stop-opacity="1" stop-color="rgb(69.541931%, 44.400024%, 54.418945%)" offset="0.144531"/><stop stop-opacity="1" stop-color="rgb(69.285583%, 44.100952%, 54.338074%)" offset="0.148438"/><stop stop-opacity="1" stop-color="rgb(68.443298%, 43.121338%, 54.072571%)" offset="0.152344"/><stop stop-opacity="1" stop-color="rgb(67.601013%, 42.141724%, 53.807068%)" offset="0.15625"/><stop stop-opacity="1" stop-color="rgb(66.758728%, 41.160583%, 53.541565%)" offset="0.160156"/><stop stop-opacity="1" stop-color="rgb(65.917969%, 40.180969%, 53.276062%)" offset="0.164063"/><stop stop-opacity="1" stop-color="rgb(65.075684%, 39.199829%, 53.010559%)" offset="0.167969"/><stop stop-opacity="1" stop-color="rgb(64.233398%, 38.220215%, 52.745056%)" offset="0.171875"/><stop stop-opacity="1" stop-color="rgb(63.391113%, 37.240601%, 52.479553%)" offset="0.175781"/><stop stop-opacity="1" stop-color="rgb(62.550354%, 36.260986%, 52.215576%)" offset="0.179688"/><stop stop-opacity="1" stop-color="rgb(61.708069%, 35.279846%, 51.950073%)" offset="0.183594"/><stop stop-opacity="1" stop-color="rgb(60.865784%, 34.300232%, 51.68457%)" offset="0.1875"/><stop stop-opacity="1" stop-color="rgb(60.023499%, 33.319092%, 51.419067%)" offset="0.191406"/><stop stop-opacity="1" stop-color="rgb(59.182739%, 32.339478%, 51.153564%)" offset="0.195313"/><stop stop-opacity="1" stop-color="rgb(58.340454%, 31.359863%, 50.888062%)" offset="0.199219"/><stop stop-opacity="1" stop-color="rgb(57.498169%, 30.380249%, 50.622559%)" offset="0.203125"/><stop stop-opacity="1" stop-color="rgb(56.655884%, 29.399109%, 50.357056%)" offset="0.207031"/><stop stop-opacity="1" stop-color="rgb(55.813599%, 28.419495%, 50.093079%)" offset="0.210938"/><stop stop-opacity="1" stop-color="rgb(54.971313%, 27.43988%, 49.827576%)" offset="0.214844"/><stop stop-opacity="1" stop-color="rgb(54.130554%, 26.460266%, 49.562073%)" offset="0.21875"/><stop stop-opacity="1" stop-color="rgb(53.288269%, 25.479126%, 49.29657%)" offset="0.222656"/><stop stop-opacity="1" stop-color="rgb(52.445984%, 24.499512%, 49.031067%)" offset="0.226562"/><stop stop-opacity="1" stop-color="rgb(51.603699%, 23.518372%, 48.765564%)" offset="0.230469"/><stop stop-opacity="1" stop-color="rgb(50.762939%, 22.538757%, 48.500061%)" offset="0.234375"/><stop stop-opacity="1" stop-color="rgb(49.920654%, 21.559143%, 48.234558%)" offset="0.238281"/><stop stop-opacity="1" stop-color="rgb(49.078369%, 20.579529%, 47.970581%)" offset="0.242188"/><stop stop-opacity="1" stop-color="rgb(48.236084%, 19.598389%, 47.705078%)" offset="0.246094"/><stop stop-opacity="1" stop-color="rgb(47.395325%, 18.618774%, 47.439575%)" offset="0.25"/><stop stop-opacity="1" stop-color="rgb(46.55304%, 17.63916%, 47.174072%)" offset="0.253906"/><stop stop-opacity="1" stop-color="rgb(45.710754%, 16.659546%, 46.908569%)" offset="0.257812"/><stop stop-opacity="1" stop-color="rgb(44.868469%, 15.678406%, 46.643066%)" offset="0.261719"/><stop stop-opacity="1" stop-color="rgb(44.02771%, 14.698792%, 46.377563%)" offset="0.265625"/><stop stop-opacity="1" stop-color="rgb(43.185425%, 13.717651%, 46.112061%)" offset="0.269531"/><stop stop-opacity="1" stop-color="rgb(42.34314%, 12.738037%, 45.848083%)" offset="0.273438"/><stop stop-opacity="1" stop-color="rgb(41.500854%, 11.758423%, 45.582581%)" offset="0.277344"/><stop stop-opacity="1" stop-color="rgb(40.658569%, 10.778809%, 45.317078%)" offset="0.28125"/><stop stop-opacity="1" stop-color="rgb(39.816284%, 9.797668%, 45.051575%)" offset="0.285156"/><stop stop-opacity="1" stop-color="rgb(38.975525%, 8.818054%, 44.786072%)" offset="0.289063"/><stop stop-opacity="1" stop-color="rgb(38.13324%, 7.836914%, 44.520569%)" offset="0.292969"/><stop stop-opacity="1" stop-color="rgb(37.290955%, 6.8573%, 44.256592%)" offset="0.296875"/><stop stop-opacity="1" stop-color="rgb(36.448669%, 5.877686%, 43.991089%)" offset="0.300781"/><stop stop-opacity="1" stop-color="rgb(35.60791%, 4.898071%, 43.725586%)" offset="0.304688"/><stop stop-opacity="1" stop-color="rgb(34.765625%, 3.916931%, 43.460083%)" offset="0.308594"/><stop stop-opacity="1" stop-color="rgb(33.92334%, 2.937317%, 43.19458%)" offset="0.3125"/><stop stop-opacity="1" stop-color="rgb(33.081055%, 1.957703%, 42.929077%)" offset="0.316406"/><stop stop-opacity="1" stop-color="rgb(32.240295%, 0.978088%, 42.663574%)" offset="0.320312"/><stop stop-opacity="1" stop-color="rgb(31.867981%, 0.549316%, 42.579651%)" offset="0.324219"/><stop stop-opacity="1" stop-color="rgb(31.497192%, 0.12207%, 42.495728%)" offset="0.328125"/><stop stop-opacity="1" stop-color="rgb(31.594849%, 0.245667%, 42.591858%)" offset="0.335938"/><stop stop-opacity="1" stop-color="rgb(31.788635%, 0.492859%, 42.785645%)" offset="0.34375"/><stop stop-opacity="1" stop-color="rgb(31.983948%, 0.738525%, 42.977905%)" offset="0.351562"/><stop stop-opacity="1" stop-color="rgb(32.17926%, 0.985718%, 43.171692%)" offset="0.359375"/><stop stop-opacity="1" stop-color="rgb(32.374573%, 1.231384%, 43.363953%)" offset="0.367188"/><stop stop-opacity="1" stop-color="rgb(32.568359%, 1.478577%, 43.557739%)" offset="0.375"/><stop stop-opacity="1" stop-color="rgb(32.763672%, 1.725769%, 43.75%)" offset="0.382813"/><stop stop-opacity="1" stop-color="rgb(32.958984%, 1.971436%, 43.943787%)" offset="0.390625"/><stop stop-opacity="1" stop-color="rgb(33.154297%, 2.218628%, 44.136047%)" offset="0.398438"/><stop stop-opacity="1" stop-color="rgb(33.349609%, 2.464294%, 44.329834%)" offset="0.402817"/><stop stop-opacity="1" stop-color="rgb(33.447266%, 2.587891%, 44.425964%)" offset="0.40625"/><stop stop-opacity="1" stop-color="rgb(33.543396%, 2.711487%, 44.522095%)" offset="0.414063"/><stop stop-opacity="1" stop-color="rgb(33.738708%, 2.958679%, 44.715881%)" offset="0.421875"/><stop stop-opacity="1" stop-color="rgb(33.934021%, 3.204346%, 44.908142%)" offset="0.429688"/><stop stop-opacity="1" stop-color="rgb(34.129333%, 3.451538%, 45.101929%)" offset="0.4375"/><stop stop-opacity="1" stop-color="rgb(34.32312%, 3.697205%, 45.294189%)" offset="0.445313"/><stop stop-opacity="1" stop-color="rgb(34.518433%, 3.944397%, 45.487976%)" offset="0.453125"/><stop stop-opacity="1" stop-color="rgb(34.713745%, 4.191589%, 45.681763%)" offset="0.460938"/><stop stop-opacity="1" stop-color="rgb(34.909058%, 4.437256%, 45.874023%)" offset="0.46875"/><stop stop-opacity="1" stop-color="rgb(35.10437%, 4.684448%, 46.06781%)" offset="0.476563"/><stop stop-opacity="1" stop-color="rgb(35.298157%, 4.930115%, 46.260071%)" offset="0.484375"/><stop stop-opacity="1" stop-color="rgb(35.493469%, 5.177307%, 46.453857%)" offset="0.492188"/><stop stop-opacity="1" stop-color="rgb(35.688782%, 5.4245%, 46.646118%)" offset="0.5"/><stop stop-opacity="1" stop-color="rgb(35.884094%, 5.670166%, 46.839905%)" offset="0.507812"/><stop stop-opacity="1" stop-color="rgb(36.077881%, 5.917358%, 47.032166%)" offset="0.515625"/><stop stop-opacity="1" stop-color="rgb(36.273193%, 6.163025%, 47.225952%)" offset="0.523438"/><stop stop-opacity="1" stop-color="rgb(36.468506%, 6.410217%, 47.418213%)" offset="0.53125"/><stop stop-opacity="1" stop-color="rgb(36.663818%, 6.65741%, 47.612%)" offset="0.539063"/><stop stop-opacity="1" stop-color="rgb(36.859131%, 6.903076%, 47.80426%)" offset="0.546875"/><stop stop-opacity="1" stop-color="rgb(37.052917%, 7.150269%, 47.998047%)" offset="0.554688"/><stop stop-opacity="1" stop-color="rgb(37.24823%, 7.395935%, 48.190308%)" offset="0.5625"/><stop stop-opacity="1" stop-color="rgb(37.443542%, 7.643127%, 48.384094%)" offset="0.570312"/><stop stop-opacity="1" stop-color="rgb(37.638855%, 7.89032%, 48.576355%)" offset="0.578125"/><stop stop-opacity="1" stop-color="rgb(37.832642%, 8.135986%, 48.770142%)" offset="0.585938"/><stop stop-opacity="1" stop-color="rgb(38.027954%, 8.383179%, 48.962402%)" offset="0.59375"/><stop stop-opacity="1" stop-color="rgb(38.223267%, 8.628845%, 49.156189%)" offset="0.597183"/><stop stop-opacity="1" stop-color="rgb(38.320923%, 8.752441%, 49.252319%)" offset="0.601562"/><stop stop-opacity="1" stop-color="rgb(38.418579%, 8.876038%, 49.34845%)" offset="0.609375"/><stop stop-opacity="1" stop-color="rgb(38.613892%, 9.12323%, 49.542236%)" offset="0.617188"/><stop stop-opacity="1" stop-color="rgb(38.807678%, 9.368896%, 49.736023%)" offset="0.625"/><stop stop-opacity="1" stop-color="rgb(39.002991%, 9.616089%, 49.928284%)" offset="0.632813"/><stop stop-opacity="1" stop-color="rgb(39.198303%, 9.861755%, 50.12207%)" offset="0.640625"/><stop stop-opacity="1" stop-color="rgb(39.393616%, 10.108948%, 50.314331%)" offset="0.648438"/><stop stop-opacity="1" stop-color="rgb(39.587402%, 10.35614%, 50.508118%)" offset="0.65625"/><stop stop-opacity="1" stop-color="rgb(39.782715%, 10.601807%, 50.700378%)" offset="0.664062"/><stop stop-opacity="1" stop-color="rgb(39.978027%, 10.848999%, 50.894165%)" offset="0.671875"/><stop stop-opacity="1" stop-color="rgb(40.17334%, 11.094666%, 51.086426%)" offset="0.679688"/><stop stop-opacity="1" stop-color="rgb(40.368652%, 11.341858%, 51.280212%)" offset="0.6875"/><stop stop-opacity="1" stop-color="rgb(40.562439%, 11.58905%, 51.472473%)" offset="0.695312"/><stop stop-opacity="1" stop-color="rgb(40.757751%, 11.834717%, 51.66626%)" offset="0.703125"/><stop stop-opacity="1" stop-color="rgb(40.953064%, 12.081909%, 51.858521%)" offset="0.710938"/><stop stop-opacity="1" stop-color="rgb(41.148376%, 12.327576%, 52.052307%)" offset="0.71875"/><stop stop-opacity="1" stop-color="rgb(41.342163%, 12.574768%, 52.244568%)" offset="0.726562"/><stop stop-opacity="1" stop-color="rgb(41.648865%, 12.945557%, 52.429199%)" offset="0.730469"/><stop stop-opacity="1" stop-color="rgb(41.859436%, 13.192749%, 52.5177%)" offset="0.734375"/><stop stop-opacity="1" stop-color="rgb(42.559814%, 13.981628%, 52.566528%)" offset="0.738281"/><stop stop-opacity="1" stop-color="rgb(43.260193%, 14.772034%, 52.616882%)" offset="0.742188"/><stop stop-opacity="1" stop-color="rgb(43.960571%, 15.562439%, 52.66571%)" offset="0.746094"/><stop stop-opacity="1" stop-color="rgb(44.662476%, 16.352844%, 52.716064%)" offset="0.75"/><stop stop-opacity="1" stop-color="rgb(45.362854%, 17.14325%, 52.764893%)" offset="0.753906"/><stop stop-opacity="1" stop-color="rgb(46.063232%, 17.933655%, 52.815247%)" offset="0.757812"/><stop stop-opacity="1" stop-color="rgb(46.763611%, 18.72406%, 52.865601%)" offset="0.761719"/><stop stop-opacity="1" stop-color="rgb(47.465515%, 19.514465%, 52.915955%)" offset="0.765625"/><stop stop-opacity="1" stop-color="rgb(48.165894%, 20.303345%, 52.964783%)" offset="0.769531"/><stop stop-opacity="1" stop-color="rgb(48.866272%, 21.09375%, 53.015137%)" offset="0.773438"/><stop stop-opacity="1" stop-color="rgb(49.56665%, 21.884155%, 53.063965%)" offset="0.777344"/><stop stop-opacity="1" stop-color="rgb(50.268555%, 22.674561%, 53.114319%)" offset="0.78125"/><stop stop-opacity="1" stop-color="rgb(50.968933%, 23.464966%, 53.163147%)" offset="0.785156"/><stop stop-opacity="1" stop-color="rgb(51.669312%, 24.255371%, 53.213501%)" offset="0.789062"/><stop stop-opacity="1" stop-color="rgb(52.36969%, 25.045776%, 53.262329%)" offset="0.792969"/><stop stop-opacity="1" stop-color="rgb(53.071594%, 25.836182%, 53.312683%)" offset="0.796875"/><stop stop-opacity="1" stop-color="rgb(53.771973%, 26.625061%, 53.361511%)" offset="0.800781"/><stop stop-opacity="1" stop-color="rgb(54.472351%, 27.415466%, 53.411865%)" offset="0.804688"/><stop stop-opacity="1" stop-color="rgb(55.172729%, 28.205872%, 53.460693%)" offset="0.808594"/><stop stop-opacity="1" stop-color="rgb(55.874634%, 28.996277%, 53.511047%)" offset="0.8125"/><stop stop-opacity="1" stop-color="rgb(56.575012%, 29.786682%, 53.561401%)" offset="0.816406"/><stop stop-opacity="1" stop-color="rgb(57.275391%, 30.577087%, 53.611755%)" offset="0.820312"/><stop stop-opacity="1" stop-color="rgb(57.975769%, 31.365967%, 53.660583%)" offset="0.824219"/><stop stop-opacity="1" stop-color="rgb(58.677673%, 32.156372%, 53.710938%)" offset="0.828125"/><stop stop-opacity="1" stop-color="rgb(59.378052%, 32.946777%, 53.759766%)" offset="0.832031"/><stop stop-opacity="1" stop-color="rgb(60.07843%, 33.737183%, 53.81012%)" offset="0.835938"/><stop stop-opacity="1" stop-color="rgb(60.778809%, 34.527588%, 53.858948%)" offset="0.839844"/><stop stop-opacity="1" stop-color="rgb(61.479187%, 35.317993%, 53.909302%)" offset="0.84375"/><stop stop-opacity="1" stop-color="rgb(62.179565%, 36.108398%, 53.95813%)" offset="0.847656"/><stop stop-opacity="1" stop-color="rgb(62.88147%, 36.898804%, 54.008484%)" offset="0.851562"/><stop stop-opacity="1" stop-color="rgb(63.581848%, 37.687683%, 54.057312%)" offset="0.855469"/><stop stop-opacity="1" stop-color="rgb(64.282227%, 38.478088%, 54.107666%)" offset="0.859375"/><stop stop-opacity="1" stop-color="rgb(64.982605%, 39.268494%, 54.156494%)" offset="0.863281"/><stop stop-opacity="1" stop-color="rgb(65.684509%, 40.058899%, 54.206848%)" offset="0.867188"/><stop stop-opacity="1" stop-color="rgb(66.384888%, 40.849304%, 54.257202%)" offset="0.871094"/><stop stop-opacity="1" stop-color="rgb(67.085266%, 41.639709%, 54.307556%)" offset="0.875"/><stop stop-opacity="1" stop-color="rgb(67.785645%, 42.430115%, 54.356384%)" offset="0.878906"/><stop stop-opacity="1" stop-color="rgb(68.487549%, 43.22052%, 54.406738%)" offset="0.882812"/><stop stop-opacity="1" stop-color="rgb(69.143677%, 43.959045%, 54.452515%)" offset="0.886719"/><stop stop-opacity="1" stop-color="rgb(69.799805%, 44.699097%, 54.499817%)" offset="0.890625"/><stop stop-opacity="1" stop-color="rgb(69.799805%, 44.699097%, 54.499817%)" offset="0.90625"/><stop stop-opacity="1" stop-color="rgb(69.799805%, 44.699097%, 54.499817%)" offset="0.9375"/><stop stop-opacity="1" stop-color="rgb(69.799805%, 44.699097%, 54.499817%)" offset="1"/></linearGradient></defs><g clip-path="url(#97341e3b80)"><g clip-path="url(#3d37b31b40)"><path fill="url(#427bf75676)" d="M 47.523438 15.046875 L 47.523438 28.289062 L 60.800781 28.289062 L 60.800781 15.046875 Z M 47.523438 15.046875 " fill-rule="nonzero"/></g></g><g fill="#f5e8da" fill-opacity="1"><g transform="translate(43.015531, 22.365423)"><g><path d="M 1.0625 0 L 1.015625 -0.1875 L 0.53125 -0.1875 L 0.46875 0 L 0.015625 0 L 0.515625 -1.375 L 1.03125 -1.375 L 1.53125 0 Z M 0.625 -0.5 L 0.921875 -0.5 L 0.78125 -0.984375 L 0.765625 -0.984375 Z M 0.625 -0.5 "/></g></g></g><g fill="#f5e8da" fill-opacity="1"><g transform="translate(44.883876, 22.365423)"><g><path d="M 0.84375 -1.40625 C 0.96875 -1.40625 1.082031 -1.382812 1.1875 -1.34375 C 1.300781 -1.300781 1.390625 -1.238281 1.453125 -1.15625 C 1.515625 -1.082031 1.546875 -0.988281 1.546875 -0.875 L 1.125 -0.875 C 1.125 -0.9375 1.097656 -0.984375 1.046875 -1.015625 C 0.992188 -1.046875 0.929688 -1.0625 0.859375 -1.0625 C 0.753906 -1.0625 0.675781 -1.035156 0.625 -0.984375 C 0.570312 -0.929688 0.546875 -0.851562 0.546875 -0.75 L 0.546875 -0.625 C 0.546875 -0.519531 0.570312 -0.441406 0.625 -0.390625 C 0.675781 -0.335938 0.753906 -0.3125 0.859375 -0.3125 C 0.929688 -0.3125 0.992188 -0.328125 1.046875 -0.359375 C 1.097656 -0.390625 1.125 -0.429688 1.125 -0.484375 L 0.8125 -0.484375 L 0.8125 -0.765625 L 1.546875 -0.765625 L 1.546875 0 L 1.3125 0 L 1.265625 -0.140625 C 1.140625 -0.0234375 0.976562 0.03125 0.78125 0.03125 C 0.550781 0.03125 0.378906 -0.0234375 0.265625 -0.140625 C 0.148438 -0.265625 0.09375 -0.445312 0.09375 -0.6875 C 0.09375 -0.914062 0.15625 -1.09375 0.28125 -1.21875 C 0.414062 -1.34375 0.601562 -1.40625 0.84375 -1.40625 Z M 0.84375 -1.40625 "/></g></g></g><g fill="#f5e8da" fill-opacity="1"><g transform="translate(46.862231, 22.365423)"><g><path d="M 0.140625 -1.375 L 1.34375 -1.375 L 1.34375 -1.046875 L 0.59375 -1.046875 L 0.59375 -0.859375 L 1.234375 -0.859375 L 1.234375 -0.546875 L 0.59375 -0.546875 L 0.59375 -0.328125 L 1.359375 -0.328125 L 1.359375 0 L 0.140625 0 Z M 0.140625 -1.375 "/></g></g></g><g fill="#f5e8da" fill-opacity="1"><g transform="translate(48.618564, 22.365423)"><g><path d="M 1.125 0 L 0.546875 -0.671875 L 0.546875 0 L 0.140625 0 L 0.140625 -1.375 L 0.53125 -1.375 L 1.109375 -0.703125 L 1.109375 -1.375 L 1.515625 -1.375 L 1.515625 0 Z M 1.125 0 "/></g></g></g><g fill="#f5e8da" fill-opacity="1"><g transform="translate(50.596919, 22.365423)"><g><path d="M 0.796875 -1.40625 C 1.003906 -1.40625 1.164062 -1.351562 1.28125 -1.25 C 1.40625 -1.144531 1.46875 -1 1.46875 -0.8125 L 1.046875 -0.8125 C 1.046875 -0.894531 1.023438 -0.957031 0.984375 -1 C 0.941406 -1.039062 0.878906 -1.0625 0.796875 -1.0625 C 0.710938 -1.0625 0.648438 -1.035156 0.609375 -0.984375 C 0.566406 -0.929688 0.546875 -0.851562 0.546875 -0.75 L 0.546875 -0.625 C 0.546875 -0.519531 0.566406 -0.441406 0.609375 -0.390625 C 0.648438 -0.335938 0.710938 -0.3125 0.796875 -0.3125 C 0.878906 -0.3125 0.941406 -0.332031 0.984375 -0.375 C 1.035156 -0.414062 1.0625 -0.476562 1.0625 -0.5625 L 1.46875 -0.5625 C 1.46875 -0.375 1.410156 -0.226562 1.296875 -0.125 C 1.179688 -0.0195312 1.015625 0.03125 0.796875 0.03125 C 0.566406 0.03125 0.390625 -0.03125 0.265625 -0.15625 C 0.148438 -0.28125 0.09375 -0.457031 0.09375 -0.6875 C 0.09375 -0.925781 0.148438 -1.101562 0.265625 -1.21875 C 0.390625 -1.34375 0.566406 -1.40625 0.796875 -1.40625 Z M 0.796875 -1.40625 "/></g></g></g><g fill="#f5e8da" fill-opacity="1"><g transform="translate(52.465264, 22.365423)"><g><path d="M 0.140625 -1.375 L 1.34375 -1.375 L 1.34375 -1.046875 L 0.59375 -1.046875 L 0.59375 -0.859375 L 1.234375 -0.859375 L 1.234375 -0.546875 L 0.59375 -0.546875 L 0.59375 -0.328125 L 1.359375 -0.328125 L 1.359375 0 L 0.140625 0 Z M 0.140625 -1.375 "/></g></g></g><g fill="#f5e8da" fill-opacity="1"><g transform="translate(54.221597, 22.365423)"><g/></g></g><g fill="#f5e8da" fill-opacity="1"><g transform="translate(55.19985, 22.365423)"><g><path d="M 0.140625 -1.375 L 1.34375 -1.375 L 1.34375 -1.046875 L 0.59375 -1.046875 L 0.59375 -0.859375 L 1.234375 -0.859375 L 1.234375 -0.546875 L 0.59375 -0.546875 L 0.59375 -0.328125 L 1.359375 -0.328125 L 1.359375 0 L 0.140625 0 Z M 0.140625 -1.375 "/></g></g></g><g fill="#f5e8da" fill-opacity="1"><g transform="translate(56.956182, 22.365423)"><g><path d="M 0.796875 -1.40625 C 1.003906 -1.40625 1.164062 -1.351562 1.28125 -1.25 C 1.40625 -1.144531 1.46875 -1 1.46875 -0.8125 L 1.046875 -0.8125 C 1.046875 -0.894531 1.023438 -0.957031 0.984375 -1 C 0.941406 -1.039062 0.878906 -1.0625 0.796875 -1.0625 C 0.710938 -1.0625 0.648438 -1.035156 0.609375 -0.984375 C 0.566406 -0.929688 0.546875 -0.851562 0.546875 -0.75 L 0.546875 -0.625 C 0.546875 -0.519531 0.566406 -0.441406 0.609375 -0.390625 C 0.648438 -0.335938 0.710938 -0.3125 0.796875 -0.3125 C 0.878906 -0.3125 0.941406 -0.332031 0.984375 -0.375 C 1.035156 -0.414062 1.0625 -0.476562 1.0625 -0.5625 L 1.46875 -0.5625 C 1.46875 -0.375 1.410156 -0.226562 1.296875 -0.125 C 1.179688 -0.0195312 1.015625 0.03125 0.796875 0.03125 C 0.566406 0.03125 0.390625 -0.03125 0.265625 -0.15625 C 0.148438 -0.28125 0.09375 -0.457031 0.09375 -0.6875 C 0.09375 -0.925781 0.148438 -1.101562 0.265625 -1.21875 C 0.390625 -1.34375 0.566406 -1.40625 0.796875 -1.40625 Z M 0.796875 -1.40625 "/></g></g></g><g fill="#f5e8da" fill-opacity="1"><g transform="translate(58.824527, 22.365423)"><g><path d="M 0.140625 -1.375 L 0.59375 -1.375 L 0.59375 -0.359375 L 1.296875 -0.359375 L 1.296875 0 L 0.140625 0 Z M 0.140625 -1.375 "/></g></g></g><g fill="#f5e8da" fill-opacity="1"><g transform="translate(60.470848, 22.365423)"><g><path d="M 1.0625 0 L 1.015625 -0.1875 L 0.53125 -0.1875 L 0.46875 0 L 0.015625 0 L 0.515625 -1.375 L 1.03125 -1.375 L 1.53125 0 Z M 0.625 -0.5 L 0.921875 -0.5 L 0.78125 -0.984375 L 0.765625 -0.984375 Z M 0.625 -0.5 "/></g></g></g><g fill="#f5e8da" fill-opacity="1"><g transform="translate(62.339193, 22.365423)"><g><path d="M 0.171875 0 L 0.171875 -1.375 L 0.609375 -1.375 L 0.609375 0 Z M 0.171875 0 "/></g></g></g><g fill="#f5e8da" fill-opacity="1"><g transform="translate(63.429456, 22.365423)"><g><path d="M 1.453125 -0.953125 C 1.453125 -0.867188 1.425781 -0.789062 1.375 -0.71875 C 1.332031 -0.65625 1.269531 -0.609375 1.1875 -0.578125 L 1.5 0 L 1 0 L 0.75 -0.5 L 0.59375 -0.5 L 0.59375 0 L 0.140625 0 L 0.140625 -1.375 L 0.984375 -1.375 C 1.085938 -1.375 1.171875 -1.351562 1.234375 -1.3125 C 1.304688 -1.28125 1.359375 -1.226562 1.390625 -1.15625 C 1.429688 -1.09375 1.453125 -1.023438 1.453125 -0.953125 Z M 1 -0.9375 C 1 -0.96875 0.988281 -0.992188 0.96875 -1.015625 C 0.945312 -1.046875 0.914062 -1.0625 0.875 -1.0625 L 0.59375 -1.0625 L 0.59375 -0.8125 L 0.875 -0.8125 C 0.914062 -0.8125 0.945312 -0.820312 0.96875 -0.84375 C 0.988281 -0.863281 1 -0.894531 1 -0.9375 Z M 1 -0.9375 "/></g></g></g></svg>