<svg xmlns="http://www.w3.org/2000/svg" xmlns:xlink="http://www.w3.org/1999/xlink" width="45" zoomAndPan="magnify" viewBox="0 0 33.75 33.749999" height="45" preserveAspectRatio="xMidYMid meet" version="1.0"><defs><g/><clipPath id="6c46fcad53"><path d="M 11.851562 11.664062 L 21.601562 11.664062 L 21.601562 22.164062 L 11.851562 22.164062 Z M 11.851562 11.664062 " clip-rule="nonzero"/></clipPath><clipPath id="b5ff940406"><path d="M 13.761719 18.230469 C 13.761719 18.230469 15.390625 14.558594 17.757812 11.789062 C 17.457031 11.722656 17.152344 11.683594 16.84375 11.675781 C 16.535156 11.667969 16.230469 11.6875 15.925781 11.742188 C 15.621094 11.792969 15.324219 11.875 15.035156 11.984375 C 14.746094 12.09375 14.46875 12.234375 14.203125 12.398438 C 13.941406 12.5625 13.695312 12.75 13.464844 12.964844 C 13.234375 13.179688 13.027344 13.414062 12.839844 13.667969 C 12.652344 13.921875 12.492188 14.191406 12.351562 14.480469 C 12.214844 14.765625 12.105469 15.0625 12.023438 15.371094 C 11.9375 15.679688 11.882812 15.992188 11.859375 16.3125 C 11.832031 16.632812 11.835938 16.949219 11.867188 17.269531 C 11.902344 17.585938 11.960938 17.898438 12.050781 18.203125 C 12.140625 18.511719 12.257812 18.804688 12.402344 19.089844 C 12.542969 19.371094 12.710938 19.640625 12.90625 19.890625 C 13.097656 20.140625 13.308594 20.371094 13.542969 20.578125 C 13.777344 20.785156 14.027344 20.96875 14.296875 21.128906 C 14.5625 21.289062 14.84375 21.417969 15.136719 21.523438 L 15.054688 22.136719 L 15.148438 22.148438 L 15.398438 21.492188 C 15.789062 20.488281 16.453125 18.941406 17.171875 17.839844 C 17.171875 17.839844 15.238281 17.785156 13.761719 18.230469 Z M 20.28125 13.273438 C 19.304688 13.992188 18.097656 15.082031 17.121094 16.585938 C 17.121094 16.585938 19.777344 16.222656 20.855469 16.167969 C 20.855469 16.167969 17.808594 18.890625 15.640625 21.671875 C 16.148438 21.792969 16.664062 21.828125 17.183594 21.777344 C 17.703125 21.726562 18.203125 21.59375 18.683594 21.375 C 19.160156 21.15625 19.59375 20.867188 19.984375 20.503906 C 20.371094 20.144531 20.695312 19.726562 20.957031 19.257812 C 21.21875 18.785156 21.398438 18.285156 21.503906 17.753906 C 21.609375 17.222656 21.632812 16.6875 21.570312 16.148438 C 21.511719 15.609375 21.371094 15.097656 21.148438 14.605469 C 20.929688 14.113281 20.640625 13.667969 20.28125 13.273438 Z M 20.28125 13.273438 " clip-rule="nonzero"/></clipPath><linearGradient x1="-20.237753" gradientTransform="matrix(0.0458198, 0, 0, 0.0475682, 11.851994, 11.676371)" y1="30.872876" x2="229.956022" gradientUnits="userSpaceOnUse" y2="193.823268" id="ca019829a4"><stop stop-opacity="1" stop-color="rgb(69.799805%, 44.699097%, 54.499817%)" offset="0"/><stop stop-opacity="1" stop-color="rgb(69.799805%, 44.699097%, 54.499817%)" offset="0.125"/><stop stop-opacity="1" stop-color="rgb(69.799805%, 44.699097%, 54.499817%)" offset="0.140625"/><stop stop-opacity="1" stop-color="rgb(69.541931%, 44.400024%, 54.418945%)" offset="0.144531"/><stop stop-opacity="1" stop-color="rgb(69.285583%, 44.100952%, 54.338074%)" offset="0.148438"/><stop stop-opacity="1" stop-color="rgb(68.443298%, 43.121338%, 54.072571%)" offset="0.152344"/><stop stop-opacity="1" stop-color="rgb(67.601013%, 42.141724%, 53.807068%)" offset="0.15625"/><stop stop-opacity="1" stop-color="rgb(66.758728%, 41.160583%, 53.541565%)" offset="0.160156"/><stop stop-opacity="1" stop-color="rgb(65.917969%, 40.180969%, 53.276062%)" offset="0.164062"/><stop stop-opacity="1" stop-color="rgb(65.075684%, 39.199829%, 53.010559%)" offset="0.167969"/><stop stop-opacity="1" stop-color="rgb(64.233398%, 38.220215%, 52.745056%)" offset="0.171875"/><stop stop-opacity="1" stop-color="rgb(63.391113%, 37.240601%, 52.479553%)" offset="0.175781"/><stop stop-opacity="1" stop-color="rgb(62.550354%, 36.260986%, 52.215576%)" offset="0.179688"/><stop stop-opacity="1" stop-color="rgb(61.708069%, 35.279846%, 51.950073%)" offset="0.183594"/><stop stop-opacity="1" stop-color="rgb(60.865784%, 34.300232%, 51.68457%)" offset="0.1875"/><stop stop-opacity="1" stop-color="rgb(60.023499%, 33.319092%, 51.419067%)" offset="0.191406"/><stop stop-opacity="1" stop-color="rgb(59.182739%, 32.339478%, 51.153564%)" offset="0.195312"/><stop stop-opacity="1" stop-color="rgb(58.340454%, 31.359863%, 50.888062%)" offset="0.199219"/><stop stop-opacity="1" stop-color="rgb(57.498169%, 30.380249%, 50.622559%)" offset="0.203125"/><stop stop-opacity="1" stop-color="rgb(56.655884%, 29.399109%, 50.357056%)" offset="0.207031"/><stop stop-opacity="1" stop-color="rgb(55.813599%, 28.419495%, 50.093079%)" offset="0.210938"/><stop stop-opacity="1" stop-color="rgb(54.971313%, 27.43988%, 49.827576%)" offset="0.214844"/><stop stop-opacity="1" stop-color="rgb(54.130554%, 26.460266%, 49.562073%)" offset="0.21875"/><stop stop-opacity="1" stop-color="rgb(53.288269%, 25.479126%, 49.29657%)" offset="0.222656"/><stop stop-opacity="1" stop-color="rgb(52.445984%, 24.499512%, 49.031067%)" offset="0.226562"/><stop stop-opacity="1" stop-color="rgb(51.603699%, 23.518372%, 48.765564%)" offset="0.230469"/><stop stop-opacity="1" stop-color="rgb(50.762939%, 22.538757%, 48.500061%)" offset="0.234375"/><stop stop-opacity="1" stop-color="rgb(49.920654%, 21.559143%, 48.234558%)" offset="0.238281"/><stop stop-opacity="1" stop-color="rgb(49.078369%, 20.579529%, 47.970581%)" offset="0.242188"/><stop stop-opacity="1" stop-color="rgb(48.236084%, 19.598389%, 47.705078%)" offset="0.246094"/><stop stop-opacity="1" stop-color="rgb(47.395325%, 18.618774%, 47.439575%)" offset="0.25"/><stop stop-opacity="1" stop-color="rgb(46.55304%, 17.63916%, 47.174072%)" offset="0.253906"/><stop stop-opacity="1" stop-color="rgb(45.710754%, 16.659546%, 46.908569%)" offset="0.257812"/><stop stop-opacity="1" stop-color="rgb(44.868469%, 15.678406%, 46.643066%)" offset="0.261719"/><stop stop-opacity="1" stop-color="rgb(44.02771%, 14.698792%, 46.377563%)" offset="0.265625"/><stop stop-opacity="1" stop-color="rgb(43.185425%, 13.717651%, 46.112061%)" offset="0.269531"/><stop stop-opacity="1" stop-color="rgb(42.34314%, 12.738037%, 45.848083%)" offset="0.273438"/><stop stop-opacity="1" stop-color="rgb(41.500854%, 11.758423%, 45.582581%)" offset="0.277344"/><stop stop-opacity="1" stop-color="rgb(40.658569%, 10.778809%, 45.317078%)" offset="0.28125"/><stop stop-opacity="1" stop-color="rgb(39.816284%, 9.797668%, 45.051575%)" offset="0.285156"/><stop stop-opacity="1" stop-color="rgb(38.975525%, 8.818054%, 44.786072%)" offset="0.289063"/><stop stop-opacity="1" stop-color="rgb(38.13324%, 7.836914%, 44.520569%)" offset="0.292969"/><stop stop-opacity="1" stop-color="rgb(37.290955%, 6.8573%, 44.256592%)" offset="0.296875"/><stop stop-opacity="1" stop-color="rgb(36.448669%, 5.877686%, 43.991089%)" offset="0.300781"/><stop stop-opacity="1" stop-color="rgb(35.60791%, 4.898071%, 43.725586%)" offset="0.304688"/><stop stop-opacity="1" stop-color="rgb(34.765625%, 3.916931%, 43.460083%)" offset="0.308594"/><stop stop-opacity="1" stop-color="rgb(33.92334%, 2.937317%, 43.19458%)" offset="0.3125"/><stop stop-opacity="1" stop-color="rgb(33.081055%, 1.957703%, 42.929077%)" offset="0.316406"/><stop stop-opacity="1" stop-color="rgb(32.240295%, 0.978088%, 42.663574%)" offset="0.320312"/><stop stop-opacity="1" stop-color="rgb(31.867981%, 0.549316%, 42.579651%)" offset="0.324219"/><stop stop-opacity="1" stop-color="rgb(31.497192%, 0.12207%, 42.495728%)" offset="0.328125"/><stop stop-opacity="1" stop-color="rgb(31.594849%, 0.245667%, 42.591858%)" offset="0.335938"/><stop stop-opacity="1" stop-color="rgb(31.788635%, 0.492859%, 42.785645%)" offset="0.34375"/><stop stop-opacity="1" stop-color="rgb(31.983948%, 0.738525%, 42.977905%)" offset="0.351562"/><stop stop-opacity="1" stop-color="rgb(32.17926%, 0.985718%, 43.171692%)" offset="0.359375"/><stop stop-opacity="1" stop-color="rgb(32.374573%, 1.231384%, 43.363953%)" offset="0.367188"/><stop stop-opacity="1" stop-color="rgb(32.568359%, 1.478577%, 43.557739%)" offset="0.375"/><stop stop-opacity="1" stop-color="rgb(32.763672%, 1.725769%, 43.75%)" offset="0.382812"/><stop stop-opacity="1" stop-color="rgb(32.958984%, 1.971436%, 43.943787%)" offset="0.390625"/><stop stop-opacity="1" stop-color="rgb(33.154297%, 2.218628%, 44.136047%)" offset="0.398438"/><stop stop-opacity="1" stop-color="rgb(33.349609%, 2.464294%, 44.329834%)" offset="0.402817"/><stop stop-opacity="1" stop-color="rgb(33.447266%, 2.587891%, 44.425964%)" offset="0.40625"/><stop stop-opacity="1" stop-color="rgb(33.543396%, 2.711487%, 44.522095%)" offset="0.414063"/><stop stop-opacity="1" stop-color="rgb(33.738708%, 2.958679%, 44.715881%)" offset="0.421875"/><stop stop-opacity="1" stop-color="rgb(33.934021%, 3.204346%, 44.908142%)" offset="0.429688"/><stop stop-opacity="1" stop-color="rgb(34.129333%, 3.451538%, 45.101929%)" offset="0.4375"/><stop stop-opacity="1" stop-color="rgb(34.32312%, 3.697205%, 45.294189%)" offset="0.445313"/><stop stop-opacity="1" stop-color="rgb(34.518433%, 3.944397%, 45.487976%)" offset="0.453125"/><stop stop-opacity="1" stop-color="rgb(34.713745%, 4.191589%, 45.681763%)" offset="0.460938"/><stop stop-opacity="1" stop-color="rgb(34.909058%, 4.437256%, 45.874023%)" offset="0.46875"/><stop stop-opacity="1" stop-color="rgb(35.10437%, 4.684448%, 46.06781%)" offset="0.476563"/><stop stop-opacity="1" stop-color="rgb(35.298157%, 4.930115%, 46.260071%)" offset="0.484375"/><stop stop-opacity="1" stop-color="rgb(35.493469%, 5.177307%, 46.453857%)" offset="0.492188"/><stop stop-opacity="1" stop-color="rgb(35.688782%, 5.4245%, 46.646118%)" offset="0.5"/><stop stop-opacity="1" stop-color="rgb(35.884094%, 5.670166%, 46.839905%)" offset="0.507812"/><stop stop-opacity="1" stop-color="rgb(36.077881%, 5.917358%, 47.032166%)" offset="0.515625"/><stop stop-opacity="1" stop-color="rgb(36.273193%, 6.163025%, 47.225952%)" offset="0.523438"/><stop stop-opacity="1" stop-color="rgb(36.468506%, 6.410217%, 47.418213%)" offset="0.53125"/><stop stop-opacity="1" stop-color="rgb(36.663818%, 6.65741%, 47.612%)" offset="0.539062"/><stop stop-opacity="1" stop-color="rgb(36.859131%, 6.903076%, 47.80426%)" offset="0.546875"/><stop stop-opacity="1" stop-color="rgb(37.052917%, 7.150269%, 47.998047%)" offset="0.554688"/><stop stop-opacity="1" stop-color="rgb(37.24823%, 7.395935%, 48.190308%)" offset="0.5625"/><stop stop-opacity="1" stop-color="rgb(37.443542%, 7.643127%, 48.384094%)" offset="0.570312"/><stop stop-opacity="1" stop-color="rgb(37.638855%, 7.89032%, 48.576355%)" offset="0.578125"/><stop stop-opacity="1" stop-color="rgb(37.832642%, 8.135986%, 48.770142%)" offset="0.585938"/><stop stop-opacity="1" stop-color="rgb(38.027954%, 8.383179%, 48.962402%)" offset="0.59375"/><stop stop-opacity="1" stop-color="rgb(38.223267%, 8.628845%, 49.156189%)" offset="0.597183"/><stop stop-opacity="1" stop-color="rgb(38.320923%, 8.752441%, 49.252319%)" offset="0.601563"/><stop stop-opacity="1" stop-color="rgb(38.418579%, 8.876038%, 49.34845%)" offset="0.609375"/><stop stop-opacity="1" stop-color="rgb(38.613892%, 9.12323%, 49.542236%)" offset="0.617188"/><stop stop-opacity="1" stop-color="rgb(38.807678%, 9.368896%, 49.736023%)" offset="0.625"/><stop stop-opacity="1" stop-color="rgb(39.002991%, 9.616089%, 49.928284%)" offset="0.632812"/><stop stop-opacity="1" stop-color="rgb(39.198303%, 9.861755%, 50.12207%)" offset="0.640625"/><stop stop-opacity="1" stop-color="rgb(39.393616%, 10.108948%, 50.314331%)" offset="0.648438"/><stop stop-opacity="1" stop-color="rgb(39.587402%, 10.35614%, 50.508118%)" offset="0.65625"/><stop stop-opacity="1" stop-color="rgb(39.782715%, 10.601807%, 50.700378%)" offset="0.664063"/><stop stop-opacity="1" stop-color="rgb(39.978027%, 10.848999%, 50.894165%)" offset="0.671875"/><stop stop-opacity="1" stop-color="rgb(40.17334%, 11.094666%, 51.086426%)" offset="0.679688"/><stop stop-opacity="1" stop-color="rgb(40.368652%, 11.341858%, 51.280212%)" offset="0.6875"/><stop stop-opacity="1" stop-color="rgb(40.562439%, 11.58905%, 51.472473%)" offset="0.695313"/><stop stop-opacity="1" stop-color="rgb(40.757751%, 11.834717%, 51.66626%)" offset="0.703125"/><stop stop-opacity="1" stop-color="rgb(40.953064%, 12.081909%, 51.858521%)" offset="0.710938"/><stop stop-opacity="1" stop-color="rgb(41.148376%, 12.327576%, 52.052307%)" offset="0.71875"/><stop stop-opacity="1" stop-color="rgb(41.342163%, 12.574768%, 52.244568%)" offset="0.726562"/><stop stop-opacity="1" stop-color="rgb(41.648865%, 12.945557%, 52.429199%)" offset="0.730469"/><stop stop-opacity="1" stop-color="rgb(41.859436%, 13.192749%, 52.5177%)" offset="0.734375"/><stop stop-opacity="1" stop-color="rgb(42.559814%, 13.981628%, 52.566528%)" offset="0.738281"/><stop stop-opacity="1" stop-color="rgb(43.260193%, 14.772034%, 52.616882%)" offset="0.742188"/><stop stop-opacity="1" stop-color="rgb(43.960571%, 15.562439%, 52.66571%)" offset="0.746094"/><stop stop-opacity="1" stop-color="rgb(44.662476%, 16.352844%, 52.716064%)" offset="0.75"/><stop stop-opacity="1" stop-color="rgb(45.362854%, 17.14325%, 52.764893%)" offset="0.753906"/><stop stop-opacity="1" stop-color="rgb(46.063232%, 17.933655%, 52.815247%)" offset="0.757812"/><stop stop-opacity="1" stop-color="rgb(46.763611%, 18.72406%, 52.865601%)" offset="0.761719"/><stop stop-opacity="1" stop-color="rgb(47.465515%, 19.514465%, 52.915955%)" offset="0.765625"/><stop stop-opacity="1" stop-color="rgb(48.165894%, 20.303345%, 52.964783%)" offset="0.769531"/><stop stop-opacity="1" stop-color="rgb(48.866272%, 21.09375%, 53.015137%)" offset="0.773438"/><stop stop-opacity="1" stop-color="rgb(49.56665%, 21.884155%, 53.063965%)" offset="0.777344"/><stop stop-opacity="1" stop-color="rgb(50.268555%, 22.674561%, 53.114319%)" offset="0.78125"/><stop stop-opacity="1" stop-color="rgb(50.968933%, 23.464966%, 53.163147%)" offset="0.785156"/><stop stop-opacity="1" stop-color="rgb(51.669312%, 24.255371%, 53.213501%)" offset="0.789062"/><stop stop-opacity="1" stop-color="rgb(52.36969%, 25.045776%, 53.262329%)" offset="0.792969"/><stop stop-opacity="1" stop-color="rgb(53.071594%, 25.836182%, 53.312683%)" offset="0.796875"/><stop stop-opacity="1" stop-color="rgb(53.771973%, 26.625061%, 53.361511%)" offset="0.800781"/><stop stop-opacity="1" stop-color="rgb(54.472351%, 27.415466%, 53.411865%)" offset="0.804688"/><stop stop-opacity="1" stop-color="rgb(55.172729%, 28.205872%, 53.460693%)" offset="0.808594"/><stop stop-opacity="1" stop-color="rgb(55.874634%, 28.996277%, 53.511047%)" offset="0.8125"/><stop stop-opacity="1" stop-color="rgb(56.575012%, 29.786682%, 53.561401%)" offset="0.816406"/><stop stop-opacity="1" stop-color="rgb(57.275391%, 30.577087%, 53.611755%)" offset="0.820313"/><stop stop-opacity="1" stop-color="rgb(57.975769%, 31.365967%, 53.660583%)" offset="0.824219"/><stop stop-opacity="1" stop-color="rgb(58.677673%, 32.156372%, 53.710938%)" offset="0.828125"/><stop stop-opacity="1" stop-color="rgb(59.378052%, 32.946777%, 53.759766%)" offset="0.832031"/><stop stop-opacity="1" stop-color="rgb(60.07843%, 33.737183%, 53.81012%)" offset="0.835938"/><stop stop-opacity="1" stop-color="rgb(60.778809%, 34.527588%, 53.858948%)" offset="0.839844"/><stop stop-opacity="1" stop-color="rgb(61.479187%, 35.317993%, 53.909302%)" offset="0.84375"/><stop stop-opacity="1" stop-color="rgb(62.179565%, 36.108398%, 53.95813%)" offset="0.847656"/><stop stop-opacity="1" stop-color="rgb(62.88147%, 36.898804%, 54.008484%)" offset="0.851562"/><stop stop-opacity="1" stop-color="rgb(63.581848%, 37.687683%, 54.057312%)" offset="0.855469"/><stop stop-opacity="1" stop-color="rgb(64.282227%, 38.478088%, 54.107666%)" offset="0.859375"/><stop stop-opacity="1" stop-color="rgb(64.982605%, 39.268494%, 54.156494%)" offset="0.863281"/><stop stop-opacity="1" stop-color="rgb(65.684509%, 40.058899%, 54.206848%)" offset="0.867188"/><stop stop-opacity="1" stop-color="rgb(66.384888%, 40.849304%, 54.257202%)" offset="0.871094"/><stop stop-opacity="1" stop-color="rgb(67.085266%, 41.639709%, 54.307556%)" offset="0.875"/><stop stop-opacity="1" stop-color="rgb(67.785645%, 42.430115%, 54.356384%)" offset="0.878906"/><stop stop-opacity="1" stop-color="rgb(68.487549%, 43.22052%, 54.406738%)" offset="0.882812"/><stop stop-opacity="1" stop-color="rgb(69.143677%, 43.959045%, 54.452515%)" offset="0.886719"/><stop stop-opacity="1" stop-color="rgb(69.799805%, 44.699097%, 54.499817%)" offset="0.890625"/><stop stop-opacity="1" stop-color="rgb(69.799805%, 44.699097%, 54.499817%)" offset="0.90625"/><stop stop-opacity="1" stop-color="rgb(69.799805%, 44.699097%, 54.499817%)" offset="0.9375"/><stop stop-opacity="1" stop-color="rgb(69.799805%, 44.699097%, 54.499817%)" offset="1"/></linearGradient></defs><g clip-path="url(#6c46fcad53)"><g clip-path="url(#b5ff940406)"><path fill="url(#ca019829a4)" d="M 11.851562 11.667969 L 11.851562 22.148438 L 21.601562 22.148438 L 21.601562 11.667969 Z M 11.851562 11.667969 " fill-rule="nonzero"/></g></g><g fill="#f5e8da" fill-opacity="1"><g transform="translate(8.355016, 17.347499)"><g><path d="M 0.828125 0 L 0.78125 -0.15625 L 0.40625 -0.15625 L 0.359375 0 L 0.015625 0 L 0.40625 -1.0625 L 0.796875 -1.0625 L 1.1875 0 Z M 0.484375 -0.390625 L 0.71875 -0.390625 L 0.59375 -0.765625 Z M 0.484375 -0.390625 "/></g></g></g><g fill="#f5e8da" fill-opacity="1"><g transform="translate(9.804178, 17.347499)"><g><path d="M 0.65625 -1.078125 C 0.75 -1.078125 0.835938 -1.0625 0.921875 -1.03125 C 1.003906 -1 1.066406 -0.953125 1.109375 -0.890625 C 1.160156 -0.835938 1.1875 -0.765625 1.1875 -0.671875 L 0.859375 -0.671875 C 0.859375 -0.722656 0.835938 -0.757812 0.796875 -0.78125 C 0.765625 -0.8125 0.71875 -0.828125 0.65625 -0.828125 C 0.582031 -0.828125 0.523438 -0.804688 0.484375 -0.765625 C 0.441406 -0.722656 0.421875 -0.660156 0.421875 -0.578125 L 0.421875 -0.484375 C 0.421875 -0.398438 0.441406 -0.335938 0.484375 -0.296875 C 0.523438 -0.253906 0.582031 -0.234375 0.65625 -0.234375 C 0.71875 -0.234375 0.765625 -0.242188 0.796875 -0.265625 C 0.835938 -0.296875 0.859375 -0.332031 0.859375 -0.375 L 0.625 -0.375 L 0.625 -0.59375 L 1.1875 -0.59375 L 1.1875 0 L 1.015625 0 L 0.984375 -0.109375 C 0.878906 -0.0234375 0.75 0.015625 0.59375 0.015625 C 0.414062 0.015625 0.28125 -0.03125 0.1875 -0.125 C 0.101562 -0.21875 0.0625 -0.351562 0.0625 -0.53125 C 0.0625 -0.707031 0.113281 -0.84375 0.21875 -0.9375 C 0.320312 -1.03125 0.46875 -1.078125 0.65625 -1.078125 Z M 0.65625 -1.078125 "/></g></g></g><g fill="#f5e8da" fill-opacity="1"><g transform="translate(11.338668, 17.347499)"><g><path d="M 0.109375 -1.0625 L 1.03125 -1.0625 L 1.03125 -0.8125 L 0.453125 -0.8125 L 0.453125 -0.65625 L 0.953125 -0.65625 L 0.953125 -0.421875 L 0.453125 -0.421875 L 0.453125 -0.25 L 1.046875 -0.25 L 1.046875 0 L 0.109375 0 Z M 0.109375 -1.0625 "/></g></g></g><g fill="#f5e8da" fill-opacity="1"><g transform="translate(12.700948, 17.347499)"><g><path d="M 0.875 0 L 0.421875 -0.515625 L 0.421875 0 L 0.109375 0 L 0.109375 -1.0625 L 0.40625 -1.0625 L 0.859375 -0.546875 L 0.859375 -1.0625 L 1.171875 -1.0625 L 1.171875 0 Z M 0.875 0 "/></g></g></g><g fill="#f5e8da" fill-opacity="1"><g transform="translate(14.235438, 17.347499)"><g><path d="M 0.625 -1.078125 C 0.78125 -1.078125 0.90625 -1.035156 1 -0.953125 C 1.09375 -0.878906 1.140625 -0.769531 1.140625 -0.625 L 0.8125 -0.625 C 0.8125 -0.6875 0.789062 -0.734375 0.75 -0.765625 C 0.71875 -0.804688 0.675781 -0.828125 0.625 -0.828125 C 0.550781 -0.828125 0.5 -0.804688 0.46875 -0.765625 C 0.4375 -0.722656 0.421875 -0.660156 0.421875 -0.578125 L 0.421875 -0.484375 C 0.421875 -0.410156 0.4375 -0.347656 0.46875 -0.296875 C 0.5 -0.253906 0.550781 -0.234375 0.625 -0.234375 C 0.6875 -0.234375 0.734375 -0.25 0.765625 -0.28125 C 0.796875 -0.320312 0.8125 -0.375 0.8125 -0.4375 L 1.140625 -0.4375 C 1.140625 -0.289062 1.09375 -0.175781 1 -0.09375 C 0.90625 -0.0195312 0.78125 0.015625 0.625 0.015625 C 0.4375 0.015625 0.296875 -0.03125 0.203125 -0.125 C 0.109375 -0.21875 0.0625 -0.351562 0.0625 -0.53125 C 0.0625 -0.707031 0.109375 -0.84375 0.203125 -0.9375 C 0.296875 -1.03125 0.4375 -1.078125 0.625 -1.078125 Z M 0.625 -1.078125 "/></g></g></g><g fill="#f5e8da" fill-opacity="1"><g transform="translate(15.684599, 17.347499)"><g><path d="M 0.109375 -1.0625 L 1.03125 -1.0625 L 1.03125 -0.8125 L 0.453125 -0.8125 L 0.453125 -0.65625 L 0.953125 -0.65625 L 0.953125 -0.421875 L 0.453125 -0.421875 L 0.453125 -0.25 L 1.046875 -0.25 L 1.046875 0 L 0.109375 0 Z M 0.109375 -1.0625 "/></g></g></g><g fill="#f5e8da" fill-opacity="1"><g transform="translate(17.04688, 17.347499)"><g/></g></g><g fill="#f5e8da" fill-opacity="1"><g transform="translate(17.805651, 17.347499)"><g><path d="M 0.109375 -1.0625 L 1.03125 -1.0625 L 1.03125 -0.8125 L 0.453125 -0.8125 L 0.453125 -0.65625 L 0.953125 -0.65625 L 0.953125 -0.421875 L 0.453125 -0.421875 L 0.453125 -0.25 L 1.046875 -0.25 L 1.046875 0 L 0.109375 0 Z M 0.109375 -1.0625 "/></g></g></g><g fill="#f5e8da" fill-opacity="1"><g transform="translate(19.167931, 17.347499)"><g><path d="M 0.625 -1.078125 C 0.78125 -1.078125 0.90625 -1.035156 1 -0.953125 C 1.09375 -0.878906 1.140625 -0.769531 1.140625 -0.625 L 0.8125 -0.625 C 0.8125 -0.6875 0.789062 -0.734375 0.75 -0.765625 C 0.71875 -0.804688 0.675781 -0.828125 0.625 -0.828125 C 0.550781 -0.828125 0.5 -0.804688 0.46875 -0.765625 C 0.4375 -0.722656 0.421875 -0.660156 0.421875 -0.578125 L 0.421875 -0.484375 C 0.421875 -0.410156 0.4375 -0.347656 0.46875 -0.296875 C 0.5 -0.253906 0.550781 -0.234375 0.625 -0.234375 C 0.6875 -0.234375 0.734375 -0.25 0.765625 -0.28125 C 0.796875 -0.320312 0.8125 -0.375 0.8125 -0.4375 L 1.140625 -0.4375 C 1.140625 -0.289062 1.09375 -0.175781 1 -0.09375 C 0.90625 -0.0195312 0.78125 0.015625 0.625 0.015625 C 0.4375 0.015625 0.296875 -0.03125 0.203125 -0.125 C 0.109375 -0.21875 0.0625 -0.351562 0.0625 -0.53125 C 0.0625 -0.707031 0.109375 -0.84375 0.203125 -0.9375 C 0.296875 -1.03125 0.4375 -1.078125 0.625 -1.078125 Z M 0.625 -1.078125 "/></g></g></g><g fill="#f5e8da" fill-opacity="1"><g transform="translate(20.617092, 17.347499)"><g><path d="M 0.109375 -1.0625 L 0.453125 -1.0625 L 0.453125 -0.265625 L 1 -0.265625 L 1 0 L 0.109375 0 Z M 0.109375 -1.0625 "/></g></g></g><g fill="#f5e8da" fill-opacity="1"><g transform="translate(21.894044, 17.347499)"><g><path d="M 0.828125 0 L 0.78125 -0.15625 L 0.40625 -0.15625 L 0.359375 0 L 0.015625 0 L 0.40625 -1.0625 L 0.796875 -1.0625 L 1.1875 0 Z M 0.484375 -0.390625 L 0.71875 -0.390625 L 0.59375 -0.765625 Z M 0.484375 -0.390625 "/></g></g></g><g fill="#f5e8da" fill-opacity="1"><g transform="translate(23.343205, 17.347499)"><g><path d="M 0.125 0 L 0.125 -1.0625 L 0.46875 -1.0625 L 0.46875 0 Z M 0.125 0 "/></g></g></g><g fill="#f5e8da" fill-opacity="1"><g transform="translate(24.188856, 17.347499)"><g><path d="M 1.125 -0.734375 C 1.125 -0.671875 1.101562 -0.613281 1.0625 -0.5625 C 1.03125 -0.507812 0.984375 -0.472656 0.921875 -0.453125 L 1.15625 0 L 0.765625 0 L 0.578125 -0.390625 L 0.453125 -0.390625 L 0.453125 0 L 0.109375 0 L 0.109375 -1.0625 L 0.765625 -1.0625 C 0.835938 -1.0625 0.898438 -1.046875 0.953125 -1.015625 C 1.015625 -0.984375 1.054688 -0.941406 1.078125 -0.890625 C 1.109375 -0.847656 1.125 -0.796875 1.125 -0.734375 Z M 0.78125 -0.71875 C 0.78125 -0.75 0.769531 -0.773438 0.75 -0.796875 C 0.726562 -0.816406 0.707031 -0.828125 0.6875 -0.828125 L 0.453125 -0.828125 L 0.453125 -0.625 L 0.6875 -0.625 C 0.707031 -0.625 0.726562 -0.632812 0.75 -0.65625 C 0.769531 -0.675781 0.78125 -0.695312 0.78125 -0.71875 Z M 0.78125 -0.71875 "/></g></g></g></svg>