<svg xmlns="http://www.w3.org/2000/svg" xmlns:xlink="http://www.w3.org/1999/xlink" width="40" zoomAndPan="magnify" viewBox="0 0 30 30.000001" height="40" preserveAspectRatio="xMidYMid meet" version="1.0"><defs><clipPath id="75cd8d2786"><path d="M 2 11 L 28 11 L 28 19 L 2 19 Z M 2 11 " clip-rule="nonzero"/></clipPath><clipPath id="9281724e15"><path d="M 22.359375 0.785156 L 30.476562 11.933594 L 8.769531 27.738281 L 0.652344 16.589844 Z M 22.359375 0.785156 " clip-rule="nonzero"/></clipPath><clipPath id="c40cfdd8c6"><path d="M 22.359375 0.785156 L 30.476562 11.933594 L 8.769531 27.738281 L 0.652344 16.589844 Z M 22.359375 0.785156 " clip-rule="nonzero"/></clipPath><clipPath id="22de1680fd"><path d="M 0.484375 9 L 29.515625 9 L 29.515625 18 L 0.484375 18 Z M 0.484375 9 " clip-rule="nonzero"/></clipPath><clipPath id="0853a81839"><path d="M 22.359375 0.785156 L 30.476562 11.933594 L 8.769531 27.738281 L 0.652344 16.589844 Z M 22.359375 0.785156 " clip-rule="nonzero"/></clipPath><clipPath id="9319177595"><path d="M 22.359375 0.785156 L 30.476562 11.933594 L 8.769531 27.738281 L 0.652344 16.589844 Z M 22.359375 0.785156 " clip-rule="nonzero"/></clipPath></defs><g clip-path="url(#75cd8d2786)"><g clip-path="url(#9281724e15)"><g clip-path="url(#c40cfdd8c6)"><path fill="#ffffff" d="M 18.28125 14.945312 L 25.601562 12.285156 L 27.289062 11.671875 L 25.492188 11.683594 L 10.742188 11.777344 L 9.984375 11.78125 L 10.53125 12.308594 L 13.019531 14.707031 L 4.175781 17.339844 L 2.277344 17.90625 L 4.261719 17.945312 L 20.949219 18.28125 L 21.730469 18.296875 L 21.167969 17.75 L 18.28125 14.945312 " fill-opacity="1" fill-rule="nonzero"/></g></g></g><g clip-path="url(#22de1680fd)"><g clip-path="url(#0853a81839)"><g clip-path="url(#9319177595)"><path fill="#ffffff" d="M 13.753906 13.429688 L 4.210938 16.273438 L 21.277344 16.613281 L 18.003906 13.4375 L 25.957031 10.546875 L 10.859375 10.644531 Z M 0.773438 16.738281 L 12.722656 13.179688 L 9.542969 10.117188 L 29.050781 9.992188 L 18.988281 13.648438 L 22.621094 17.175781 L 0.773438 16.738281 " fill-opacity="1" fill-rule="nonzero"/></g></g></g></svg>