<svg xmlns="http://www.w3.org/2000/svg" xmlns:xlink="http://www.w3.org/1999/xlink" width="40" zoomAndPan="magnify" viewBox="0 0 30 30.000001" height="40" preserveAspectRatio="xMidYMid meet" version="1.0"><defs><g/><clipPath id="640e3b9ed2"><path d="M 6.757812 5.964844 L 23.453125 5.964844 L 23.453125 23.382812 L 6.757812 23.382812 Z M 6.757812 5.964844 " clip-rule="nonzero"/></clipPath><clipPath id="a601f80e37"><path d="M 10.03125 16.859375 C 10.03125 16.859375 12.820312 10.769531 16.871094 6.179688 C 16.355469 6.066406 15.835938 6.003906 15.304688 5.988281 C 14.777344 5.976562 14.253906 6.011719 13.734375 6.097656 C 13.210938 6.183594 12.703125 6.320312 12.210938 6.503906 C 11.714844 6.6875 11.238281 6.914062 10.789062 7.1875 C 10.335938 7.460938 9.914062 7.773438 9.519531 8.128906 C 9.125 8.484375 8.769531 8.871094 8.449219 9.292969 C 8.128906 9.714844 7.851562 10.164062 7.617188 10.640625 C 7.382812 11.113281 7.191406 11.609375 7.050781 12.117188 C 6.910156 12.628906 6.816406 13.148438 6.769531 13.679688 C 6.726562 14.207031 6.734375 14.734375 6.789062 15.265625 C 6.84375 15.792969 6.949219 16.308594 7.101562 16.816406 C 7.253906 17.324219 7.453125 17.8125 7.699219 18.285156 C 7.945312 18.753906 8.234375 19.195312 8.5625 19.609375 C 8.890625 20.027344 9.253906 20.40625 9.65625 20.753906 C 10.058594 21.097656 10.488281 21.402344 10.945312 21.664062 C 11.402344 21.929688 11.882812 22.148438 12.382812 22.320312 L 12.242188 23.335938 L 12.402344 23.359375 L 12.828125 22.269531 C 13.503906 20.605469 14.632812 18.039062 15.871094 16.214844 C 15.871094 16.210938 12.558594 16.121094 10.03125 16.859375 Z M 21.195312 8.640625 C 19.519531 9.832031 17.453125 11.636719 15.78125 14.132812 C 15.78125 14.132812 20.332031 13.53125 22.171875 13.4375 C 22.171875 13.4375 16.957031 17.957031 13.246094 22.566406 C 14.117188 22.765625 15 22.824219 15.890625 22.742188 C 16.78125 22.65625 17.636719 22.433594 18.453125 22.074219 C 19.273438 21.710938 20.015625 21.230469 20.683594 20.632812 C 21.347656 20.03125 21.902344 19.339844 22.347656 18.5625 C 22.792969 17.78125 23.105469 16.949219 23.285156 16.070312 C 23.464844 15.1875 23.503906 14.300781 23.398438 13.410156 C 23.296875 12.515625 23.054688 11.660156 22.679688 10.847656 C 22.300781 10.03125 21.804688 9.296875 21.195312 8.640625 Z M 21.195312 8.640625 " clip-rule="nonzero"/></clipPath><linearGradient x1="-20.237751" gradientTransform="matrix(0.0784508, 0, 0, 0.078876, 6.759231, 5.991787)" y1="30.872877" x2="229.956019" gradientUnits="userSpaceOnUse" y2="193.823265" id="66b9bc453e"><stop stop-opacity="1" stop-color="rgb(69.799805%, 44.699097%, 54.499817%)" offset="0"/><stop stop-opacity="1" stop-color="rgb(69.799805%, 44.699097%, 54.499817%)" offset="0.125"/><stop stop-opacity="1" stop-color="rgb(69.799805%, 44.699097%, 54.499817%)" offset="0.140625"/><stop stop-opacity="1" stop-color="rgb(69.541931%, 44.400024%, 54.418945%)" offset="0.144531"/><stop stop-opacity="1" stop-color="rgb(69.285583%, 44.100952%, 54.338074%)" offset="0.148437"/><stop stop-opacity="1" stop-color="rgb(68.443298%, 43.121338%, 54.072571%)" offset="0.152344"/><stop stop-opacity="1" stop-color="rgb(67.601013%, 42.141724%, 53.807068%)" offset="0.15625"/><stop stop-opacity="1" stop-color="rgb(66.758728%, 41.160583%, 53.541565%)" offset="0.160156"/><stop stop-opacity="1" stop-color="rgb(65.917969%, 40.180969%, 53.276062%)" offset="0.164062"/><stop stop-opacity="1" stop-color="rgb(65.075684%, 39.199829%, 53.010559%)" offset="0.167969"/><stop stop-opacity="1" stop-color="rgb(64.233398%, 38.220215%, 52.745056%)" offset="0.171875"/><stop stop-opacity="1" stop-color="rgb(63.391113%, 37.240601%, 52.479553%)" offset="0.175781"/><stop stop-opacity="1" stop-color="rgb(62.550354%, 36.260986%, 52.215576%)" offset="0.179687"/><stop stop-opacity="1" stop-color="rgb(61.708069%, 35.279846%, 51.950073%)" offset="0.183594"/><stop stop-opacity="1" stop-color="rgb(60.865784%, 34.300232%, 51.68457%)" offset="0.1875"/><stop stop-opacity="1" stop-color="rgb(60.023499%, 33.319092%, 51.419067%)" offset="0.191406"/><stop stop-opacity="1" stop-color="rgb(59.182739%, 32.339478%, 51.153564%)" offset="0.195312"/><stop stop-opacity="1" stop-color="rgb(58.340454%, 31.359863%, 50.888062%)" offset="0.199219"/><stop stop-opacity="1" stop-color="rgb(57.498169%, 30.380249%, 50.622559%)" offset="0.203125"/><stop stop-opacity="1" stop-color="rgb(56.655884%, 29.399109%, 50.357056%)" offset="0.207031"/><stop stop-opacity="1" stop-color="rgb(55.813599%, 28.419495%, 50.093079%)" offset="0.210938"/><stop stop-opacity="1" stop-color="rgb(54.971313%, 27.43988%, 49.827576%)" offset="0.214844"/><stop stop-opacity="1" stop-color="rgb(54.130554%, 26.460266%, 49.562073%)" offset="0.21875"/><stop stop-opacity="1" stop-color="rgb(53.288269%, 25.479126%, 49.29657%)" offset="0.222656"/><stop stop-opacity="1" stop-color="rgb(52.445984%, 24.499512%, 49.031067%)" offset="0.226562"/><stop stop-opacity="1" stop-color="rgb(51.603699%, 23.518372%, 48.765564%)" offset="0.230469"/><stop stop-opacity="1" stop-color="rgb(50.762939%, 22.538757%, 48.500061%)" offset="0.234375"/><stop stop-opacity="1" stop-color="rgb(49.920654%, 21.559143%, 48.234558%)" offset="0.238281"/><stop stop-opacity="1" stop-color="rgb(49.078369%, 20.579529%, 47.970581%)" offset="0.242188"/><stop stop-opacity="1" stop-color="rgb(48.236084%, 19.598389%, 47.705078%)" offset="0.246094"/><stop stop-opacity="1" stop-color="rgb(47.395325%, 18.618774%, 47.439575%)" offset="0.25"/><stop stop-opacity="1" stop-color="rgb(46.55304%, 17.63916%, 47.174072%)" offset="0.253906"/><stop stop-opacity="1" stop-color="rgb(45.710754%, 16.659546%, 46.908569%)" offset="0.257812"/><stop stop-opacity="1" stop-color="rgb(44.868469%, 15.678406%, 46.643066%)" offset="0.261719"/><stop stop-opacity="1" stop-color="rgb(44.02771%, 14.698792%, 46.377563%)" offset="0.265625"/><stop stop-opacity="1" stop-color="rgb(43.185425%, 13.717651%, 46.112061%)" offset="0.269531"/><stop stop-opacity="1" stop-color="rgb(42.34314%, 12.738037%, 45.848083%)" offset="0.273438"/><stop stop-opacity="1" stop-color="rgb(41.500854%, 11.758423%, 45.582581%)" offset="0.277344"/><stop stop-opacity="1" stop-color="rgb(40.658569%, 10.778809%, 45.317078%)" offset="0.28125"/><stop stop-opacity="1" stop-color="rgb(39.816284%, 9.797668%, 45.051575%)" offset="0.285156"/><stop stop-opacity="1" stop-color="rgb(38.975525%, 8.818054%, 44.786072%)" offset="0.289062"/><stop stop-opacity="1" stop-color="rgb(38.13324%, 7.836914%, 44.520569%)" offset="0.292969"/><stop stop-opacity="1" stop-color="rgb(37.290955%, 6.8573%, 44.256592%)" offset="0.296875"/><stop stop-opacity="1" stop-color="rgb(36.448669%, 5.877686%, 43.991089%)" offset="0.300781"/><stop stop-opacity="1" stop-color="rgb(35.60791%, 4.898071%, 43.725586%)" offset="0.304687"/><stop stop-opacity="1" stop-color="rgb(34.765625%, 3.916931%, 43.460083%)" offset="0.308594"/><stop stop-opacity="1" stop-color="rgb(33.92334%, 2.937317%, 43.19458%)" offset="0.3125"/><stop stop-opacity="1" stop-color="rgb(33.081055%, 1.957703%, 42.929077%)" offset="0.316406"/><stop stop-opacity="1" stop-color="rgb(32.240295%, 0.978088%, 42.663574%)" offset="0.320312"/><stop stop-opacity="1" stop-color="rgb(31.867981%, 0.549316%, 42.579651%)" offset="0.324219"/><stop stop-opacity="1" stop-color="rgb(31.497192%, 0.12207%, 42.495728%)" offset="0.328125"/><stop stop-opacity="1" stop-color="rgb(31.594849%, 0.245667%, 42.591858%)" offset="0.335938"/><stop stop-opacity="1" stop-color="rgb(31.788635%, 0.492859%, 42.785645%)" offset="0.34375"/><stop stop-opacity="1" stop-color="rgb(31.983948%, 0.738525%, 42.977905%)" offset="0.351562"/><stop stop-opacity="1" stop-color="rgb(32.17926%, 0.985718%, 43.171692%)" offset="0.359375"/><stop stop-opacity="1" stop-color="rgb(32.374573%, 1.231384%, 43.363953%)" offset="0.367188"/><stop stop-opacity="1" stop-color="rgb(32.568359%, 1.478577%, 43.557739%)" offset="0.375"/><stop stop-opacity="1" stop-color="rgb(32.763672%, 1.725769%, 43.75%)" offset="0.382813"/><stop stop-opacity="1" stop-color="rgb(32.958984%, 1.971436%, 43.943787%)" offset="0.390625"/><stop stop-opacity="1" stop-color="rgb(33.154297%, 2.218628%, 44.136047%)" offset="0.398438"/><stop stop-opacity="1" stop-color="rgb(33.349609%, 2.464294%, 44.329834%)" offset="0.402817"/><stop stop-opacity="1" stop-color="rgb(33.447266%, 2.587891%, 44.425964%)" offset="0.40625"/><stop stop-opacity="1" stop-color="rgb(33.543396%, 2.711487%, 44.522095%)" offset="0.414062"/><stop stop-opacity="1" stop-color="rgb(33.738708%, 2.958679%, 44.715881%)" offset="0.421875"/><stop stop-opacity="1" stop-color="rgb(33.934021%, 3.204346%, 44.908142%)" offset="0.429688"/><stop stop-opacity="1" stop-color="rgb(34.129333%, 3.451538%, 45.101929%)" offset="0.4375"/><stop stop-opacity="1" stop-color="rgb(34.32312%, 3.697205%, 45.294189%)" offset="0.445312"/><stop stop-opacity="1" stop-color="rgb(34.518433%, 3.944397%, 45.487976%)" offset="0.453125"/><stop stop-opacity="1" stop-color="rgb(34.713745%, 4.191589%, 45.681763%)" offset="0.460938"/><stop stop-opacity="1" stop-color="rgb(34.909058%, 4.437256%, 45.874023%)" offset="0.46875"/><stop stop-opacity="1" stop-color="rgb(35.10437%, 4.684448%, 46.06781%)" offset="0.476563"/><stop stop-opacity="1" stop-color="rgb(35.298157%, 4.930115%, 46.260071%)" offset="0.484375"/><stop stop-opacity="1" stop-color="rgb(35.493469%, 5.177307%, 46.453857%)" offset="0.492188"/><stop stop-opacity="1" stop-color="rgb(35.688782%, 5.4245%, 46.646118%)" offset="0.5"/><stop stop-opacity="1" stop-color="rgb(35.884094%, 5.670166%, 46.839905%)" offset="0.507812"/><stop stop-opacity="1" stop-color="rgb(36.077881%, 5.917358%, 47.032166%)" offset="0.515625"/><stop stop-opacity="1" stop-color="rgb(36.273193%, 6.163025%, 47.225952%)" offset="0.523438"/><stop stop-opacity="1" stop-color="rgb(36.468506%, 6.410217%, 47.418213%)" offset="0.53125"/><stop stop-opacity="1" stop-color="rgb(36.663818%, 6.65741%, 47.612%)" offset="0.539062"/><stop stop-opacity="1" stop-color="rgb(36.859131%, 6.903076%, 47.80426%)" offset="0.546875"/><stop stop-opacity="1" stop-color="rgb(37.052917%, 7.150269%, 47.998047%)" offset="0.554688"/><stop stop-opacity="1" stop-color="rgb(37.24823%, 7.395935%, 48.190308%)" offset="0.5625"/><stop stop-opacity="1" stop-color="rgb(37.443542%, 7.643127%, 48.384094%)" offset="0.570312"/><stop stop-opacity="1" stop-color="rgb(37.638855%, 7.89032%, 48.576355%)" offset="0.578125"/><stop stop-opacity="1" stop-color="rgb(37.832642%, 8.135986%, 48.770142%)" offset="0.585937"/><stop stop-opacity="1" stop-color="rgb(38.027954%, 8.383179%, 48.962402%)" offset="0.59375"/><stop stop-opacity="1" stop-color="rgb(38.223267%, 8.628845%, 49.156189%)" offset="0.597183"/><stop stop-opacity="1" stop-color="rgb(38.320923%, 8.752441%, 49.252319%)" offset="0.601562"/><stop stop-opacity="1" stop-color="rgb(38.418579%, 8.876038%, 49.34845%)" offset="0.609375"/><stop stop-opacity="1" stop-color="rgb(38.613892%, 9.12323%, 49.542236%)" offset="0.617188"/><stop stop-opacity="1" stop-color="rgb(38.807678%, 9.368896%, 49.736023%)" offset="0.625"/><stop stop-opacity="1" stop-color="rgb(39.002991%, 9.616089%, 49.928284%)" offset="0.632812"/><stop stop-opacity="1" stop-color="rgb(39.198303%, 9.861755%, 50.12207%)" offset="0.640625"/><stop stop-opacity="1" stop-color="rgb(39.393616%, 10.108948%, 50.314331%)" offset="0.648438"/><stop stop-opacity="1" stop-color="rgb(39.587402%, 10.35614%, 50.508118%)" offset="0.65625"/><stop stop-opacity="1" stop-color="rgb(39.782715%, 10.601807%, 50.700378%)" offset="0.664062"/><stop stop-opacity="1" stop-color="rgb(39.978027%, 10.848999%, 50.894165%)" offset="0.671875"/><stop stop-opacity="1" stop-color="rgb(40.17334%, 11.094666%, 51.086426%)" offset="0.679688"/><stop stop-opacity="1" stop-color="rgb(40.368652%, 11.341858%, 51.280212%)" offset="0.6875"/><stop stop-opacity="1" stop-color="rgb(40.562439%, 11.58905%, 51.472473%)" offset="0.695312"/><stop stop-opacity="1" stop-color="rgb(40.757751%, 11.834717%, 51.66626%)" offset="0.703125"/><stop stop-opacity="1" stop-color="rgb(40.953064%, 12.081909%, 51.858521%)" offset="0.710938"/><stop stop-opacity="1" stop-color="rgb(41.148376%, 12.327576%, 52.052307%)" offset="0.71875"/><stop stop-opacity="1" stop-color="rgb(41.342163%, 12.574768%, 52.244568%)" offset="0.726563"/><stop stop-opacity="1" stop-color="rgb(41.648865%, 12.945557%, 52.429199%)" offset="0.730469"/><stop stop-opacity="1" stop-color="rgb(41.859436%, 13.192749%, 52.5177%)" offset="0.734375"/><stop stop-opacity="1" stop-color="rgb(42.559814%, 13.981628%, 52.566528%)" offset="0.738281"/><stop stop-opacity="1" stop-color="rgb(43.260193%, 14.772034%, 52.616882%)" offset="0.742188"/><stop stop-opacity="1" stop-color="rgb(43.960571%, 15.562439%, 52.66571%)" offset="0.746094"/><stop stop-opacity="1" stop-color="rgb(44.662476%, 16.352844%, 52.716064%)" offset="0.75"/><stop stop-opacity="1" stop-color="rgb(45.362854%, 17.14325%, 52.764893%)" offset="0.753906"/><stop stop-opacity="1" stop-color="rgb(46.063232%, 17.933655%, 52.815247%)" offset="0.757812"/><stop stop-opacity="1" stop-color="rgb(46.763611%, 18.72406%, 52.865601%)" offset="0.761719"/><stop stop-opacity="1" stop-color="rgb(47.465515%, 19.514465%, 52.915955%)" offset="0.765625"/><stop stop-opacity="1" stop-color="rgb(48.165894%, 20.303345%, 52.964783%)" offset="0.769531"/><stop stop-opacity="1" stop-color="rgb(48.866272%, 21.09375%, 53.015137%)" offset="0.773437"/><stop stop-opacity="1" stop-color="rgb(49.56665%, 21.884155%, 53.063965%)" offset="0.777344"/><stop stop-opacity="1" stop-color="rgb(50.268555%, 22.674561%, 53.114319%)" offset="0.78125"/><stop stop-opacity="1" stop-color="rgb(50.968933%, 23.464966%, 53.163147%)" offset="0.785156"/><stop stop-opacity="1" stop-color="rgb(51.669312%, 24.255371%, 53.213501%)" offset="0.789062"/><stop stop-opacity="1" stop-color="rgb(52.36969%, 25.045776%, 53.262329%)" offset="0.792969"/><stop stop-opacity="1" stop-color="rgb(53.071594%, 25.836182%, 53.312683%)" offset="0.796875"/><stop stop-opacity="1" stop-color="rgb(53.771973%, 26.625061%, 53.361511%)" offset="0.800781"/><stop stop-opacity="1" stop-color="rgb(54.472351%, 27.415466%, 53.411865%)" offset="0.804687"/><stop stop-opacity="1" stop-color="rgb(55.172729%, 28.205872%, 53.460693%)" offset="0.808594"/><stop stop-opacity="1" stop-color="rgb(55.874634%, 28.996277%, 53.511047%)" offset="0.8125"/><stop stop-opacity="1" stop-color="rgb(56.575012%, 29.786682%, 53.561401%)" offset="0.816406"/><stop stop-opacity="1" stop-color="rgb(57.275391%, 30.577087%, 53.611755%)" offset="0.820312"/><stop stop-opacity="1" stop-color="rgb(57.975769%, 31.365967%, 53.660583%)" offset="0.824219"/><stop stop-opacity="1" stop-color="rgb(58.677673%, 32.156372%, 53.710938%)" offset="0.828125"/><stop stop-opacity="1" stop-color="rgb(59.378052%, 32.946777%, 53.759766%)" offset="0.832031"/><stop stop-opacity="1" stop-color="rgb(60.07843%, 33.737183%, 53.81012%)" offset="0.835938"/><stop stop-opacity="1" stop-color="rgb(60.778809%, 34.527588%, 53.858948%)" offset="0.839844"/><stop stop-opacity="1" stop-color="rgb(61.479187%, 35.317993%, 53.909302%)" offset="0.84375"/><stop stop-opacity="1" stop-color="rgb(62.179565%, 36.108398%, 53.95813%)" offset="0.847656"/><stop stop-opacity="1" stop-color="rgb(62.88147%, 36.898804%, 54.008484%)" offset="0.851562"/><stop stop-opacity="1" stop-color="rgb(63.581848%, 37.687683%, 54.057312%)" offset="0.855469"/><stop stop-opacity="1" stop-color="rgb(64.282227%, 38.478088%, 54.107666%)" offset="0.859375"/><stop stop-opacity="1" stop-color="rgb(64.982605%, 39.268494%, 54.156494%)" offset="0.863281"/><stop stop-opacity="1" stop-color="rgb(65.684509%, 40.058899%, 54.206848%)" offset="0.867188"/><stop stop-opacity="1" stop-color="rgb(66.384888%, 40.849304%, 54.257202%)" offset="0.871094"/><stop stop-opacity="1" stop-color="rgb(67.085266%, 41.639709%, 54.307556%)" offset="0.875"/><stop stop-opacity="1" stop-color="rgb(67.785645%, 42.430115%, 54.356384%)" offset="0.878906"/><stop stop-opacity="1" stop-color="rgb(68.487549%, 43.22052%, 54.406738%)" offset="0.882812"/><stop stop-opacity="1" stop-color="rgb(69.143677%, 43.959045%, 54.452515%)" offset="0.886719"/><stop stop-opacity="1" stop-color="rgb(69.799805%, 44.699097%, 54.499817%)" offset="0.890625"/><stop stop-opacity="1" stop-color="rgb(69.799805%, 44.699097%, 54.499817%)" offset="0.90625"/><stop stop-opacity="1" stop-color="rgb(69.799805%, 44.699097%, 54.499817%)" offset="0.9375"/><stop stop-opacity="1" stop-color="rgb(69.799805%, 44.699097%, 54.499817%)" offset="1"/></linearGradient></defs><g clip-path="url(#640e3b9ed2)"><g clip-path="url(#a601f80e37)"><path fill="url(#66b9bc453e)" d="M 6.757812 5.976562 L 6.757812 23.359375 L 23.453125 23.359375 L 23.453125 5.976562 Z M 6.757812 5.976562 " fill-rule="nonzero"/></g></g><g fill="#f5e8da" fill-opacity="1"><g transform="translate(1.462068, 15.322582)"><g><path d="M 1.296875 0 L 1.21875 -0.234375 L 0.640625 -0.234375 L 0.578125 0 L 0.03125 0 L 0.625 -1.671875 L 1.25 -1.671875 L 1.859375 0 Z M 0.75 -0.609375 L 1.109375 -0.609375 L 0.9375 -1.203125 Z M 0.75 -0.609375 "/></g></g></g><g fill="#f5e8da" fill-opacity="1"><g transform="translate(3.721758, 15.322582)"><g><path d="M 1.015625 -1.6875 C 1.171875 -1.6875 1.3125 -1.660156 1.4375 -1.609375 C 1.570312 -1.566406 1.675781 -1.5 1.75 -1.40625 C 1.820312 -1.3125 1.859375 -1.195312 1.859375 -1.0625 L 1.359375 -1.0625 C 1.359375 -1.132812 1.328125 -1.191406 1.265625 -1.234375 C 1.203125 -1.273438 1.125 -1.296875 1.03125 -1.296875 C 0.90625 -1.296875 0.8125 -1.257812 0.75 -1.1875 C 0.6875 -1.125 0.65625 -1.03125 0.65625 -0.90625 L 0.65625 -0.75 C 0.65625 -0.632812 0.6875 -0.539062 0.75 -0.46875 C 0.8125 -0.40625 0.90625 -0.375 1.03125 -0.375 C 1.125 -0.375 1.203125 -0.394531 1.265625 -0.4375 C 1.328125 -0.476562 1.359375 -0.53125 1.359375 -0.59375 L 0.96875 -0.59375 L 0.96875 -0.9375 L 1.859375 -0.9375 L 1.859375 0 L 1.59375 0 L 1.53125 -0.171875 C 1.382812 -0.0351562 1.1875 0.03125 0.9375 0.03125 C 0.664062 0.03125 0.457031 -0.0390625 0.3125 -0.1875 C 0.175781 -0.332031 0.109375 -0.546875 0.109375 -0.828125 C 0.109375 -1.109375 0.1875 -1.320312 0.34375 -1.46875 C 0.5 -1.613281 0.722656 -1.6875 1.015625 -1.6875 Z M 1.015625 -1.6875 "/></g></g></g><g fill="#f5e8da" fill-opacity="1"><g transform="translate(6.114513, 15.322582)"><g><path d="M 0.171875 -1.671875 L 1.625 -1.671875 L 1.625 -1.265625 L 0.71875 -1.265625 L 0.71875 -1.03125 L 1.484375 -1.03125 L 1.484375 -0.65625 L 0.71875 -0.65625 L 0.71875 -0.40625 L 1.640625 -0.40625 L 1.640625 0 L 0.171875 0 Z M 0.171875 -1.671875 "/></g></g></g><g fill="#f5e8da" fill-opacity="1"><g transform="translate(8.238719, 15.322582)"><g><path d="M 1.375 0 L 0.671875 -0.8125 L 0.671875 0 L 0.171875 0 L 0.171875 -1.671875 L 0.640625 -1.671875 L 1.34375 -0.84375 L 1.34375 -1.671875 L 1.84375 -1.671875 L 1.84375 0 Z M 1.375 0 "/></g></g></g><g fill="#f5e8da" fill-opacity="1"><g transform="translate(10.631474, 15.322582)"><g><path d="M 0.96875 -1.6875 C 1.21875 -1.6875 1.414062 -1.625 1.5625 -1.5 C 1.707031 -1.382812 1.78125 -1.210938 1.78125 -0.984375 L 1.265625 -0.984375 C 1.265625 -1.078125 1.238281 -1.148438 1.1875 -1.203125 C 1.132812 -1.265625 1.0625 -1.296875 0.96875 -1.296875 C 0.863281 -1.296875 0.785156 -1.257812 0.734375 -1.1875 C 0.679688 -1.125 0.65625 -1.03125 0.65625 -0.90625 L 0.65625 -0.75 C 0.65625 -0.632812 0.679688 -0.539062 0.734375 -0.46875 C 0.785156 -0.40625 0.863281 -0.375 0.96875 -0.375 C 1.070312 -0.375 1.148438 -0.398438 1.203125 -0.453125 C 1.253906 -0.503906 1.28125 -0.578125 1.28125 -0.671875 L 1.78125 -0.671875 C 1.78125 -0.441406 1.707031 -0.265625 1.5625 -0.140625 C 1.425781 -0.0234375 1.226562 0.03125 0.96875 0.03125 C 0.6875 0.03125 0.472656 -0.0390625 0.328125 -0.1875 C 0.179688 -0.332031 0.109375 -0.546875 0.109375 -0.828125 C 0.109375 -1.117188 0.179688 -1.332031 0.328125 -1.46875 C 0.472656 -1.613281 0.6875 -1.6875 0.96875 -1.6875 Z M 0.96875 -1.6875 "/></g></g></g><g fill="#f5e8da" fill-opacity="1"><g transform="translate(12.891165, 15.322582)"><g><path d="M 0.171875 -1.671875 L 1.625 -1.671875 L 1.625 -1.265625 L 0.71875 -1.265625 L 0.71875 -1.03125 L 1.484375 -1.03125 L 1.484375 -0.65625 L 0.71875 -0.65625 L 0.71875 -0.40625 L 1.640625 -0.40625 L 1.640625 0 L 0.171875 0 Z M 0.171875 -1.671875 "/></g></g></g><g fill="#f5e8da" fill-opacity="1"><g transform="translate(15.015372, 15.322582)"><g/></g></g><g fill="#f5e8da" fill-opacity="1"><g transform="translate(16.198443, 15.322582)"><g><path d="M 0.171875 -1.671875 L 1.625 -1.671875 L 1.625 -1.265625 L 0.71875 -1.265625 L 0.71875 -1.03125 L 1.484375 -1.03125 L 1.484375 -0.65625 L 0.71875 -0.65625 L 0.71875 -0.40625 L 1.640625 -0.40625 L 1.640625 0 L 0.171875 0 Z M 0.171875 -1.671875 "/></g></g></g><g fill="#f5e8da" fill-opacity="1"><g transform="translate(18.32265, 15.322582)"><g><path d="M 0.96875 -1.6875 C 1.21875 -1.6875 1.414062 -1.625 1.5625 -1.5 C 1.707031 -1.382812 1.78125 -1.210938 1.78125 -0.984375 L 1.265625 -0.984375 C 1.265625 -1.078125 1.238281 -1.148438 1.1875 -1.203125 C 1.132812 -1.265625 1.0625 -1.296875 0.96875 -1.296875 C 0.863281 -1.296875 0.785156 -1.257812 0.734375 -1.1875 C 0.679688 -1.125 0.65625 -1.03125 0.65625 -0.90625 L 0.65625 -0.75 C 0.65625 -0.632812 0.679688 -0.539062 0.734375 -0.46875 C 0.785156 -0.40625 0.863281 -0.375 0.96875 -0.375 C 1.070312 -0.375 1.148438 -0.398438 1.203125 -0.453125 C 1.253906 -0.503906 1.28125 -0.578125 1.28125 -0.671875 L 1.78125 -0.671875 C 1.78125 -0.441406 1.707031 -0.265625 1.5625 -0.140625 C 1.425781 -0.0234375 1.226562 0.03125 0.96875 0.03125 C 0.6875 0.03125 0.472656 -0.0390625 0.328125 -0.1875 C 0.179688 -0.332031 0.109375 -0.546875 0.109375 -0.828125 C 0.109375 -1.117188 0.179688 -1.332031 0.328125 -1.46875 C 0.472656 -1.613281 0.6875 -1.6875 0.96875 -1.6875 Z M 0.96875 -1.6875 "/></g></g></g><g fill="#f5e8da" fill-opacity="1"><g transform="translate(20.582341, 15.322582)"><g><path d="M 0.171875 -1.671875 L 0.71875 -1.671875 L 0.71875 -0.421875 L 1.5625 -0.421875 L 1.5625 0 L 0.171875 0 Z M 0.171875 -1.671875 "/></g></g></g><g fill="#f5e8da" fill-opacity="1"><g transform="translate(22.573482, 15.322582)"><g><path d="M 1.296875 0 L 1.21875 -0.234375 L 0.640625 -0.234375 L 0.578125 0 L 0.03125 0 L 0.625 -1.671875 L 1.25 -1.671875 L 1.859375 0 Z M 0.75 -0.609375 L 1.109375 -0.609375 L 0.9375 -1.203125 Z M 0.75 -0.609375 "/></g></g></g><g fill="#f5e8da" fill-opacity="1"><g transform="translate(24.833173, 15.322582)"><g><path d="M 0.203125 0 L 0.203125 -1.671875 L 0.734375 -1.671875 L 0.734375 0 Z M 0.203125 0 "/></g></g></g><g fill="#f5e8da" fill-opacity="1"><g transform="translate(26.151728, 15.322582)"><g><path d="M 1.765625 -1.15625 C 1.765625 -1.050781 1.734375 -0.957031 1.671875 -0.875 C 1.617188 -0.789062 1.539062 -0.734375 1.4375 -0.703125 L 1.8125 0 L 1.203125 0 L 0.90625 -0.609375 L 0.71875 -0.609375 L 0.71875 0 L 0.171875 0 L 0.171875 -1.671875 L 1.203125 -1.671875 C 1.316406 -1.671875 1.414062 -1.644531 1.5 -1.59375 C 1.582031 -1.550781 1.644531 -1.488281 1.6875 -1.40625 C 1.738281 -1.332031 1.765625 -1.25 1.765625 -1.15625 Z M 1.21875 -1.140625 C 1.21875 -1.179688 1.203125 -1.210938 1.171875 -1.234375 C 1.140625 -1.265625 1.101562 -1.28125 1.0625 -1.28125 L 0.71875 -1.28125 L 0.71875 -0.984375 L 1.0625 -0.984375 C 1.101562 -0.984375 1.140625 -0.992188 1.171875 -1.015625 C 1.203125 -1.046875 1.21875 -1.085938 1.21875 -1.140625 Z M 1.21875 -1.140625 "/></g></g></g></svg>