<svg xmlns="http://www.w3.org/2000/svg" xmlns:xlink="http://www.w3.org/1999/xlink" width="40" zoomAndPan="magnify" viewBox="0 0 30 30.000001" height="40" preserveAspectRatio="xMidYMid meet" version="1.0"><defs><g/><clipPath id="d0ef426b95"><path d="M 4.488281 3.609375 L 25.539062 3.609375 L 25.539062 25.382812 L 4.488281 25.382812 Z M 4.488281 3.609375 " clip-rule="nonzero"/></clipPath><clipPath id="1537a5e0d7"><path d="M 8.613281 17.230469 C 8.613281 17.230469 12.132812 9.613281 17.242188 3.878906 C 16.589844 3.738281 15.933594 3.65625 15.265625 3.640625 C 14.601562 3.625 13.941406 3.667969 13.285156 3.777344 C 12.628906 3.882812 11.988281 4.054688 11.363281 4.28125 C 10.738281 4.511719 10.140625 4.796875 9.570312 5.136719 C 9 5.480469 8.464844 5.871094 7.96875 6.316406 C 7.472656 6.757812 7.023438 7.242188 6.621094 7.769531 C 6.21875 8.296875 5.867188 8.859375 5.570312 9.453125 C 5.273438 10.046875 5.035156 10.664062 4.859375 11.300781 C 4.679688 11.941406 4.5625 12.589844 4.503906 13.253906 C 4.449219 13.914062 4.457031 14.574219 4.527344 15.234375 C 4.597656 15.894531 4.730469 16.542969 4.921875 17.175781 C 5.117188 17.8125 5.367188 18.421875 5.675781 19.007812 C 5.984375 19.597656 6.347656 20.148438 6.761719 20.667969 C 7.179688 21.1875 7.636719 21.664062 8.144531 22.09375 C 8.648438 22.527344 9.191406 22.90625 9.769531 23.238281 C 10.34375 23.566406 10.949219 23.839844 11.578125 24.054688 L 11.402344 25.324219 L 11.605469 25.351562 L 12.144531 23.992188 C 12.992188 21.910156 14.417969 18.703125 15.976562 16.421875 C 15.976562 16.421875 11.804688 16.304688 8.613281 17.230469 Z M 22.691406 6.953125 C 20.578125 8.441406 17.972656 10.699219 15.867188 13.820312 C 15.867188 13.820312 21.601562 13.070312 23.925781 12.953125 C 23.925781 12.953125 17.347656 18.597656 12.667969 24.363281 C 13.214844 24.488281 13.769531 24.566406 14.328125 24.605469 C 14.886719 24.640625 15.445312 24.632812 16.003906 24.582031 C 16.558594 24.527344 17.109375 24.433594 17.652344 24.292969 C 18.195312 24.152344 18.722656 23.96875 19.238281 23.746094 C 19.75 23.523438 20.242188 23.257812 20.714844 22.957031 C 21.183594 22.65625 21.628906 22.316406 22.046875 21.945312 C 22.460938 21.570312 22.847656 21.167969 23.199219 20.734375 C 23.550781 20.300781 23.867188 19.839844 24.144531 19.355469 C 24.425781 18.871094 24.664062 18.367188 24.863281 17.847656 C 25.058594 17.324219 25.214844 16.789062 25.328125 16.242188 C 25.441406 15.695312 25.507812 15.140625 25.53125 14.585938 C 25.558594 14.027344 25.535156 13.46875 25.472656 12.914062 C 25.40625 12.359375 25.296875 11.816406 25.144531 11.277344 C 24.992188 10.738281 24.796875 10.21875 24.5625 9.710938 C 24.324219 9.207031 24.050781 8.722656 23.738281 8.257812 C 23.421875 7.796875 23.074219 7.359375 22.691406 6.953125 Z M 22.691406 6.953125 " clip-rule="nonzero"/></clipPath><linearGradient x1="-20.237746" gradientTransform="matrix(0.0989163, 0, 0, 0.0986023, 4.490225, 3.64321)" y1="30.872881" x2="229.956026" gradientUnits="userSpaceOnUse" y2="193.82327" id="7147bf8b7e"><stop stop-opacity="1" stop-color="rgb(92.199707%, 63.899231%, 15.299988%)" offset="0"/><stop stop-opacity="1" stop-color="rgb(92.199707%, 63.899231%, 15.299988%)" offset="0.125"/><stop stop-opacity="1" stop-color="rgb(92.199707%, 63.899231%, 15.299988%)" offset="0.140625"/><stop stop-opacity="1" stop-color="rgb(92.251587%, 63.955688%, 15.209961%)" offset="0.148438"/><stop stop-opacity="1" stop-color="rgb(92.474365%, 64.202881%, 14.830017%)" offset="0.152344"/><stop stop-opacity="1" stop-color="rgb(92.645264%, 64.39209%, 14.538574%)" offset="0.15625"/><stop stop-opacity="1" stop-color="rgb(92.816162%, 64.579773%, 14.245605%)" offset="0.160156"/><stop stop-opacity="1" stop-color="rgb(92.987061%, 64.768982%, 13.954163%)" offset="0.164062"/><stop stop-opacity="1" stop-color="rgb(93.157959%, 64.956665%, 13.66272%)" offset="0.167969"/><stop stop-opacity="1" stop-color="rgb(93.330383%, 65.145874%, 13.371277%)" offset="0.171875"/><stop stop-opacity="1" stop-color="rgb(93.501282%, 65.333557%, 13.079834%)" offset="0.175781"/><stop stop-opacity="1" stop-color="rgb(93.67218%, 65.522766%, 12.788391%)" offset="0.179688"/><stop stop-opacity="1" stop-color="rgb(93.843079%, 65.710449%, 12.496948%)" offset="0.183594"/><stop stop-opacity="1" stop-color="rgb(94.013977%, 65.899658%, 12.205505%)" offset="0.1875"/><stop stop-opacity="1" stop-color="rgb(94.184875%, 66.087341%, 11.914062%)" offset="0.191406"/><stop stop-opacity="1" stop-color="rgb(94.355774%, 66.27655%, 11.62262%)" offset="0.195312"/><stop stop-opacity="1" stop-color="rgb(94.526672%, 66.464233%, 11.329651%)" offset="0.199219"/><stop stop-opacity="1" stop-color="rgb(94.697571%, 66.653442%, 11.038208%)" offset="0.203125"/><stop stop-opacity="1" stop-color="rgb(94.868469%, 66.842651%, 10.746765%)" offset="0.207031"/><stop stop-opacity="1" stop-color="rgb(95.039368%, 67.03186%, 10.455322%)" offset="0.210938"/><stop stop-opacity="1" stop-color="rgb(95.210266%, 67.219543%, 10.163879%)" offset="0.214844"/><stop stop-opacity="1" stop-color="rgb(95.38269%, 67.408752%, 9.872437%)" offset="0.21875"/><stop stop-opacity="1" stop-color="rgb(95.553589%, 67.596436%, 9.580994%)" offset="0.222656"/><stop stop-opacity="1" stop-color="rgb(95.724487%, 67.785645%, 9.289551%)" offset="0.226562"/><stop stop-opacity="1" stop-color="rgb(95.895386%, 67.973328%, 8.996582%)" offset="0.230469"/><stop stop-opacity="1" stop-color="rgb(96.066284%, 68.162537%, 8.705139%)" offset="0.234375"/><stop stop-opacity="1" stop-color="rgb(96.237183%, 68.35022%, 8.413696%)" offset="0.238281"/><stop stop-opacity="1" stop-color="rgb(96.408081%, 68.539429%, 8.122253%)" offset="0.242188"/><stop stop-opacity="1" stop-color="rgb(96.578979%, 68.727112%, 7.830811%)" offset="0.246094"/><stop stop-opacity="1" stop-color="rgb(96.749878%, 68.916321%, 7.539368%)" offset="0.25"/><stop stop-opacity="1" stop-color="rgb(96.920776%, 69.10553%, 7.247925%)" offset="0.253906"/><stop stop-opacity="1" stop-color="rgb(97.091675%, 69.294739%, 6.956482%)" offset="0.257812"/><stop stop-opacity="1" stop-color="rgb(97.262573%, 69.482422%, 6.665039%)" offset="0.261719"/><stop stop-opacity="1" stop-color="rgb(97.433472%, 69.671631%, 6.373596%)" offset="0.265625"/><stop stop-opacity="1" stop-color="rgb(97.60437%, 69.859314%, 6.080627%)" offset="0.269531"/><stop stop-opacity="1" stop-color="rgb(97.776794%, 70.048523%, 5.789185%)" offset="0.273438"/><stop stop-opacity="1" stop-color="rgb(97.947693%, 70.236206%, 5.497742%)" offset="0.277344"/><stop stop-opacity="1" stop-color="rgb(98.118591%, 70.425415%, 5.206299%)" offset="0.28125"/><stop stop-opacity="1" stop-color="rgb(98.28949%, 70.613098%, 4.914856%)" offset="0.285156"/><stop stop-opacity="1" stop-color="rgb(98.460388%, 70.802307%, 4.623413%)" offset="0.289063"/><stop stop-opacity="1" stop-color="rgb(98.631287%, 70.98999%, 4.33197%)" offset="0.292969"/><stop stop-opacity="1" stop-color="rgb(98.802185%, 71.179199%, 4.040527%)" offset="0.296875"/><stop stop-opacity="1" stop-color="rgb(98.973083%, 71.366882%, 3.747559%)" offset="0.300781"/><stop stop-opacity="1" stop-color="rgb(99.143982%, 71.556091%, 3.456116%)" offset="0.304688"/><stop stop-opacity="1" stop-color="rgb(99.31488%, 71.7453%, 3.164673%)" offset="0.308594"/><stop stop-opacity="1" stop-color="rgb(99.485779%, 71.934509%, 2.87323%)" offset="0.3125"/><stop stop-opacity="1" stop-color="rgb(99.656677%, 72.122192%, 2.581787%)" offset="0.316406"/><stop stop-opacity="1" stop-color="rgb(99.829102%, 72.311401%, 2.290344%)" offset="0.320313"/><stop stop-opacity="1" stop-color="rgb(99.848938%, 72.24884%, 2.192688%)" offset="0.328125"/><stop stop-opacity="1" stop-color="rgb(99.737549%, 71.876526%, 2.194214%)" offset="0.332031"/><stop stop-opacity="1" stop-color="rgb(99.606323%, 71.566772%, 2.29187%)" offset="0.335938"/><stop stop-opacity="1" stop-color="rgb(99.475098%, 71.255493%, 2.389526%)" offset="0.339844"/><stop stop-opacity="1" stop-color="rgb(99.343872%, 70.94574%, 2.487183%)" offset="0.34375"/><stop stop-opacity="1" stop-color="rgb(99.212646%, 70.63446%, 2.584839%)" offset="0.347656"/><stop stop-opacity="1" stop-color="rgb(99.082947%, 70.324707%, 2.682495%)" offset="0.351563"/><stop stop-opacity="1" stop-color="rgb(98.951721%, 70.013428%, 2.778625%)" offset="0.355469"/><stop stop-opacity="1" stop-color="rgb(98.820496%, 69.703674%, 2.876282%)" offset="0.359375"/><stop stop-opacity="1" stop-color="rgb(98.68927%, 69.392395%, 2.973938%)" offset="0.363281"/><stop stop-opacity="1" stop-color="rgb(98.558044%, 69.082642%, 3.071594%)" offset="0.367188"/><stop stop-opacity="1" stop-color="rgb(98.426819%, 68.771362%, 3.16925%)" offset="0.371094"/><stop stop-opacity="1" stop-color="rgb(98.297119%, 68.460083%, 3.266907%)" offset="0.375"/><stop stop-opacity="1" stop-color="rgb(98.165894%, 68.148804%, 3.364563%)" offset="0.378906"/><stop stop-opacity="1" stop-color="rgb(98.034668%, 67.83905%, 3.462219%)" offset="0.382813"/><stop stop-opacity="1" stop-color="rgb(97.903442%, 67.527771%, 3.55835%)" offset="0.386719"/><stop stop-opacity="1" stop-color="rgb(97.773743%, 67.218018%, 3.656006%)" offset="0.390625"/><stop stop-opacity="1" stop-color="rgb(97.642517%, 66.906738%, 3.753662%)" offset="0.394531"/><stop stop-opacity="1" stop-color="rgb(97.511292%, 66.596985%, 3.851318%)" offset="0.398438"/><stop stop-opacity="1" stop-color="rgb(97.380066%, 66.285706%, 3.948975%)" offset="0.402344"/><stop stop-opacity="1" stop-color="rgb(97.24884%, 65.975952%, 4.046631%)" offset="0.40625"/><stop stop-opacity="1" stop-color="rgb(97.117615%, 65.664673%, 4.144287%)" offset="0.410156"/><stop stop-opacity="1" stop-color="rgb(96.987915%, 65.354919%, 4.241943%)" offset="0.414063"/><stop stop-opacity="1" stop-color="rgb(96.856689%, 65.04364%, 4.3396%)" offset="0.417969"/><stop stop-opacity="1" stop-color="rgb(96.725464%, 64.733887%, 4.437256%)" offset="0.421875"/><stop stop-opacity="1" stop-color="rgb(96.594238%, 64.422607%, 4.533386%)" offset="0.425781"/><stop stop-opacity="1" stop-color="rgb(96.463013%, 64.111328%, 4.631042%)" offset="0.429688"/><stop stop-opacity="1" stop-color="rgb(96.331787%, 63.800049%, 4.728699%)" offset="0.433594"/><stop stop-opacity="1" stop-color="rgb(96.202087%, 63.490295%, 4.826355%)" offset="0.4375"/><stop stop-opacity="1" stop-color="rgb(96.070862%, 63.179016%, 4.924011%)" offset="0.441406"/><stop stop-opacity="1" stop-color="rgb(95.939636%, 62.869263%, 5.021667%)" offset="0.445313"/><stop stop-opacity="1" stop-color="rgb(95.808411%, 62.557983%, 5.119324%)" offset="0.449219"/><stop stop-opacity="1" stop-color="rgb(95.678711%, 62.24823%, 5.21698%)" offset="0.453125"/><stop stop-opacity="1" stop-color="rgb(95.547485%, 61.936951%, 5.31311%)" offset="0.457031"/><stop stop-opacity="1" stop-color="rgb(95.41626%, 61.627197%, 5.410767%)" offset="0.460938"/><stop stop-opacity="1" stop-color="rgb(95.285034%, 61.315918%, 5.508423%)" offset="0.464844"/><stop stop-opacity="1" stop-color="rgb(95.153809%, 61.006165%, 5.606079%)" offset="0.46875"/><stop stop-opacity="1" stop-color="rgb(95.022583%, 60.694885%, 5.703735%)" offset="0.472656"/><stop stop-opacity="1" stop-color="rgb(94.892883%, 60.385132%, 5.801392%)" offset="0.476563"/><stop stop-opacity="1" stop-color="rgb(94.761658%, 60.073853%, 5.899048%)" offset="0.480469"/><stop stop-opacity="1" stop-color="rgb(94.630432%, 59.764099%, 5.996704%)" offset="0.484375"/><stop stop-opacity="1" stop-color="rgb(94.499207%, 59.45282%, 6.09436%)" offset="0.488281"/><stop stop-opacity="1" stop-color="rgb(94.367981%, 59.141541%, 6.192017%)" offset="0.492188"/><stop stop-opacity="1" stop-color="rgb(94.236755%, 58.830261%, 6.288147%)" offset="0.496094"/><stop stop-opacity="1" stop-color="rgb(94.107056%, 58.520508%, 6.385803%)" offset="0.5"/><stop stop-opacity="1" stop-color="rgb(93.97583%, 58.209229%, 6.483459%)" offset="0.503906"/><stop stop-opacity="1" stop-color="rgb(93.844604%, 57.899475%, 6.581116%)" offset="0.507812"/><stop stop-opacity="1" stop-color="rgb(93.713379%, 57.588196%, 6.678772%)" offset="0.511719"/><stop stop-opacity="1" stop-color="rgb(93.583679%, 57.278442%, 6.776428%)" offset="0.515625"/><stop stop-opacity="1" stop-color="rgb(93.452454%, 56.967163%, 6.874084%)" offset="0.519531"/><stop stop-opacity="1" stop-color="rgb(93.321228%, 56.65741%, 6.971741%)" offset="0.523438"/><stop stop-opacity="1" stop-color="rgb(93.190002%, 56.34613%, 7.067871%)" offset="0.527344"/><stop stop-opacity="1" stop-color="rgb(93.058777%, 56.036377%, 7.165527%)" offset="0.53125"/><stop stop-opacity="1" stop-color="rgb(92.927551%, 55.725098%, 7.263184%)" offset="0.535156"/><stop stop-opacity="1" stop-color="rgb(92.797852%, 55.415344%, 7.36084%)" offset="0.539063"/><stop stop-opacity="1" stop-color="rgb(92.666626%, 55.104065%, 7.458496%)" offset="0.542969"/><stop stop-opacity="1" stop-color="rgb(92.5354%, 54.794312%, 7.556152%)" offset="0.546875"/><stop stop-opacity="1" stop-color="rgb(92.404175%, 54.483032%, 7.653809%)" offset="0.550781"/><stop stop-opacity="1" stop-color="rgb(92.274475%, 54.171753%, 7.751465%)" offset="0.554687"/><stop stop-opacity="1" stop-color="rgb(92.14325%, 53.860474%, 7.849121%)" offset="0.558594"/><stop stop-opacity="1" stop-color="rgb(92.012024%, 53.55072%, 7.946777%)" offset="0.5625"/><stop stop-opacity="1" stop-color="rgb(91.880798%, 53.239441%, 8.042908%)" offset="0.566406"/><stop stop-opacity="1" stop-color="rgb(91.749573%, 52.929688%, 8.140564%)" offset="0.570312"/><stop stop-opacity="1" stop-color="rgb(91.618347%, 52.618408%, 8.23822%)" offset="0.574219"/><stop stop-opacity="1" stop-color="rgb(91.488647%, 52.308655%, 8.335876%)" offset="0.578125"/><stop stop-opacity="1" stop-color="rgb(91.357422%, 51.997375%, 8.433533%)" offset="0.582031"/><stop stop-opacity="1" stop-color="rgb(91.226196%, 51.687622%, 8.531189%)" offset="0.585937"/><stop stop-opacity="1" stop-color="rgb(91.094971%, 51.376343%, 8.628845%)" offset="0.589844"/><stop stop-opacity="1" stop-color="rgb(90.963745%, 51.066589%, 8.726501%)" offset="0.59375"/><stop stop-opacity="1" stop-color="rgb(90.83252%, 50.75531%, 8.822632%)" offset="0.597656"/><stop stop-opacity="1" stop-color="rgb(90.70282%, 50.445557%, 8.920288%)" offset="0.601562"/><stop stop-opacity="1" stop-color="rgb(90.571594%, 50.134277%, 9.017944%)" offset="0.605469"/><stop stop-opacity="1" stop-color="rgb(90.440369%, 49.824524%, 9.115601%)" offset="0.609375"/><stop stop-opacity="1" stop-color="rgb(90.309143%, 49.513245%, 9.213257%)" offset="0.613281"/><stop stop-opacity="1" stop-color="rgb(90.179443%, 49.201965%, 9.310913%)" offset="0.617188"/><stop stop-opacity="1" stop-color="rgb(90.048218%, 48.890686%, 9.408569%)" offset="0.621094"/><stop stop-opacity="1" stop-color="rgb(89.916992%, 48.580933%, 9.506226%)" offset="0.625"/><stop stop-opacity="1" stop-color="rgb(89.785767%, 48.269653%, 9.602356%)" offset="0.628906"/><stop stop-opacity="1" stop-color="rgb(89.654541%, 47.9599%, 9.700012%)" offset="0.632812"/><stop stop-opacity="1" stop-color="rgb(89.523315%, 47.648621%, 9.797668%)" offset="0.636719"/><stop stop-opacity="1" stop-color="rgb(89.393616%, 47.338867%, 9.895325%)" offset="0.640625"/><stop stop-opacity="1" stop-color="rgb(89.26239%, 47.027588%, 9.992981%)" offset="0.644531"/><stop stop-opacity="1" stop-color="rgb(89.131165%, 46.717834%, 10.090637%)" offset="0.648438"/><stop stop-opacity="1" stop-color="rgb(88.999939%, 46.406555%, 10.188293%)" offset="0.652344"/><stop stop-opacity="1" stop-color="rgb(88.868713%, 46.096802%, 10.28595%)" offset="0.65625"/><stop stop-opacity="1" stop-color="rgb(88.737488%, 45.785522%, 10.383606%)" offset="0.660156"/><stop stop-opacity="1" stop-color="rgb(88.607788%, 45.475769%, 10.481262%)" offset="0.664063"/><stop stop-opacity="1" stop-color="rgb(88.476562%, 45.16449%, 10.577393%)" offset="0.667969"/><stop stop-opacity="1" stop-color="rgb(88.345337%, 44.85321%, 10.675049%)" offset="0.671875"/><stop stop-opacity="1" stop-color="rgb(88.214111%, 44.541931%, 10.772705%)" offset="0.675781"/><stop stop-opacity="1" stop-color="rgb(88.084412%, 44.232178%, 10.870361%)" offset="0.679688"/><stop stop-opacity="1" stop-color="rgb(87.953186%, 43.920898%, 10.968018%)" offset="0.683594"/><stop stop-opacity="1" stop-color="rgb(87.82196%, 43.611145%, 11.065674%)" offset="0.6875"/><stop stop-opacity="1" stop-color="rgb(87.690735%, 43.299866%, 11.16333%)" offset="0.691406"/><stop stop-opacity="1" stop-color="rgb(87.559509%, 42.990112%, 11.260986%)" offset="0.695312"/><stop stop-opacity="1" stop-color="rgb(87.428284%, 42.678833%, 11.357117%)" offset="0.699219"/><stop stop-opacity="1" stop-color="rgb(87.298584%, 42.36908%, 11.454773%)" offset="0.703125"/><stop stop-opacity="1" stop-color="rgb(87.167358%, 42.0578%, 11.552429%)" offset="0.707031"/><stop stop-opacity="1" stop-color="rgb(87.036133%, 41.748047%, 11.650085%)" offset="0.710937"/><stop stop-opacity="1" stop-color="rgb(86.904907%, 41.436768%, 11.747742%)" offset="0.714844"/><stop stop-opacity="1" stop-color="rgb(86.773682%, 41.127014%, 11.845398%)" offset="0.71875"/><stop stop-opacity="1" stop-color="rgb(86.642456%, 40.815735%, 11.943054%)" offset="0.722656"/><stop stop-opacity="1" stop-color="rgb(86.512756%, 40.505981%, 12.04071%)" offset="0.726562"/><stop stop-opacity="1" stop-color="rgb(86.433411%, 40.362549%, 12.133789%)" offset="0.734375"/><stop stop-opacity="1" stop-color="rgb(86.500549%, 40.812683%, 12.304688%)" offset="0.738281"/><stop stop-opacity="1" stop-color="rgb(86.647034%, 41.407776%, 12.382507%)" offset="0.742188"/><stop stop-opacity="1" stop-color="rgb(86.793518%, 42.001343%, 12.458801%)" offset="0.746094"/><stop stop-opacity="1" stop-color="rgb(86.940002%, 42.59491%, 12.536621%)" offset="0.75"/><stop stop-opacity="1" stop-color="rgb(87.086487%, 43.188477%, 12.612915%)" offset="0.753906"/><stop stop-opacity="1" stop-color="rgb(87.232971%, 43.782043%, 12.690735%)" offset="0.757812"/><stop stop-opacity="1" stop-color="rgb(87.379456%, 44.37561%, 12.767029%)" offset="0.761719"/><stop stop-opacity="1" stop-color="rgb(87.52594%, 44.970703%, 12.843323%)" offset="0.765625"/><stop stop-opacity="1" stop-color="rgb(87.672424%, 45.56427%, 12.919617%)" offset="0.769531"/><stop stop-opacity="1" stop-color="rgb(87.820435%, 46.157837%, 12.997437%)" offset="0.773438"/><stop stop-opacity="1" stop-color="rgb(87.966919%, 46.751404%, 13.07373%)" offset="0.777344"/><stop stop-opacity="1" stop-color="rgb(88.113403%, 47.346497%, 13.15155%)" offset="0.78125"/><stop stop-opacity="1" stop-color="rgb(88.259888%, 47.940063%, 13.227844%)" offset="0.785156"/><stop stop-opacity="1" stop-color="rgb(88.406372%, 48.53363%, 13.305664%)" offset="0.789063"/><stop stop-opacity="1" stop-color="rgb(88.552856%, 49.127197%, 13.381958%)" offset="0.792969"/><stop stop-opacity="1" stop-color="rgb(88.699341%, 49.72229%, 13.459778%)" offset="0.796875"/><stop stop-opacity="1" stop-color="rgb(88.845825%, 50.315857%, 13.536072%)" offset="0.800781"/><stop stop-opacity="1" stop-color="rgb(88.99231%, 50.909424%, 13.613892%)" offset="0.804688"/><stop stop-opacity="1" stop-color="rgb(89.138794%, 51.502991%, 13.690186%)" offset="0.808594"/><stop stop-opacity="1" stop-color="rgb(89.285278%, 52.098083%, 13.768005%)" offset="0.8125"/><stop stop-opacity="1" stop-color="rgb(89.431763%, 52.69165%, 13.844299%)" offset="0.816406"/><stop stop-opacity="1" stop-color="rgb(89.579773%, 53.285217%, 13.922119%)" offset="0.820313"/><stop stop-opacity="1" stop-color="rgb(89.726257%, 53.878784%, 13.998413%)" offset="0.824219"/><stop stop-opacity="1" stop-color="rgb(89.872742%, 54.472351%, 14.076233%)" offset="0.828125"/><stop stop-opacity="1" stop-color="rgb(90.019226%, 55.065918%, 14.152527%)" offset="0.832031"/><stop stop-opacity="1" stop-color="rgb(90.16571%, 55.661011%, 14.230347%)" offset="0.835938"/><stop stop-opacity="1" stop-color="rgb(90.312195%, 56.254578%, 14.306641%)" offset="0.839844"/><stop stop-opacity="1" stop-color="rgb(90.458679%, 56.848145%, 14.38446%)" offset="0.84375"/><stop stop-opacity="1" stop-color="rgb(90.605164%, 57.441711%, 14.460754%)" offset="0.847656"/><stop stop-opacity="1" stop-color="rgb(90.751648%, 58.036804%, 14.538574%)" offset="0.851562"/><stop stop-opacity="1" stop-color="rgb(90.898132%, 58.630371%, 14.614868%)" offset="0.855469"/><stop stop-opacity="1" stop-color="rgb(91.044617%, 59.223938%, 14.692688%)" offset="0.859375"/><stop stop-opacity="1" stop-color="rgb(91.191101%, 59.817505%, 14.768982%)" offset="0.863281"/><stop stop-opacity="1" stop-color="rgb(91.337585%, 60.412598%, 14.846802%)" offset="0.867187"/><stop stop-opacity="1" stop-color="rgb(91.48407%, 61.006165%, 14.923096%)" offset="0.871094"/><stop stop-opacity="1" stop-color="rgb(91.63208%, 61.599731%, 15.000916%)" offset="0.875"/><stop stop-opacity="1" stop-color="rgb(91.778564%, 62.193298%, 15.077209%)" offset="0.878906"/><stop stop-opacity="1" stop-color="rgb(91.925049%, 62.786865%, 15.155029%)" offset="0.882812"/><stop stop-opacity="1" stop-color="rgb(92.062378%, 63.342285%, 15.226746%)" offset="0.886719"/><stop stop-opacity="1" stop-color="rgb(92.199707%, 63.899231%, 15.299988%)" offset="0.890625"/><stop stop-opacity="1" stop-color="rgb(92.199707%, 63.899231%, 15.299988%)" offset="0.90625"/><stop stop-opacity="1" stop-color="rgb(92.199707%, 63.899231%, 15.299988%)" offset="0.9375"/><stop stop-opacity="1" stop-color="rgb(92.199707%, 63.899231%, 15.299988%)" offset="1"/></linearGradient></defs><g clip-path="url(#d0ef426b95)"><g clip-path="url(#1537a5e0d7)"><path fill="url(#7147bf8b7e)" d="M 4.488281 3.625 L 4.488281 25.351562 L 25.539062 25.351562 L 25.539062 3.625 Z M 4.488281 3.625 " fill-rule="nonzero"/></g></g><g fill="#f5e8da" fill-opacity="0.4"><g transform="translate(2.097742, 15.59626)"><g><path d="M 0.25 -0.328125 L 1.125 -2.78125 L 1.734375 -2.78125 L 2.59375 -0.3125 L 2.859375 -0.25 L 2.859375 0 L 1.640625 0 L 1.640625 -0.25 L 1.875 -0.328125 L 1.796875 -0.609375 L 0.828125 -0.609375 L 0.75 -0.328125 L 1.015625 -0.25 L 1.015625 0 L 0 0 L 0 -0.25 Z M 1.46875 -1.75 L 1.328125 -2.25 L 0.921875 -0.9375 L 1.703125 -0.9375 Z M 1.46875 -1.75 "/></g></g></g><g fill="#f5e8da" fill-opacity="0.4"><g transform="translate(4.965193, 15.59626)"><g><path d="M 1.109375 -2.0625 C 1.378906 -2.0625 1.585938 -2.003906 1.734375 -1.890625 C 1.796875 -2.003906 1.929688 -2.0625 2.140625 -2.0625 L 2.296875 -2.0625 L 2.296875 -1.625 L 1.921875 -1.625 C 1.941406 -1.5625 1.953125 -1.488281 1.953125 -1.40625 C 1.953125 -1.164062 1.867188 -0.984375 1.703125 -0.859375 C 1.535156 -0.742188 1.3125 -0.6875 1.03125 -0.6875 C 0.914062 -0.6875 0.8125 -0.695312 0.71875 -0.71875 C 0.695312 -0.675781 0.6875 -0.632812 0.6875 -0.59375 C 0.6875 -0.519531 0.707031 -0.46875 0.75 -0.4375 C 0.789062 -0.40625 0.859375 -0.390625 0.953125 -0.390625 L 1.375 -0.390625 C 1.570312 -0.390625 1.734375 -0.367188 1.859375 -0.328125 C 1.984375 -0.296875 2.078125 -0.238281 2.140625 -0.15625 C 2.203125 -0.0703125 2.234375 0.046875 2.234375 0.203125 C 2.234375 0.359375 2.175781 0.492188 2.0625 0.609375 C 1.957031 0.722656 1.8125 0.804688 1.625 0.859375 C 1.445312 0.921875 1.253906 0.953125 1.046875 0.953125 C 0.765625 0.953125 0.539062 0.910156 0.375 0.828125 C 0.207031 0.742188 0.125 0.609375 0.125 0.421875 C 0.125 0.316406 0.148438 0.222656 0.203125 0.140625 C 0.265625 0.0546875 0.335938 -0.0078125 0.421875 -0.0625 C 0.347656 -0.09375 0.296875 -0.132812 0.265625 -0.1875 C 0.242188 -0.238281 0.234375 -0.3125 0.234375 -0.40625 C 0.234375 -0.457031 0.253906 -0.519531 0.296875 -0.59375 C 0.347656 -0.675781 0.40625 -0.742188 0.46875 -0.796875 C 0.238281 -0.910156 0.125 -1.09375 0.125 -1.34375 C 0.125 -1.5 0.164062 -1.628906 0.25 -1.734375 C 0.34375 -1.847656 0.460938 -1.929688 0.609375 -1.984375 C 0.765625 -2.035156 0.929688 -2.0625 1.109375 -2.0625 Z M 1.046875 -1.8125 C 0.953125 -1.8125 0.875 -1.78125 0.8125 -1.71875 C 0.757812 -1.664062 0.734375 -1.585938 0.734375 -1.484375 C 0.734375 -1.328125 0.757812 -1.203125 0.8125 -1.109375 C 0.863281 -1.023438 0.953125 -0.984375 1.078125 -0.984375 C 1.179688 -0.984375 1.253906 -1.019531 1.296875 -1.09375 C 1.347656 -1.175781 1.375 -1.273438 1.375 -1.390625 C 1.375 -1.523438 1.34375 -1.628906 1.28125 -1.703125 C 1.226562 -1.773438 1.148438 -1.8125 1.046875 -1.8125 Z M 0.71875 0 C 0.675781 0.0625 0.65625 0.144531 0.65625 0.25 C 0.65625 0.382812 0.703125 0.488281 0.796875 0.5625 C 0.890625 0.632812 1.007812 0.671875 1.15625 0.671875 C 1.332031 0.671875 1.457031 0.644531 1.53125 0.59375 C 1.613281 0.550781 1.65625 0.46875 1.65625 0.34375 C 1.65625 0.207031 1.625 0.113281 1.5625 0.0625 C 1.5 0.0195312 1.394531 0 1.25 0 L 0.9375 0 C 0.832031 0 0.757812 0 0.71875 0 Z M 0.71875 0 "/></g></g></g><g fill="#f5e8da" fill-opacity="0.4"><g transform="translate(7.252546, 15.59626)"><g><path d="M 1.234375 -2.0625 C 1.503906 -2.0625 1.707031 -1.992188 1.84375 -1.859375 C 1.988281 -1.722656 2.0625 -1.523438 2.0625 -1.265625 C 2.0625 -1.160156 2.054688 -1.054688 2.046875 -0.953125 L 0.796875 -0.953125 C 0.804688 -0.734375 0.859375 -0.570312 0.953125 -0.46875 C 1.046875 -0.363281 1.179688 -0.3125 1.359375 -0.3125 C 1.554688 -0.3125 1.75 -0.347656 1.9375 -0.421875 L 2.03125 -0.203125 C 1.9375 -0.117188 1.804688 -0.0546875 1.640625 -0.015625 C 1.484375 0.0234375 1.332031 0.046875 1.1875 0.046875 C 0.84375 0.046875 0.578125 -0.0351562 0.390625 -0.203125 C 0.210938 -0.378906 0.125 -0.628906 0.125 -0.953125 C 0.125 -1.171875 0.171875 -1.363281 0.265625 -1.53125 C 0.359375 -1.695312 0.488281 -1.828125 0.65625 -1.921875 C 0.820312 -2.015625 1.015625 -2.0625 1.234375 -2.0625 Z M 1.171875 -1.8125 C 0.953125 -1.8125 0.828125 -1.617188 0.796875 -1.234375 L 1.453125 -1.234375 C 1.460938 -1.328125 1.46875 -1.40625 1.46875 -1.46875 C 1.46875 -1.695312 1.367188 -1.8125 1.171875 -1.8125 Z M 1.171875 -1.8125 "/></g></g></g><g fill="#f5e8da" fill-opacity="0.4"><g transform="translate(9.473811, 15.59626)"><g><path d="M 0.390625 -0.296875 L 0.390625 -1.46875 L 0.15625 -1.640625 L 0.15625 -1.859375 L 0.8125 -2.0625 L 0.953125 -2.03125 L 0.953125 -1.765625 C 1.046875 -1.859375 1.160156 -1.929688 1.296875 -1.984375 C 1.441406 -2.035156 1.578125 -2.0625 1.703125 -2.0625 C 1.921875 -2.0625 2.070312 -1.992188 2.15625 -1.859375 C 2.25 -1.722656 2.296875 -1.519531 2.296875 -1.25 L 2.296875 -0.296875 L 2.546875 -0.25 L 2.546875 0 L 1.40625 0 L 1.40625 -0.25 L 1.65625 -0.296875 L 1.65625 -1.171875 C 1.65625 -1.304688 1.644531 -1.40625 1.625 -1.46875 C 1.613281 -1.53125 1.582031 -1.578125 1.53125 -1.609375 C 1.476562 -1.640625 1.398438 -1.65625 1.296875 -1.65625 C 1.265625 -1.65625 1.21875 -1.644531 1.15625 -1.625 C 1.09375 -1.601562 1.050781 -1.582031 1.03125 -1.5625 L 1.03125 -0.296875 L 1.25 -0.25 L 1.25 0 L 0.171875 0 L 0.171875 -0.25 Z M 0.390625 -0.296875 "/></g></g></g><g fill="#f5e8da" fill-opacity="0.4"><g transform="translate(12.102611, 15.59626)"><g><path d="M 1.3125 -2.0625 C 1.414062 -2.0625 1.523438 -2.050781 1.640625 -2.03125 C 1.765625 -2.019531 1.851562 -2 1.90625 -1.96875 L 1.90625 -1.40625 L 1.578125 -1.40625 L 1.4375 -1.734375 C 1.382812 -1.765625 1.304688 -1.78125 1.203125 -1.78125 C 1.066406 -1.78125 0.960938 -1.710938 0.890625 -1.578125 C 0.828125 -1.441406 0.796875 -1.269531 0.796875 -1.0625 C 0.796875 -0.832031 0.84375 -0.648438 0.9375 -0.515625 C 1.039062 -0.378906 1.1875 -0.3125 1.375 -0.3125 C 1.46875 -0.3125 1.5625 -0.320312 1.65625 -0.34375 C 1.75 -0.363281 1.820312 -0.390625 1.875 -0.421875 L 1.96875 -0.203125 C 1.875 -0.117188 1.753906 -0.0546875 1.609375 -0.015625 C 1.472656 0.0234375 1.3125 0.046875 1.125 0.046875 C 0.925781 0.046875 0.75 0.00390625 0.59375 -0.078125 C 0.445312 -0.160156 0.332031 -0.273438 0.25 -0.421875 C 0.175781 -0.578125 0.140625 -0.753906 0.140625 -0.953125 C 0.140625 -1.171875 0.1875 -1.363281 0.28125 -1.53125 C 0.382812 -1.695312 0.523438 -1.828125 0.703125 -1.921875 C 0.878906 -2.015625 1.082031 -2.0625 1.3125 -2.0625 Z M 1.3125 -2.0625 "/></g></g></g><g fill="#f5e8da" fill-opacity="0.4"><g transform="translate(14.136626, 15.59626)"><g><path d="M 1.234375 -2.0625 C 1.503906 -2.0625 1.707031 -1.992188 1.84375 -1.859375 C 1.988281 -1.722656 2.0625 -1.523438 2.0625 -1.265625 C 2.0625 -1.160156 2.054688 -1.054688 2.046875 -0.953125 L 0.796875 -0.953125 C 0.804688 -0.734375 0.859375 -0.570312 0.953125 -0.46875 C 1.046875 -0.363281 1.179688 -0.3125 1.359375 -0.3125 C 1.554688 -0.3125 1.75 -0.347656 1.9375 -0.421875 L 2.03125 -0.203125 C 1.9375 -0.117188 1.804688 -0.0546875 1.640625 -0.015625 C 1.484375 0.0234375 1.332031 0.046875 1.1875 0.046875 C 0.84375 0.046875 0.578125 -0.0351562 0.390625 -0.203125 C 0.210938 -0.378906 0.125 -0.628906 0.125 -0.953125 C 0.125 -1.171875 0.171875 -1.363281 0.265625 -1.53125 C 0.359375 -1.695312 0.488281 -1.828125 0.65625 -1.921875 C 0.820312 -2.015625 1.015625 -2.0625 1.234375 -2.0625 Z M 1.171875 -1.8125 C 0.953125 -1.8125 0.828125 -1.617188 0.796875 -1.234375 L 1.453125 -1.234375 C 1.460938 -1.328125 1.46875 -1.40625 1.46875 -1.46875 C 1.46875 -1.695312 1.367188 -1.8125 1.171875 -1.8125 Z M 1.171875 -1.8125 "/></g></g></g><g fill="#f5e8da" fill-opacity="0.4"><g transform="translate(16.357891, 15.59626)"><g/></g></g><g fill="#f5e8da" fill-opacity="0.4"><g transform="translate(17.180309, 15.59626)"><g><path d="M 1.234375 -2.0625 C 1.503906 -2.0625 1.707031 -1.992188 1.84375 -1.859375 C 1.988281 -1.722656 2.0625 -1.523438 2.0625 -1.265625 C 2.0625 -1.160156 2.054688 -1.054688 2.046875 -0.953125 L 0.796875 -0.953125 C 0.804688 -0.734375 0.859375 -0.570312 0.953125 -0.46875 C 1.046875 -0.363281 1.179688 -0.3125 1.359375 -0.3125 C 1.554688 -0.3125 1.75 -0.347656 1.9375 -0.421875 L 2.03125 -0.203125 C 1.9375 -0.117188 1.804688 -0.0546875 1.640625 -0.015625 C 1.484375 0.0234375 1.332031 0.046875 1.1875 0.046875 C 0.84375 0.046875 0.578125 -0.0351562 0.390625 -0.203125 C 0.210938 -0.378906 0.125 -0.628906 0.125 -0.953125 C 0.125 -1.171875 0.171875 -1.363281 0.265625 -1.53125 C 0.359375 -1.695312 0.488281 -1.828125 0.65625 -1.921875 C 0.820312 -2.015625 1.015625 -2.0625 1.234375 -2.0625 Z M 1.171875 -1.8125 C 0.953125 -1.8125 0.828125 -1.617188 0.796875 -1.234375 L 1.453125 -1.234375 C 1.460938 -1.328125 1.46875 -1.40625 1.46875 -1.46875 C 1.46875 -1.695312 1.367188 -1.8125 1.171875 -1.8125 Z M 1.171875 -1.8125 "/></g></g></g><g fill="#f5e8da" fill-opacity="0.4"><g transform="translate(19.401575, 15.59626)"><g><path d="M 1.3125 -2.0625 C 1.414062 -2.0625 1.523438 -2.050781 1.640625 -2.03125 C 1.765625 -2.019531 1.851562 -2 1.90625 -1.96875 L 1.90625 -1.40625 L 1.578125 -1.40625 L 1.4375 -1.734375 C 1.382812 -1.765625 1.304688 -1.78125 1.203125 -1.78125 C 1.066406 -1.78125 0.960938 -1.710938 0.890625 -1.578125 C 0.828125 -1.441406 0.796875 -1.269531 0.796875 -1.0625 C 0.796875 -0.832031 0.84375 -0.648438 0.9375 -0.515625 C 1.039062 -0.378906 1.1875 -0.3125 1.375 -0.3125 C 1.46875 -0.3125 1.5625 -0.320312 1.65625 -0.34375 C 1.75 -0.363281 1.820312 -0.390625 1.875 -0.421875 L 1.96875 -0.203125 C 1.875 -0.117188 1.753906 -0.0546875 1.609375 -0.015625 C 1.472656 0.0234375 1.3125 0.046875 1.125 0.046875 C 0.925781 0.046875 0.75 0.00390625 0.59375 -0.078125 C 0.445312 -0.160156 0.332031 -0.273438 0.25 -0.421875 C 0.175781 -0.578125 0.140625 -0.753906 0.140625 -0.953125 C 0.140625 -1.171875 0.1875 -1.363281 0.28125 -1.53125 C 0.382812 -1.695312 0.523438 -1.828125 0.703125 -1.921875 C 0.878906 -2.015625 1.082031 -2.0625 1.3125 -2.0625 Z M 1.3125 -2.0625 "/></g></g></g><g fill="#f5e8da" fill-opacity="0.4"><g transform="translate(21.43559, 15.59626)"><g><path d="M 0.34375 -0.296875 L 0.34375 -2.484375 L 0.09375 -2.578125 L 0.09375 -2.828125 L 0.859375 -2.921875 L 0.96875 -2.890625 L 0.96875 -0.296875 L 1.28125 -0.25 L 1.28125 0 L 0.125 0 L 0.125 -0.25 Z M 0.34375 -0.296875 "/></g></g></g><g fill="#f5e8da" fill-opacity="0.4"><g transform="translate(22.753662, 15.59626)"><g><path d="M 1.125 -2.0625 C 1.40625 -2.0625 1.613281 -2.003906 1.75 -1.890625 C 1.882812 -1.773438 1.953125 -1.585938 1.953125 -1.328125 L 1.953125 -0.25 L 2.1875 -0.25 L 2.1875 -0.046875 C 2.132812 -0.015625 2.066406 0.00390625 1.984375 0.015625 C 1.898438 0.0351562 1.8125 0.046875 1.71875 0.046875 C 1.632812 0.046875 1.5625 0.03125 1.5 0 C 1.4375 -0.0390625 1.40625 -0.09375 1.40625 -0.15625 C 1.257812 -0.0195312 1.082031 0.046875 0.875 0.046875 C 0.65625 0.046875 0.472656 0 0.328125 -0.09375 C 0.191406 -0.195312 0.125 -0.34375 0.125 -0.53125 C 0.125 -0.6875 0.179688 -0.816406 0.296875 -0.921875 C 0.410156 -1.035156 0.554688 -1.117188 0.734375 -1.171875 C 0.921875 -1.234375 1.113281 -1.265625 1.3125 -1.265625 L 1.3125 -1.28125 C 1.3125 -1.445312 1.285156 -1.5625 1.234375 -1.625 C 1.179688 -1.6875 1.082031 -1.71875 0.9375 -1.71875 C 0.832031 -1.71875 0.722656 -1.703125 0.609375 -1.671875 C 0.492188 -1.648438 0.40625 -1.613281 0.34375 -1.5625 L 0.21875 -1.84375 C 0.3125 -1.914062 0.441406 -1.96875 0.609375 -2 C 0.785156 -2.039062 0.957031 -2.0625 1.125 -2.0625 Z M 1.3125 -0.984375 C 1.15625 -0.984375 1.023438 -0.953125 0.921875 -0.890625 C 0.816406 -0.828125 0.765625 -0.734375 0.765625 -0.609375 C 0.765625 -0.503906 0.789062 -0.425781 0.84375 -0.375 C 0.894531 -0.320312 0.96875 -0.296875 1.0625 -0.296875 C 1.164062 -0.296875 1.25 -0.320312 1.3125 -0.375 Z M 1.3125 -0.984375 "/></g></g></g><g fill="#f5e8da" fill-opacity="0.4"><g transform="translate(24.952896, 15.59626)"><g><path d="M 0.71875 -3.109375 C 0.832031 -3.109375 0.921875 -3.078125 0.984375 -3.015625 C 1.046875 -2.960938 1.078125 -2.882812 1.078125 -2.78125 C 1.078125 -2.65625 1.03125 -2.554688 0.9375 -2.484375 C 0.851562 -2.410156 0.753906 -2.375 0.640625 -2.375 C 0.535156 -2.375 0.445312 -2.40625 0.375 -2.46875 C 0.3125 -2.53125 0.28125 -2.613281 0.28125 -2.71875 C 0.28125 -2.789062 0.300781 -2.851562 0.34375 -2.90625 C 0.382812 -2.96875 0.4375 -3.015625 0.5 -3.046875 C 0.570312 -3.085938 0.644531 -3.109375 0.71875 -3.109375 Z M 1.015625 -2.015625 L 1.015625 -0.296875 L 1.28125 -0.25 L 1.28125 0 L 0.140625 0 L 0.140625 -0.25 L 0.375 -0.296875 L 0.375 -1.40625 L 0.15625 -1.671875 L 0.15625 -1.84375 L 0.859375 -2.0625 Z M 1.015625 -2.015625 "/></g></g></g><g fill="#f5e8da" fill-opacity="0.4"><g transform="translate(26.292999, 15.59626)"><g><path d="M 0.390625 -0.296875 L 0.390625 -1.46875 L 0.15625 -1.640625 L 0.15625 -1.859375 L 0.8125 -2.0625 L 0.953125 -2.03125 L 0.953125 -1.6875 C 0.960938 -1.75 0.992188 -1.804688 1.046875 -1.859375 C 1.109375 -1.921875 1.175781 -1.96875 1.25 -2 C 1.320312 -2.039062 1.394531 -2.0625 1.46875 -2.0625 C 1.5625 -2.0625 1.625 -2.054688 1.65625 -2.046875 L 1.65625 -1.46875 C 1.625 -1.5 1.578125 -1.519531 1.515625 -1.53125 C 1.453125 -1.550781 1.394531 -1.5625 1.34375 -1.5625 C 1.28125 -1.5625 1.21875 -1.550781 1.15625 -1.53125 C 1.09375 -1.519531 1.050781 -1.507812 1.03125 -1.5 L 1.03125 -0.3125 L 1.453125 -0.25 L 1.453125 0 L 0.171875 0 L 0.171875 -0.25 Z M 0.390625 -0.296875 "/></g></g></g><g fill="#692900" fill-opacity="1"><g transform="translate(1.935483, 15.434001)"><g><path d="M 0.25 -0.328125 L 1.125 -2.78125 L 1.734375 -2.78125 L 2.59375 -0.3125 L 2.859375 -0.25 L 2.859375 0 L 1.640625 0 L 1.640625 -0.25 L 1.875 -0.328125 L 1.796875 -0.609375 L 0.828125 -0.609375 L 0.75 -0.328125 L 1.015625 -0.25 L 1.015625 0 L 0 0 L 0 -0.25 Z M 1.46875 -1.75 L 1.328125 -2.25 L 0.921875 -0.9375 L 1.703125 -0.9375 Z M 1.46875 -1.75 "/></g></g></g><g fill="#692900" fill-opacity="1"><g transform="translate(4.802934, 15.434001)"><g><path d="M 1.109375 -2.0625 C 1.378906 -2.0625 1.585938 -2.003906 1.734375 -1.890625 C 1.796875 -2.003906 1.929688 -2.0625 2.140625 -2.0625 L 2.296875 -2.0625 L 2.296875 -1.625 L 1.921875 -1.625 C 1.941406 -1.5625 1.953125 -1.488281 1.953125 -1.40625 C 1.953125 -1.164062 1.867188 -0.984375 1.703125 -0.859375 C 1.535156 -0.742188 1.3125 -0.6875 1.03125 -0.6875 C 0.914062 -0.6875 0.8125 -0.695312 0.71875 -0.71875 C 0.695312 -0.675781 0.6875 -0.632812 0.6875 -0.59375 C 0.6875 -0.519531 0.707031 -0.46875 0.75 -0.4375 C 0.789062 -0.40625 0.859375 -0.390625 0.953125 -0.390625 L 1.375 -0.390625 C 1.570312 -0.390625 1.734375 -0.367188 1.859375 -0.328125 C 1.984375 -0.296875 2.078125 -0.238281 2.140625 -0.15625 C 2.203125 -0.0703125 2.234375 0.046875 2.234375 0.203125 C 2.234375 0.359375 2.175781 0.492188 2.0625 0.609375 C 1.957031 0.722656 1.8125 0.804688 1.625 0.859375 C 1.445312 0.921875 1.253906 0.953125 1.046875 0.953125 C 0.765625 0.953125 0.539062 0.910156 0.375 0.828125 C 0.207031 0.742188 0.125 0.609375 0.125 0.421875 C 0.125 0.316406 0.148438 0.222656 0.203125 0.140625 C 0.265625 0.0546875 0.335938 -0.0078125 0.421875 -0.0625 C 0.347656 -0.09375 0.296875 -0.132812 0.265625 -0.1875 C 0.242188 -0.238281 0.234375 -0.3125 0.234375 -0.40625 C 0.234375 -0.457031 0.253906 -0.519531 0.296875 -0.59375 C 0.347656 -0.675781 0.40625 -0.742188 0.46875 -0.796875 C 0.238281 -0.910156 0.125 -1.09375 0.125 -1.34375 C 0.125 -1.5 0.164062 -1.628906 0.25 -1.734375 C 0.34375 -1.847656 0.460938 -1.929688 0.609375 -1.984375 C 0.765625 -2.035156 0.929688 -2.0625 1.109375 -2.0625 Z M 1.046875 -1.8125 C 0.953125 -1.8125 0.875 -1.78125 0.8125 -1.71875 C 0.757812 -1.664062 0.734375 -1.585938 0.734375 -1.484375 C 0.734375 -1.328125 0.757812 -1.203125 0.8125 -1.109375 C 0.863281 -1.023438 0.953125 -0.984375 1.078125 -0.984375 C 1.179688 -0.984375 1.253906 -1.019531 1.296875 -1.09375 C 1.347656 -1.175781 1.375 -1.273438 1.375 -1.390625 C 1.375 -1.523438 1.34375 -1.628906 1.28125 -1.703125 C 1.226562 -1.773438 1.148438 -1.8125 1.046875 -1.8125 Z M 0.71875 0 C 0.675781 0.0625 0.65625 0.144531 0.65625 0.25 C 0.65625 0.382812 0.703125 0.488281 0.796875 0.5625 C 0.890625 0.632812 1.007812 0.671875 1.15625 0.671875 C 1.332031 0.671875 1.457031 0.644531 1.53125 0.59375 C 1.613281 0.550781 1.65625 0.46875 1.65625 0.34375 C 1.65625 0.207031 1.625 0.113281 1.5625 0.0625 C 1.5 0.0195312 1.394531 0 1.25 0 L 0.9375 0 C 0.832031 0 0.757812 0 0.71875 0 Z M 0.71875 0 "/></g></g></g><g fill="#692900" fill-opacity="1"><g transform="translate(7.090287, 15.434001)"><g><path d="M 1.234375 -2.0625 C 1.503906 -2.0625 1.707031 -1.992188 1.84375 -1.859375 C 1.988281 -1.722656 2.0625 -1.523438 2.0625 -1.265625 C 2.0625 -1.160156 2.054688 -1.054688 2.046875 -0.953125 L 0.796875 -0.953125 C 0.804688 -0.734375 0.859375 -0.570312 0.953125 -0.46875 C 1.046875 -0.363281 1.179688 -0.3125 1.359375 -0.3125 C 1.554688 -0.3125 1.75 -0.347656 1.9375 -0.421875 L 2.03125 -0.203125 C 1.9375 -0.117188 1.804688 -0.0546875 1.640625 -0.015625 C 1.484375 0.0234375 1.332031 0.046875 1.1875 0.046875 C 0.84375 0.046875 0.578125 -0.0351562 0.390625 -0.203125 C 0.210938 -0.378906 0.125 -0.628906 0.125 -0.953125 C 0.125 -1.171875 0.171875 -1.363281 0.265625 -1.53125 C 0.359375 -1.695312 0.488281 -1.828125 0.65625 -1.921875 C 0.820312 -2.015625 1.015625 -2.0625 1.234375 -2.0625 Z M 1.171875 -1.8125 C 0.953125 -1.8125 0.828125 -1.617188 0.796875 -1.234375 L 1.453125 -1.234375 C 1.460938 -1.328125 1.46875 -1.40625 1.46875 -1.46875 C 1.46875 -1.695312 1.367188 -1.8125 1.171875 -1.8125 Z M 1.171875 -1.8125 "/></g></g></g><g fill="#692900" fill-opacity="1"><g transform="translate(9.311553, 15.434001)"><g><path d="M 0.390625 -0.296875 L 0.390625 -1.46875 L 0.15625 -1.640625 L 0.15625 -1.859375 L 0.8125 -2.0625 L 0.953125 -2.03125 L 0.953125 -1.765625 C 1.046875 -1.859375 1.160156 -1.929688 1.296875 -1.984375 C 1.441406 -2.035156 1.578125 -2.0625 1.703125 -2.0625 C 1.921875 -2.0625 2.070312 -1.992188 2.15625 -1.859375 C 2.25 -1.722656 2.296875 -1.519531 2.296875 -1.25 L 2.296875 -0.296875 L 2.546875 -0.25 L 2.546875 0 L 1.40625 0 L 1.40625 -0.25 L 1.65625 -0.296875 L 1.65625 -1.171875 C 1.65625 -1.304688 1.644531 -1.40625 1.625 -1.46875 C 1.613281 -1.53125 1.582031 -1.578125 1.53125 -1.609375 C 1.476562 -1.640625 1.398438 -1.65625 1.296875 -1.65625 C 1.265625 -1.65625 1.21875 -1.644531 1.15625 -1.625 C 1.09375 -1.601562 1.050781 -1.582031 1.03125 -1.5625 L 1.03125 -0.296875 L 1.25 -0.25 L 1.25 0 L 0.171875 0 L 0.171875 -0.25 Z M 0.390625 -0.296875 "/></g></g></g><g fill="#692900" fill-opacity="1"><g transform="translate(11.940353, 15.434001)"><g><path d="M 1.3125 -2.0625 C 1.414062 -2.0625 1.523438 -2.050781 1.640625 -2.03125 C 1.765625 -2.019531 1.851562 -2 1.90625 -1.96875 L 1.90625 -1.40625 L 1.578125 -1.40625 L 1.4375 -1.734375 C 1.382812 -1.765625 1.304688 -1.78125 1.203125 -1.78125 C 1.066406 -1.78125 0.960938 -1.710938 0.890625 -1.578125 C 0.828125 -1.441406 0.796875 -1.269531 0.796875 -1.0625 C 0.796875 -0.832031 0.84375 -0.648438 0.9375 -0.515625 C 1.039062 -0.378906 1.1875 -0.3125 1.375 -0.3125 C 1.46875 -0.3125 1.5625 -0.320312 1.65625 -0.34375 C 1.75 -0.363281 1.820312 -0.390625 1.875 -0.421875 L 1.96875 -0.203125 C 1.875 -0.117188 1.753906 -0.0546875 1.609375 -0.015625 C 1.472656 0.0234375 1.3125 0.046875 1.125 0.046875 C 0.925781 0.046875 0.75 0.00390625 0.59375 -0.078125 C 0.445312 -0.160156 0.332031 -0.273438 0.25 -0.421875 C 0.175781 -0.578125 0.140625 -0.753906 0.140625 -0.953125 C 0.140625 -1.171875 0.1875 -1.363281 0.28125 -1.53125 C 0.382812 -1.695312 0.523438 -1.828125 0.703125 -1.921875 C 0.878906 -2.015625 1.082031 -2.0625 1.3125 -2.0625 Z M 1.3125 -2.0625 "/></g></g></g><g fill="#692900" fill-opacity="1"><g transform="translate(13.974368, 15.434001)"><g><path d="M 1.234375 -2.0625 C 1.503906 -2.0625 1.707031 -1.992188 1.84375 -1.859375 C 1.988281 -1.722656 2.0625 -1.523438 2.0625 -1.265625 C 2.0625 -1.160156 2.054688 -1.054688 2.046875 -0.953125 L 0.796875 -0.953125 C 0.804688 -0.734375 0.859375 -0.570312 0.953125 -0.46875 C 1.046875 -0.363281 1.179688 -0.3125 1.359375 -0.3125 C 1.554688 -0.3125 1.75 -0.347656 1.9375 -0.421875 L 2.03125 -0.203125 C 1.9375 -0.117188 1.804688 -0.0546875 1.640625 -0.015625 C 1.484375 0.0234375 1.332031 0.046875 1.1875 0.046875 C 0.84375 0.046875 0.578125 -0.0351562 0.390625 -0.203125 C 0.210938 -0.378906 0.125 -0.628906 0.125 -0.953125 C 0.125 -1.171875 0.171875 -1.363281 0.265625 -1.53125 C 0.359375 -1.695312 0.488281 -1.828125 0.65625 -1.921875 C 0.820312 -2.015625 1.015625 -2.0625 1.234375 -2.0625 Z M 1.171875 -1.8125 C 0.953125 -1.8125 0.828125 -1.617188 0.796875 -1.234375 L 1.453125 -1.234375 C 1.460938 -1.328125 1.46875 -1.40625 1.46875 -1.46875 C 1.46875 -1.695312 1.367188 -1.8125 1.171875 -1.8125 Z M 1.171875 -1.8125 "/></g></g></g><g fill="#692900" fill-opacity="1"><g transform="translate(16.195633, 15.434001)"><g/></g></g><g fill="#692900" fill-opacity="1"><g transform="translate(17.018051, 15.434001)"><g><path d="M 1.234375 -2.0625 C 1.503906 -2.0625 1.707031 -1.992188 1.84375 -1.859375 C 1.988281 -1.722656 2.0625 -1.523438 2.0625 -1.265625 C 2.0625 -1.160156 2.054688 -1.054688 2.046875 -0.953125 L 0.796875 -0.953125 C 0.804688 -0.734375 0.859375 -0.570312 0.953125 -0.46875 C 1.046875 -0.363281 1.179688 -0.3125 1.359375 -0.3125 C 1.554688 -0.3125 1.75 -0.347656 1.9375 -0.421875 L 2.03125 -0.203125 C 1.9375 -0.117188 1.804688 -0.0546875 1.640625 -0.015625 C 1.484375 0.0234375 1.332031 0.046875 1.1875 0.046875 C 0.84375 0.046875 0.578125 -0.0351562 0.390625 -0.203125 C 0.210938 -0.378906 0.125 -0.628906 0.125 -0.953125 C 0.125 -1.171875 0.171875 -1.363281 0.265625 -1.53125 C 0.359375 -1.695312 0.488281 -1.828125 0.65625 -1.921875 C 0.820312 -2.015625 1.015625 -2.0625 1.234375 -2.0625 Z M 1.171875 -1.8125 C 0.953125 -1.8125 0.828125 -1.617188 0.796875 -1.234375 L 1.453125 -1.234375 C 1.460938 -1.328125 1.46875 -1.40625 1.46875 -1.46875 C 1.46875 -1.695312 1.367188 -1.8125 1.171875 -1.8125 Z M 1.171875 -1.8125 "/></g></g></g><g fill="#692900" fill-opacity="1"><g transform="translate(19.239316, 15.434001)"><g><path d="M 1.3125 -2.0625 C 1.414062 -2.0625 1.523438 -2.050781 1.640625 -2.03125 C 1.765625 -2.019531 1.851562 -2 1.90625 -1.96875 L 1.90625 -1.40625 L 1.578125 -1.40625 L 1.4375 -1.734375 C 1.382812 -1.765625 1.304688 -1.78125 1.203125 -1.78125 C 1.066406 -1.78125 0.960938 -1.710938 0.890625 -1.578125 C 0.828125 -1.441406 0.796875 -1.269531 0.796875 -1.0625 C 0.796875 -0.832031 0.84375 -0.648438 0.9375 -0.515625 C 1.039062 -0.378906 1.1875 -0.3125 1.375 -0.3125 C 1.46875 -0.3125 1.5625 -0.320312 1.65625 -0.34375 C 1.75 -0.363281 1.820312 -0.390625 1.875 -0.421875 L 1.96875 -0.203125 C 1.875 -0.117188 1.753906 -0.0546875 1.609375 -0.015625 C 1.472656 0.0234375 1.3125 0.046875 1.125 0.046875 C 0.925781 0.046875 0.75 0.00390625 0.59375 -0.078125 C 0.445312 -0.160156 0.332031 -0.273438 0.25 -0.421875 C 0.175781 -0.578125 0.140625 -0.753906 0.140625 -0.953125 C 0.140625 -1.171875 0.1875 -1.363281 0.28125 -1.53125 C 0.382812 -1.695312 0.523438 -1.828125 0.703125 -1.921875 C 0.878906 -2.015625 1.082031 -2.0625 1.3125 -2.0625 Z M 1.3125 -2.0625 "/></g></g></g><g fill="#692900" fill-opacity="1"><g transform="translate(21.273331, 15.434001)"><g><path d="M 0.34375 -0.296875 L 0.34375 -2.484375 L 0.09375 -2.578125 L 0.09375 -2.828125 L 0.859375 -2.921875 L 0.96875 -2.890625 L 0.96875 -0.296875 L 1.28125 -0.25 L 1.28125 0 L 0.125 0 L 0.125 -0.25 Z M 0.34375 -0.296875 "/></g></g></g><g fill="#692900" fill-opacity="1"><g transform="translate(22.591403, 15.434001)"><g><path d="M 1.125 -2.0625 C 1.40625 -2.0625 1.613281 -2.003906 1.75 -1.890625 C 1.882812 -1.773438 1.953125 -1.585938 1.953125 -1.328125 L 1.953125 -0.25 L 2.1875 -0.25 L 2.1875 -0.046875 C 2.132812 -0.015625 2.066406 0.00390625 1.984375 0.015625 C 1.898438 0.0351562 1.8125 0.046875 1.71875 0.046875 C 1.632812 0.046875 1.5625 0.03125 1.5 0 C 1.4375 -0.0390625 1.40625 -0.09375 1.40625 -0.15625 C 1.257812 -0.0195312 1.082031 0.046875 0.875 0.046875 C 0.65625 0.046875 0.472656 0 0.328125 -0.09375 C 0.191406 -0.195312 0.125 -0.34375 0.125 -0.53125 C 0.125 -0.6875 0.179688 -0.816406 0.296875 -0.921875 C 0.410156 -1.035156 0.554688 -1.117188 0.734375 -1.171875 C 0.921875 -1.234375 1.113281 -1.265625 1.3125 -1.265625 L 1.3125 -1.28125 C 1.3125 -1.445312 1.285156 -1.5625 1.234375 -1.625 C 1.179688 -1.6875 1.082031 -1.71875 0.9375 -1.71875 C 0.832031 -1.71875 0.722656 -1.703125 0.609375 -1.671875 C 0.492188 -1.648438 0.40625 -1.613281 0.34375 -1.5625 L 0.21875 -1.84375 C 0.3125 -1.914062 0.441406 -1.96875 0.609375 -2 C 0.785156 -2.039062 0.957031 -2.0625 1.125 -2.0625 Z M 1.3125 -0.984375 C 1.15625 -0.984375 1.023438 -0.953125 0.921875 -0.890625 C 0.816406 -0.828125 0.765625 -0.734375 0.765625 -0.609375 C 0.765625 -0.503906 0.789062 -0.425781 0.84375 -0.375 C 0.894531 -0.320312 0.96875 -0.296875 1.0625 -0.296875 C 1.164062 -0.296875 1.25 -0.320312 1.3125 -0.375 Z M 1.3125 -0.984375 "/></g></g></g><g fill="#692900" fill-opacity="1"><g transform="translate(24.790638, 15.434001)"><g><path d="M 0.71875 -3.109375 C 0.832031 -3.109375 0.921875 -3.078125 0.984375 -3.015625 C 1.046875 -2.960938 1.078125 -2.882812 1.078125 -2.78125 C 1.078125 -2.65625 1.03125 -2.554688 0.9375 -2.484375 C 0.851562 -2.410156 0.753906 -2.375 0.640625 -2.375 C 0.535156 -2.375 0.445312 -2.40625 0.375 -2.46875 C 0.3125 -2.53125 0.28125 -2.613281 0.28125 -2.71875 C 0.28125 -2.789062 0.300781 -2.851562 0.34375 -2.90625 C 0.382812 -2.96875 0.4375 -3.015625 0.5 -3.046875 C 0.570312 -3.085938 0.644531 -3.109375 0.71875 -3.109375 Z M 1.015625 -2.015625 L 1.015625 -0.296875 L 1.28125 -0.25 L 1.28125 0 L 0.140625 0 L 0.140625 -0.25 L 0.375 -0.296875 L 0.375 -1.40625 L 0.15625 -1.671875 L 0.15625 -1.84375 L 0.859375 -2.0625 Z M 1.015625 -2.015625 "/></g></g></g><g fill="#692900" fill-opacity="1"><g transform="translate(26.13074, 15.434001)"><g><path d="M 0.390625 -0.296875 L 0.390625 -1.46875 L 0.15625 -1.640625 L 0.15625 -1.859375 L 0.8125 -2.0625 L 0.953125 -2.03125 L 0.953125 -1.6875 C 0.960938 -1.75 0.992188 -1.804688 1.046875 -1.859375 C 1.109375 -1.921875 1.175781 -1.96875 1.25 -2 C 1.320312 -2.039062 1.394531 -2.0625 1.46875 -2.0625 C 1.5625 -2.0625 1.625 -2.054688 1.65625 -2.046875 L 1.65625 -1.46875 C 1.625 -1.5 1.578125 -1.519531 1.515625 -1.53125 C 1.453125 -1.550781 1.394531 -1.5625 1.34375 -1.5625 C 1.28125 -1.5625 1.21875 -1.550781 1.15625 -1.53125 C 1.09375 -1.519531 1.050781 -1.507812 1.03125 -1.5 L 1.03125 -0.3125 L 1.453125 -0.25 L 1.453125 0 L 0.171875 0 L 0.171875 -0.25 Z M 0.390625 -0.296875 "/></g></g></g></svg>